{"glyphs":{"0":{"ha":1492,"x_min":0,"x_max":0,"o":""},"1":{"ha":1492,"x_min":0,"x_max":0,"o":""},"2":{"ha":1492,"x_min":0,"x_max":0,"o":""},"3":{"ha":1492,"x_min":0,"x_max":0,"o":""},"4":{"ha":1492,"x_min":0,"x_max":0,"o":""},"5":{"ha":1492,"x_min":0,"x_max":0,"o":""},"6":{"ha":1492,"x_min":0,"x_max":0,"o":""},"7":{"ha":1492,"x_min":0,"x_max":0,"o":""},"8":{"ha":1492,"x_min":0,"x_max":0,"o":""},"9":{"ha":1492,"x_min":0,"x_max":0,"o":""},"\u0000":{"ha":0,"x_min":0,"x_max":0,"o":""},"\r":{"ha":347,"x_min":0,"x_max":0,"o":""}," ":{"ha":625,"x_min":0,"x_max":0,"o":""},"!":{"ha":718,"x_min":70,"x_max":1262,"o":"m 745 153 q 722 97 735 125 q 690 48 708 70 q 651 13 673 26 q 602 -1 629 -1 l 126 -1 q 86 13 99 -1 q 72 47 74 26 q 76 97 70 69 q 93 153 83 125 q 117 210 103 182 q 149 259 131 237 q 189 295 167 281 q 238 308 211 308 l 712 306 q 752 293 739 306 q 766 259 764 280 q 762 210 768 237 q 745 153 756 182 m 929 659 q 898 585 916 621 q 857 520 880 549 q 804 474 833 492 q 739 456 775 456 l 320 456 q 268 474 284 456 q 249 520 252 492 q 255 585 247 549 q 277 659 263 621 l 579 1489 q 611 1563 593 1527 q 652 1628 629 1599 q 705 1674 675 1656 q 770 1691 734 1691 l 1189 1691 q 1241 1674 1225 1691 q 1260 1628 1257 1656 q 1254 1563 1262 1599 q 1232 1489 1245 1527 l 929 659 z "},"\"":{"ha":923,"x_min":474,"x_max":1454,"o":"m 752 897 q 737 861 747 882 q 715 819 728 839 q 688 784 703 798 q 656 770 673 770 q 632 779 642 770 q 616 799 623 787 l 500 997 q 479 1060 485 1023 q 477 1138 474 1097 q 489 1222 479 1179 q 513 1305 498 1265 l 583 1498 q 615 1568 595 1532 q 659 1633 634 1603 q 712 1682 683 1663 q 774 1701 741 1701 q 820 1702 798 1701 q 865 1702 843 1702 q 935 1696 904 1702 q 982 1669 966 1690 q 997 1607 998 1648 q 970 1496 996 1566 l 752 897 m 1208 897 q 1193 861 1202 882 q 1171 819 1183 839 q 1143 784 1158 798 q 1112 770 1128 770 q 1088 779 1097 770 q 1072 799 1078 787 l 956 997 q 935 1060 941 1023 q 932 1138 930 1097 q 945 1222 935 1179 q 968 1305 954 1265 l 1039 1498 q 1070 1568 1051 1532 q 1114 1633 1090 1603 q 1168 1682 1139 1663 q 1230 1701 1197 1701 q 1276 1702 1253 1701 q 1320 1702 1299 1702 q 1391 1696 1360 1702 q 1438 1669 1421 1690 q 1453 1607 1454 1648 q 1426 1496 1451 1566 l 1208 897 z "},"#":{"ha":1868,"x_min":218,"x_max":2306,"o":"m 1529 1603 q 1502 1546 1518 1573 q 1474 1489 1485 1519 q 1468 1427 1461 1451 q 1506 1402 1474 1402 q 1557 1401 1533 1402 q 1604 1400 1581 1400 q 1660 1404 1633 1400 q 1714 1424 1687 1409 q 1767 1469 1740 1440 q 1824 1546 1794 1498 q 1860 1598 1839 1572 q 1903 1645 1880 1624 q 1950 1678 1925 1666 q 1999 1691 1974 1691 l 2237 1689 q 2267 1682 2256 1689 q 2283 1660 2279 1674 q 2285 1628 2287 1647 q 2275 1587 2283 1609 q 2246 1529 2263 1556 q 2218 1472 2229 1501 q 2209 1432 2209 1447 q 2217 1411 2210 1418 q 2236 1402 2224 1404 q 2259 1398 2247 1400 q 2282 1394 2271 1397 q 2300 1380 2294 1390 q 2305 1353 2306 1371 q 2293 1304 2304 1335 q 2265 1246 2282 1274 q 2233 1190 2249 1218 q 2187 1119 2214 1154 q 2130 1056 2160 1084 q 2067 1010 2100 1027 q 2002 992 2034 992 q 1951 975 1978 992 q 1902 932 1925 958 q 1860 876 1879 907 q 1832 818 1842 846 q 1824 773 1821 789 q 1837 751 1826 758 q 1865 744 1848 745 q 1899 742 1881 743 q 1932 736 1917 741 q 1956 720 1948 732 q 1964 683 1965 707 q 1948 617 1963 659 q 1921 555 1938 587 q 1882 492 1904 523 q 1835 432 1860 460 q 1782 382 1809 404 q 1727 348 1755 361 q 1672 336 1699 336 l 1645 336 q 1568 311 1603 336 q 1502 249 1533 286 q 1442 168 1472 212 q 1382 87 1413 124 q 1316 25 1351 50 q 1239 0 1281 0 l 1013 0 q 983 7 994 0 q 968 28 972 15 q 966 61 964 42 q 976 101 968 79 q 1008 168 989 135 q 1040 233 1028 200 q 1051 274 1048 256 q 1049 307 1053 293 q 1033 328 1044 320 q 1004 335 1022 335 q 888 333 945 335 q 829 318 857 332 q 777 280 802 304 q 730 227 753 256 q 686 165 708 197 q 641 105 663 134 q 594 52 618 75 q 543 14 570 28 q 485 0 516 0 l 275 0 q 241 9 254 0 q 223 34 228 18 q 220 71 218 50 q 233 119 223 93 q 247 153 239 136 q 264 185 256 169 q 282 217 273 201 q 296 250 290 233 q 306 293 306 277 q 300 316 306 308 q 283 327 294 324 q 261 333 273 330 q 240 339 250 335 q 224 352 229 342 q 219 379 218 362 q 231 427 220 397 q 261 492 242 459 q 298 555 280 524 q 343 624 317 590 q 398 686 369 659 q 460 731 428 714 q 524 749 492 749 q 574 765 548 749 q 623 807 600 782 q 665 863 646 833 q 694 921 684 894 q 701 962 703 948 q 689 981 699 975 q 664 988 679 987 q 633 990 649 989 q 603 995 617 991 q 581 1011 589 999 q 574 1045 573 1023 q 589 1105 575 1067 q 618 1170 600 1136 q 658 1237 635 1204 q 707 1301 680 1270 q 761 1354 733 1331 q 819 1391 789 1377 q 876 1404 848 1404 l 896 1404 q 962 1427 932 1405 q 1019 1480 992 1448 q 1070 1549 1045 1512 q 1122 1617 1095 1586 q 1178 1670 1148 1649 q 1243 1691 1207 1691 l 1498 1689 q 1537 1666 1530 1689 q 1529 1603 1544 1642 m 1274 746 q 1325 762 1299 746 q 1374 804 1351 779 q 1417 859 1398 829 q 1446 916 1436 889 q 1452 970 1457 949 q 1419 991 1447 991 l 1249 990 q 1198 974 1224 990 q 1149 933 1173 958 q 1107 878 1126 908 q 1078 820 1088 848 q 1072 767 1066 787 q 1104 746 1077 746 l 1274 746 z "},"$":{"ha":1485,"x_min":94,"x_max":2009,"o":"m 804 696 q 860 673 842 696 q 882 616 878 651 q 878 539 886 581 q 855 456 869 496 l 742 145 q 733 112 736 129 q 731 81 730 95 q 741 58 733 67 q 763 50 748 50 q 792 59 779 50 q 817 82 806 68 q 838 113 829 96 q 852 146 847 130 l 1006 567 q 1029 650 1021 607 q 1033 727 1037 692 q 1011 785 1029 762 q 955 807 993 807 l 471 807 q 415 830 433 807 q 393 887 397 852 q 397 965 389 922 q 420 1048 406 1008 l 566 1450 q 603 1532 580 1490 q 654 1610 625 1575 q 718 1667 684 1645 q 791 1689 752 1689 l 1049 1689 q 1144 1711 1098 1689 q 1234 1770 1190 1733 q 1318 1855 1278 1807 q 1397 1955 1359 1904 q 1468 2059 1434 2007 q 1532 2155 1502 2110 q 1526 2056 1529 2108 q 1524 1951 1523 2003 q 1532 1852 1525 1900 q 1558 1769 1539 1805 q 1608 1711 1576 1733 q 1691 1689 1640 1689 l 1928 1689 q 1984 1667 1966 1689 q 2006 1610 2003 1645 q 2001 1532 2009 1575 q 1979 1450 1993 1490 q 1953 1377 1967 1419 q 1921 1293 1939 1336 q 1880 1207 1902 1249 q 1831 1132 1858 1165 q 1770 1078 1803 1099 q 1698 1058 1737 1058 l 1323 1058 q 1267 1081 1285 1058 q 1245 1138 1249 1103 q 1250 1216 1242 1173 q 1272 1299 1258 1259 l 1364 1553 q 1374 1586 1371 1569 q 1375 1616 1377 1603 q 1367 1639 1374 1630 q 1345 1649 1360 1649 q 1316 1640 1330 1649 q 1290 1617 1301 1631 q 1269 1586 1278 1603 q 1254 1553 1260 1569 l 1118 1179 q 1095 1097 1103 1139 q 1091 1019 1087 1054 q 1113 962 1095 984 q 1169 939 1131 939 l 1655 939 q 1697 929 1681 939 q 1722 901 1713 918 q 1733 859 1731 883 q 1732 809 1735 836 q 1722 754 1729 782 q 1706 699 1715 726 l 1539 241 q 1501 158 1525 201 q 1449 80 1478 115 q 1385 23 1420 45 q 1313 0 1351 0 l 1076 0 q 986 -21 1033 0 q 892 -75 939 -41 q 804 -153 846 -109 q 726 -243 761 -197 l 569 -454 l 574 -254 q 568 -161 576 -206 q 540 -80 559 -115 q 490 -22 521 -44 q 414 0 458 0 l 176 0 q 119 23 138 0 q 98 80 101 45 q 102 158 94 115 q 125 241 111 201 q 151 318 136 273 q 186 415 166 364 q 230 515 205 465 q 284 606 254 566 q 350 671 314 646 q 429 696 386 696 l 804 696 z "},"%":{"ha":1276,"x_min":279,"x_max":1614,"o":"m 1595 1590 q 1576 1545 1587 1567 q 1552 1501 1565 1523 l 775 189 q 727 117 753 151 q 673 57 702 83 q 613 15 645 31 q 547 0 582 0 l 347 0 q 293 24 307 0 q 298 101 279 48 q 318 145 307 123 q 342 189 329 167 l 1118 1502 q 1166 1574 1141 1540 q 1220 1635 1192 1609 q 1281 1676 1249 1661 q 1347 1691 1312 1691 q 1447 1690 1397 1691 q 1546 1689 1496 1689 q 1600 1666 1587 1689 q 1595 1590 1614 1642 m 895 1295 q 863 1221 881 1257 q 822 1156 845 1185 q 769 1110 798 1128 q 704 1093 740 1093 l 550 1093 q 498 1110 514 1093 q 479 1156 481 1128 q 485 1221 477 1185 q 507 1295 494 1257 l 578 1489 q 609 1563 591 1527 q 651 1628 627 1599 q 703 1674 674 1656 q 768 1691 732 1691 q 845 1690 807 1691 q 922 1689 883 1689 q 974 1672 958 1689 q 992 1626 990 1655 q 986 1561 995 1598 q 964 1487 978 1525 l 895 1295 m 1313 203 q 1281 129 1299 165 q 1240 64 1263 92 q 1187 18 1217 35 q 1122 0 1158 0 l 968 0 q 916 18 932 0 q 898 64 900 35 q 904 129 895 92 q 926 203 912 165 l 996 396 q 1028 470 1010 434 q 1069 535 1046 507 q 1121 581 1093 564 q 1186 599 1150 599 q 1244 600 1217 599 q 1297 602 1272 602 q 1361 595 1334 602 q 1402 567 1389 589 q 1412 505 1415 546 q 1383 395 1408 464 l 1313 203 z "},"&":{"ha":1653,"x_min":81,"x_max":2049,"o":"m 618 1559 q 638 1603 626 1580 q 665 1643 650 1625 q 698 1673 680 1662 q 736 1685 716 1685 l 2005 1685 q 2035 1673 2026 1685 q 2047 1643 2045 1662 q 2044 1603 2049 1625 q 2032 1559 2040 1580 l 1962 1365 q 1942 1322 1954 1344 q 1915 1281 1930 1299 q 1882 1250 1900 1262 q 1843 1238 1864 1238 l 1226 1238 q 1188 1226 1206 1238 q 1155 1196 1170 1215 q 1127 1156 1139 1178 q 1107 1112 1115 1133 l 753 138 q 744 105 747 122 q 742 74 741 88 q 751 51 743 60 q 773 41 758 41 q 802 51 788 41 q 827 74 816 60 q 848 104 839 87 q 863 136 857 121 l 1025 581 q 1041 657 1041 625 q 1036 712 1041 690 q 1024 750 1030 735 q 1021 773 1018 764 q 1042 799 1027 787 q 1078 828 1058 811 q 1118 869 1097 844 q 1152 932 1138 893 q 1161 952 1156 942 q 1174 971 1167 962 q 1190 985 1181 980 q 1208 991 1198 991 l 1795 991 q 1810 983 1807 991 q 1811 962 1813 975 q 1805 933 1809 949 q 1797 901 1801 918 q 1795 868 1794 884 q 1805 840 1796 852 q 1812 829 1808 835 q 1820 817 1817 824 q 1825 803 1824 810 q 1823 786 1826 795 q 1802 759 1820 777 q 1761 715 1784 741 q 1714 653 1738 689 q 1673 572 1690 618 l 1511 126 q 1491 83 1503 105 q 1464 42 1479 60 q 1431 12 1449 24 q 1392 0 1413 0 l 123 0 q 94 12 103 0 q 82 42 84 24 q 85 83 81 60 q 97 126 90 105 l 618 1559 m 1356 1641 q 1327 1632 1341 1641 q 1301 1610 1313 1624 q 1281 1579 1290 1596 q 1265 1546 1272 1563 l 1206 1382 q 1197 1349 1200 1366 q 1195 1319 1194 1333 q 1204 1296 1197 1305 q 1227 1287 1212 1287 q 1255 1296 1242 1287 q 1281 1319 1269 1305 q 1301 1350 1293 1333 q 1316 1382 1310 1367 l 1376 1546 q 1385 1578 1381 1562 q 1387 1609 1388 1595 q 1378 1632 1385 1623 q 1356 1641 1371 1641 z "},"'":{"ha":471,"x_min":474,"x_max":998,"o":"m 752 897 q 737 861 747 882 q 715 819 728 839 q 688 784 703 798 q 656 770 673 770 q 632 779 642 770 q 616 799 623 787 l 500 997 q 479 1060 485 1023 q 477 1138 474 1097 q 489 1222 479 1179 q 513 1305 498 1265 l 583 1498 q 615 1568 595 1532 q 659 1633 634 1603 q 712 1682 683 1663 q 774 1701 741 1701 q 820 1702 798 1701 q 865 1702 843 1702 q 935 1696 904 1702 q 982 1669 966 1690 q 997 1607 998 1648 q 970 1496 996 1566 l 752 897 z "},"(":{"ha":488,"x_min":50,"x_max":1050,"o":"m 448 24 q 439 8 445 16 q 425 0 433 0 l 68 0 q 56 5 60 0 q 51 18 52 10 q 52 36 50 26 q 57 54 54 45 l 633 1635 q 641 1654 636 1645 q 653 1671 646 1664 q 667 1684 659 1679 q 684 1689 675 1689 l 1043 1689 q 1049 1683 1049 1689 q 1047 1670 1050 1676 q 1032 1650 1042 1655 q 1010 1645 1022 1645 q 976 1649 994 1645 q 940 1653 958 1653 q 919 1650 930 1653 q 900 1642 909 1648 q 882 1624 890 1635 q 867 1594 873 1612 l 325 104 q 318 75 318 86 q 322 57 318 63 q 335 48 327 50 q 355 45 344 45 q 392 49 372 45 q 428 53 412 53 q 448 47 441 53 q 448 24 454 41 z "},")":{"ha":522,"x_min":65,"x_max":1064,"o":"m 68 24 q 85 47 75 41 q 109 53 96 53 q 142 49 125 53 q 178 45 160 45 q 218 57 199 45 q 250 104 237 68 l 793 1594 q 799 1624 799 1612 q 794 1642 799 1635 q 782 1650 790 1648 q 762 1653 773 1653 q 723 1649 744 1653 q 687 1645 703 1645 q 668 1650 674 1645 q 667 1670 662 1655 q 675 1683 670 1676 q 686 1689 680 1689 l 1046 1689 q 1059 1684 1055 1689 q 1063 1671 1063 1679 q 1062 1654 1064 1664 q 1057 1635 1061 1645 l 481 54 q 473 36 478 45 q 461 18 468 26 q 447 5 455 10 q 431 0 439 0 l 74 0 q 65 8 66 0 q 68 24 65 16 z "},"*":{"ha":1617,"x_min":694,"x_max":2151,"o":"m 694 1714 q 794 1721 741 1717 q 904 1733 848 1725 q 1018 1755 960 1741 q 1132 1793 1076 1769 q 1243 1853 1189 1817 q 1347 1940 1297 1889 q 1448 2070 1399 1994 q 1541 2234 1496 2146 q 1628 2417 1586 2322 q 1706 2604 1669 2512 q 1774 2780 1742 2696 q 1834 2930 1807 2864 q 1782 2775 1811 2861 q 1724 2596 1753 2690 q 1670 2406 1695 2502 q 1628 2220 1645 2310 q 1607 2053 1611 2131 q 1617 1919 1603 1976 q 1653 1837 1628 1871 q 1712 1781 1678 1804 q 1787 1744 1746 1758 q 1873 1724 1828 1731 q 1965 1714 1919 1716 q 2055 1712 2011 1712 q 2151 1714 2102 1712 q 2048 1705 2104 1710 q 1932 1694 1992 1701 q 1809 1674 1872 1687 q 1686 1639 1747 1661 q 1569 1584 1626 1617 q 1465 1501 1513 1550 q 1349 1359 1404 1440 q 1244 1184 1294 1277 q 1150 991 1195 1091 q 1066 794 1105 892 q 992 607 1027 697 q 928 441 958 516 q 968 561 945 496 q 1014 696 990 625 q 1062 842 1038 767 q 1107 992 1086 917 q 1147 1140 1129 1067 q 1176 1279 1164 1213 q 1189 1404 1187 1345 q 1183 1508 1192 1462 q 1146 1600 1173 1564 q 1081 1660 1120 1637 q 995 1694 1042 1683 q 896 1710 947 1706 q 793 1715 845 1715 q 694 1714 741 1714 z "},"+":{"ha":815,"x_min":302,"x_max":1138,"o":"m 1067 819 q 1025 734 1046 764 q 981 689 1004 704 q 936 672 959 675 q 890 668 913 669 q 844 664 867 667 q 798 647 821 661 q 754 603 776 633 q 713 519 733 573 q 697 469 707 499 q 674 406 687 439 q 646 339 662 372 q 611 278 631 305 q 568 234 591 251 q 517 217 545 217 l 435 217 q 396 234 408 217 q 386 278 385 251 q 395 339 386 305 q 415 406 404 372 q 439 469 427 439 q 458 519 452 499 q 477 590 474 562 q 475 633 481 617 q 456 656 469 650 q 426 666 443 663 q 391 668 410 668 q 356 670 373 668 q 327 680 340 673 q 308 703 314 687 q 306 747 302 720 q 326 819 309 775 l 378 963 q 401 1015 387 988 q 433 1064 415 1042 q 473 1100 452 1086 q 519 1114 495 1114 l 589 1114 q 640 1129 618 1114 q 680 1170 663 1145 q 712 1227 698 1195 q 741 1293 727 1259 q 769 1359 755 1326 q 801 1416 783 1391 q 841 1456 819 1441 q 892 1472 863 1472 l 975 1472 q 1015 1456 1004 1472 q 1025 1415 1025 1440 q 1016 1358 1025 1390 q 996 1292 1006 1326 q 976 1226 985 1258 q 967 1168 967 1194 q 977 1128 966 1143 q 1017 1112 988 1112 l 1086 1112 q 1122 1098 1111 1112 q 1136 1062 1133 1084 q 1133 1013 1138 1040 q 1118 962 1128 987 l 1067 819 z "},",":{"ha":451,"x_min":72,"x_max":597,"o":"m 350 -205 q 335 -241 345 -220 q 314 -283 326 -263 q 286 -318 301 -304 q 254 -332 271 -332 q 231 -323 240 -332 q 215 -302 221 -314 l 99 -105 q 78 -42 83 -79 q 75 35 72 -6 q 87 119 77 76 q 111 203 96 163 l 182 396 q 213 466 194 430 q 256 531 232 501 q 310 580 281 561 q 372 599 339 599 q 421 600 397 599 q 467 601 445 601 q 535 595 505 601 q 581 567 566 589 q 595 505 597 546 q 568 395 593 465 l 350 -205 z "},"-":{"ha":1072,"x_min":307,"x_max":1428,"o":"m 1331 810 q 1300 741 1319 777 q 1256 675 1280 705 q 1202 627 1232 646 q 1141 608 1173 608 l 376 608 q 328 627 343 608 q 310 675 313 646 q 314 741 307 705 q 333 810 321 777 l 404 1004 q 435 1074 416 1038 q 479 1139 454 1109 q 532 1187 503 1168 q 594 1206 562 1206 l 1358 1206 q 1406 1187 1391 1206 q 1424 1138 1421 1168 q 1420 1073 1428 1108 q 1401 1003 1413 1037 l 1331 810 z "},".":{"ha":451,"x_min":85,"x_max":597,"o":"m 498 203 q 467 133 486 169 q 423 67 448 97 q 370 19 399 38 q 308 0 340 0 l 154 0 q 106 19 121 0 q 88 67 91 38 q 92 133 85 97 q 111 203 99 169 l 182 396 q 213 466 194 430 q 256 531 232 501 q 310 580 281 561 q 372 599 339 599 q 421 600 397 599 q 467 601 445 601 q 535 595 505 601 q 581 567 566 589 q 595 505 597 546 q 568 395 593 465 l 498 203 z "},"/":{"ha":919,"x_min":98,"x_max":1409,"o":"m 1395 1575 q 1378 1538 1388 1556 q 1358 1501 1369 1519 l 582 189 q 536 121 562 155 q 479 60 509 87 q 417 17 449 33 q 354 0 385 0 l 154 0 q 120 8 133 0 q 103 32 108 17 q 101 68 98 47 q 113 115 104 90 q 129 152 119 133 q 149 189 138 171 l 925 1502 q 972 1570 945 1536 q 1028 1631 998 1604 q 1090 1675 1059 1658 q 1154 1691 1122 1691 q 1253 1690 1204 1691 q 1353 1689 1303 1689 q 1387 1681 1374 1689 q 1404 1657 1399 1672 q 1406 1621 1409 1642 q 1395 1575 1404 1600 z "},":":{"ha":451,"x_min":85,"x_max":1002,"o":"m 498 203 q 467 133 486 169 q 423 67 448 97 q 370 19 399 38 q 308 0 340 0 l 154 0 q 106 19 121 0 q 88 67 91 38 q 92 133 85 97 q 111 203 99 169 l 182 396 q 213 466 194 430 q 256 531 232 501 q 310 580 281 561 q 372 599 339 599 q 421 600 397 599 q 467 601 445 601 q 535 595 505 601 q 581 567 566 589 q 595 505 597 546 q 568 395 593 465 l 498 203 m 904 1318 q 872 1248 892 1284 q 829 1182 853 1212 q 775 1134 804 1153 q 713 1115 746 1115 l 559 1115 q 512 1134 527 1115 q 493 1182 496 1153 q 497 1248 490 1212 q 517 1318 505 1284 l 587 1511 q 618 1580 600 1545 q 662 1646 637 1616 q 715 1694 686 1675 q 777 1713 745 1713 q 827 1714 802 1713 q 873 1715 851 1715 q 941 1709 911 1715 q 987 1682 971 1703 q 1001 1619 1002 1660 q 974 1510 999 1579 l 904 1318 z "},";":{"ha":451,"x_min":72,"x_max":1002,"o":"m 350 -205 q 335 -241 345 -220 q 314 -283 326 -263 q 286 -318 301 -304 q 254 -332 271 -332 q 231 -323 240 -332 q 215 -302 221 -314 l 99 -105 q 78 -42 83 -79 q 75 35 72 -6 q 87 119 77 76 q 111 203 96 163 l 182 396 q 213 466 194 430 q 256 531 232 501 q 310 580 281 561 q 372 599 339 599 q 421 600 397 599 q 467 601 445 601 q 535 595 505 601 q 581 567 566 589 q 595 505 597 546 q 568 395 593 465 l 350 -205 m 904 1318 q 872 1248 892 1284 q 829 1182 853 1212 q 775 1134 804 1153 q 713 1115 746 1115 l 559 1115 q 512 1134 527 1115 q 493 1182 496 1153 q 497 1248 490 1212 q 517 1318 505 1284 l 587 1511 q 618 1580 600 1545 q 662 1646 637 1616 q 715 1694 686 1675 q 777 1713 745 1713 q 827 1714 802 1713 q 873 1715 851 1715 q 941 1709 911 1715 q 987 1682 971 1703 q 1001 1619 1002 1660 q 974 1510 999 1579 l 904 1318 z "},"<":{"ha":979,"x_min":335,"x_max":1487,"o":"m 1480 1619 q 1453 1568 1470 1593 q 1416 1521 1435 1543 l 880 895 q 829 824 852 861 q 793 747 807 787 q 773 660 777 702 q 780 583 770 618 l 905 153 q 910 133 908 144 q 914 111 913 122 q 914 86 915 99 q 908 62 913 74 q 892 35 902 45 q 869 19 882 24 q 845 11 857 13 q 822 9 832 9 l 642 9 q 584 20 611 9 q 534 52 556 32 q 497 98 513 71 q 472 153 481 124 l 345 581 q 338 658 335 616 q 358 746 342 701 q 395 823 372 785 q 446 894 417 861 l 984 1522 q 1046 1585 1013 1555 q 1115 1638 1080 1615 q 1186 1675 1151 1662 q 1254 1689 1222 1689 l 1433 1689 q 1458 1685 1447 1689 q 1477 1674 1470 1682 q 1486 1652 1485 1666 q 1480 1619 1487 1639 z "},"=":{"ha":1072,"x_min":142,"x_max":1547,"o":"m 1451 1139 q 1419 1069 1438 1105 q 1375 1003 1400 1033 q 1322 955 1351 974 q 1260 936 1293 936 l 495 936 q 447 955 463 936 q 429 1003 432 974 q 433 1069 426 1033 q 452 1139 440 1105 l 523 1332 q 554 1401 535 1366 q 598 1467 574 1437 q 652 1516 623 1497 q 713 1535 681 1535 l 1478 1533 q 1526 1514 1510 1533 q 1544 1465 1541 1495 q 1540 1400 1547 1436 q 1520 1330 1533 1364 l 1451 1139 m 1167 359 q 1136 289 1155 325 q 1092 223 1116 253 q 1038 174 1067 193 q 976 155 1008 155 l 211 155 q 163 174 178 155 q 145 223 148 193 q 150 289 142 253 q 169 359 157 325 l 239 552 q 270 622 251 586 q 314 687 290 657 q 368 736 338 717 q 429 755 397 755 l 1194 753 q 1241 734 1226 753 q 1260 685 1257 715 q 1256 620 1263 656 q 1236 550 1249 584 l 1167 359 z "},">":{"ha":997,"x_min":114,"x_max":1266,"o":"m 121 79 q 148 130 130 105 q 184 176 165 155 l 720 804 q 771 874 749 837 q 808 951 793 911 q 828 1038 824 996 q 821 1116 831 1080 l 695 1545 q 687 1588 690 1563 q 692 1636 684 1612 q 709 1664 699 1653 q 732 1679 720 1674 q 756 1687 744 1685 q 779 1689 769 1689 l 959 1689 q 1018 1678 991 1689 q 1066 1647 1044 1666 q 1104 1601 1088 1627 q 1128 1545 1120 1575 l 1256 1118 q 1262 1040 1266 1082 q 1242 952 1259 998 q 1206 876 1228 913 q 1156 804 1184 838 l 616 176 q 554 113 588 143 q 486 60 521 83 q 415 23 450 37 q 347 9 379 9 l 168 9 q 142 13 154 9 q 123 24 130 16 q 115 46 116 33 q 121 79 114 59 z "},"?":{"ha":1491,"x_min":498,"x_max":2017,"o":"m 1175 155 q 1151 98 1164 126 q 1119 49 1137 71 q 1079 14 1101 27 q 1030 0 1057 0 l 555 0 q 515 13 528 0 q 500 48 503 26 q 505 98 498 70 q 522 155 511 125 q 546 211 532 183 q 578 260 560 238 q 618 295 596 282 q 667 309 640 309 l 1141 308 q 1181 295 1168 308 q 1196 260 1194 281 q 1191 211 1198 239 q 1175 155 1185 183 m 566 1450 q 603 1538 582 1495 q 651 1614 624 1581 q 713 1669 679 1648 q 791 1689 748 1689 l 1929 1689 q 1991 1669 1972 1689 q 2014 1614 2011 1648 q 2007 1538 2017 1581 q 1981 1450 1997 1495 l 1899 1223 q 1866 1145 1884 1183 q 1823 1077 1847 1107 q 1769 1029 1799 1047 q 1701 1009 1739 1010 q 1659 1009 1679 1008 q 1617 1011 1638 1011 q 1541 989 1573 1011 q 1484 930 1509 966 q 1439 846 1459 893 q 1399 750 1419 799 q 1359 654 1380 701 q 1311 570 1338 607 q 1249 511 1284 534 q 1166 489 1214 489 l 791 489 q 729 510 748 489 q 707 564 709 530 q 714 641 704 598 q 741 729 724 684 l 798 886 q 832 966 812 926 q 878 1037 852 1006 q 935 1087 903 1068 q 1005 1105 966 1106 q 1041 1105 1023 1105 q 1076 1104 1059 1104 q 1147 1123 1116 1104 q 1204 1172 1179 1141 q 1248 1242 1229 1203 q 1282 1323 1267 1282 l 1367 1554 q 1377 1588 1373 1571 q 1380 1618 1381 1605 q 1371 1640 1379 1632 q 1347 1649 1363 1649 q 1304 1630 1322 1649 q 1270 1579 1286 1611 q 1240 1508 1255 1548 q 1210 1427 1226 1468 q 1175 1345 1194 1385 q 1130 1274 1156 1305 q 1071 1223 1104 1242 q 994 1204 1038 1204 l 616 1206 q 554 1227 574 1206 q 532 1283 535 1249 q 539 1361 529 1318 q 566 1450 549 1405 z "},"@":{"ha":1444,"x_min":366,"x_max":1706,"o":"m 842 1030 q 822 1020 831 1030 q 808 996 812 1009 q 804 972 803 983 q 817 960 805 960 q 1021 956 920 959 q 1226 954 1123 954 q 1246 965 1237 954 q 1260 989 1255 977 q 1263 1014 1265 1002 q 1249 1025 1261 1025 l 842 1030 m 1242 1559 q 1267 1550 1258 1559 q 1281 1526 1276 1540 l 1431 1052 q 1435 1015 1436 1036 q 1427 972 1434 994 q 1402 926 1417 948 q 1367 888 1387 904 l 927 504 q 892 479 911 489 q 858 470 874 470 q 828 483 838 470 q 812 513 817 495 q 808 529 812 513 q 797 569 804 544 q 781 625 790 593 q 763 689 772 656 q 745 753 754 722 q 729 809 736 785 q 718 849 722 834 q 711 865 713 865 q 728 766 718 814 q 750 670 739 718 q 774 575 762 623 q 797 481 786 528 q 813 445 802 460 q 847 430 825 430 q 885 441 865 430 q 922 468 905 452 l 1397 886 q 1433 925 1417 903 q 1457 970 1449 947 q 1467 1014 1466 993 q 1462 1052 1468 1035 l 1308 1554 q 1291 1583 1302 1571 q 1261 1594 1280 1594 q 1226 1585 1244 1594 q 1191 1560 1208 1575 l 609 1045 q 573 1005 589 1027 q 548 957 557 982 q 538 914 540 935 q 541 876 537 893 l 698 190 q 713 159 702 172 q 742 146 724 146 q 777 156 759 146 q 810 180 794 166 l 1638 911 q 1653 922 1645 917 q 1668 926 1661 926 q 1687 910 1678 926 q 1699 872 1695 894 q 1705 828 1704 850 q 1701 792 1706 805 q 1672 749 1691 767 l 695 -134 q 662 -159 680 -149 q 627 -170 644 -170 q 597 -156 608 -170 q 583 -125 587 -143 l 369 870 q 367 909 366 888 q 376 952 368 930 q 402 1001 386 978 q 438 1042 418 1023 l 1283 1813 q 1318 1840 1300 1829 q 1354 1850 1337 1850 q 1383 1839 1372 1850 q 1400 1811 1395 1828 l 1643 1051 q 1648 1014 1649 1035 q 1638 970 1647 993 q 1614 925 1630 947 q 1578 886 1598 903 l 833 224 q 796 198 816 208 q 759 187 777 187 q 726 202 737 187 q 709 238 714 217 l 555 921 q 554 937 554 928 q 558 956 555 946 q 587 997 568 980 l 1184 1531 q 1213 1551 1198 1543 q 1242 1559 1229 1559 z "},"A":{"ha":1478,"x_min":82,"x_max":2012,"o":"m 911 0 q 861 19 877 0 q 845 55 846 37 q 844 78 844 73 q 852 144 844 106 q 877 230 861 183 q 913 326 893 277 q 951 422 932 375 q 984 510 969 469 q 1003 575 998 552 q 1007 610 1007 598 q 1003 637 1007 623 q 977 650 998 650 q 926 623 949 650 q 883 549 903 595 q 843 445 863 503 q 803 325 824 386 q 759 206 783 264 q 708 101 736 147 q 645 28 680 56 q 568 0 611 0 l 149 0 q 101 19 117 0 q 84 57 86 38 q 82 85 82 77 q 88 138 82 108 q 106 203 94 169 l 574 1487 q 605 1557 586 1521 q 649 1622 625 1592 q 703 1670 673 1651 q 764 1689 732 1689 l 1945 1687 q 1993 1668 1978 1687 q 2010 1630 2008 1649 q 2012 1602 2012 1611 q 2006 1549 2012 1579 q 1988 1485 2000 1518 l 1520 200 q 1489 131 1508 167 q 1445 65 1470 95 q 1391 16 1420 35 q 1330 -3 1362 -3 l 911 0 m 1003 722 q 1032 731 1019 722 q 1057 754 1046 741 q 1078 785 1069 768 q 1093 818 1086 802 l 1360 1553 q 1369 1584 1366 1569 q 1372 1609 1372 1598 q 1371 1622 1372 1613 q 1363 1640 1370 1631 q 1340 1649 1356 1649 q 1311 1640 1325 1649 q 1285 1617 1297 1631 q 1264 1586 1274 1603 q 1249 1553 1255 1569 l 982 818 q 974 788 976 802 q 971 765 971 774 q 972 750 971 760 q 981 731 973 741 q 1003 722 988 722 z "},"B":{"ha":1496,"x_min":91,"x_max":1956,"o":"m 574 1469 q 608 1545 587 1506 q 656 1616 629 1584 q 714 1669 683 1648 q 781 1689 746 1689 l 1881 1689 q 1933 1669 1917 1689 q 1953 1616 1950 1648 q 1948 1545 1956 1584 q 1927 1469 1941 1506 l 1795 1104 q 1775 1059 1787 1081 q 1749 1019 1764 1038 q 1716 984 1734 1000 q 1677 958 1698 968 q 1661 950 1671 955 q 1648 936 1651 945 q 1651 922 1645 929 q 1664 908 1656 915 q 1681 897 1672 902 q 1692 889 1689 892 q 1718 854 1710 876 q 1726 804 1726 831 q 1720 746 1727 777 q 1704 687 1714 715 l 1533 220 q 1499 145 1520 184 q 1452 74 1478 106 q 1393 21 1425 41 q 1326 0 1362 0 l 166 0 q 114 21 131 0 q 94 74 98 41 q 99 145 91 106 q 119 220 106 184 l 574 1469 m 765 50 q 794 59 781 50 q 819 82 808 68 q 840 113 831 96 q 854 146 849 130 l 1107 841 q 1117 874 1114 857 q 1119 906 1120 892 q 1111 930 1118 920 q 1088 939 1104 939 q 1060 930 1074 939 q 1034 907 1046 921 q 1013 876 1022 893 q 998 844 1004 859 l 744 145 q 735 112 738 129 q 733 81 732 95 q 743 58 735 67 q 765 50 750 50 m 1107 990 q 1136 999 1122 990 q 1161 1022 1149 1008 q 1182 1053 1173 1036 q 1196 1085 1191 1069 l 1367 1552 q 1376 1585 1373 1568 q 1378 1616 1379 1602 q 1370 1639 1377 1630 q 1347 1649 1362 1649 q 1318 1640 1332 1649 q 1292 1617 1303 1631 q 1271 1586 1280 1603 q 1256 1553 1262 1569 l 1086 1087 q 1077 1054 1080 1071 q 1076 1022 1074 1036 q 1084 999 1077 1008 q 1107 990 1092 990 z "},"C":{"ha":1480,"x_min":87,"x_max":2015,"o":"m 1622 795 q 1670 777 1655 795 q 1687 738 1685 758 q 1689 709 1689 719 q 1683 657 1689 687 q 1665 593 1677 627 l 1523 203 q 1492 133 1511 169 q 1448 67 1472 97 q 1394 19 1423 38 q 1333 0 1365 0 l 154 0 q 106 19 121 0 q 89 57 91 38 q 87 85 87 77 q 93 138 87 108 q 111 203 99 169 l 578 1487 q 610 1557 591 1521 q 654 1622 629 1592 q 707 1670 678 1651 q 769 1689 736 1689 l 1948 1689 q 1996 1670 1980 1689 q 2013 1632 2011 1651 q 2015 1604 2015 1613 q 2009 1551 2015 1581 q 1990 1487 2003 1521 l 1856 1118 q 1825 1048 1844 1084 q 1781 982 1805 1012 q 1727 934 1756 953 q 1666 915 1698 915 l 1249 915 q 1201 934 1217 915 q 1184 972 1186 953 q 1182 1000 1182 991 q 1188 1053 1182 1023 q 1206 1118 1194 1084 l 1364 1552 q 1374 1583 1371 1568 q 1377 1608 1377 1597 q 1376 1621 1377 1612 q 1368 1639 1375 1630 q 1345 1649 1360 1649 q 1316 1639 1330 1649 q 1290 1616 1301 1630 q 1269 1585 1278 1602 q 1254 1552 1260 1568 l 742 146 q 734 116 736 130 q 731 91 731 102 q 732 77 731 86 q 741 59 733 68 q 763 50 748 50 q 792 58 779 50 q 817 81 806 67 q 838 112 829 95 q 852 145 846 129 l 1015 593 q 1047 662 1027 627 q 1090 728 1066 698 q 1144 777 1115 758 q 1206 795 1173 795 l 1622 795 z "},"D":{"ha":1463,"x_min":85,"x_max":1811,"o":"m 578 1487 q 610 1557 591 1521 q 654 1622 629 1592 q 707 1670 678 1651 q 769 1689 736 1689 l 1512 1689 q 1566 1679 1541 1689 q 1612 1652 1592 1669 q 1648 1611 1633 1634 q 1672 1562 1664 1588 l 1796 1196 q 1809 1124 1807 1164 q 1807 1041 1811 1084 q 1791 952 1802 997 q 1765 865 1781 907 l 1525 203 q 1493 133 1512 169 q 1449 67 1474 97 q 1396 19 1425 38 q 1334 0 1367 0 l 154 0 q 106 19 121 0 q 88 67 91 38 q 92 133 85 97 q 111 203 99 169 l 578 1487 m 763 50 q 792 59 779 50 q 817 82 806 68 q 838 113 829 96 q 852 146 847 130 l 1364 1552 q 1374 1585 1371 1568 q 1376 1616 1377 1602 q 1368 1639 1375 1630 q 1345 1649 1360 1649 q 1316 1639 1330 1649 q 1290 1616 1301 1630 q 1269 1585 1278 1602 q 1254 1552 1260 1568 l 742 146 q 733 113 736 130 q 732 82 730 96 q 741 59 733 68 q 763 50 748 50 z "},"E":{"ha":1480,"x_min":87,"x_max":2018,"o":"m 1541 562 q 1589 543 1574 562 q 1607 505 1605 524 q 1609 477 1609 486 q 1603 424 1609 454 q 1584 359 1596 393 q 1562 296 1575 333 q 1533 219 1550 259 q 1497 140 1517 179 q 1453 70 1478 101 q 1400 19 1429 39 q 1336 0 1371 0 l 154 0 q 106 19 121 0 q 89 57 91 38 q 87 85 87 77 q 93 138 87 108 q 111 203 99 169 l 578 1487 q 610 1557 591 1521 q 654 1622 629 1592 q 707 1670 678 1651 q 769 1689 736 1689 l 1951 1689 q 1999 1670 1984 1689 q 2016 1632 2014 1651 q 2018 1604 2018 1613 q 2012 1551 2018 1581 q 1994 1487 2006 1521 q 1972 1429 1984 1461 q 1946 1363 1961 1397 q 1913 1298 1931 1330 q 1873 1242 1895 1267 q 1825 1202 1851 1217 q 1768 1187 1799 1187 l 1348 1187 q 1300 1206 1316 1187 q 1283 1245 1285 1225 q 1281 1274 1281 1264 q 1287 1326 1281 1296 q 1305 1390 1293 1357 l 1364 1552 q 1374 1583 1371 1568 q 1377 1608 1377 1597 q 1376 1621 1377 1612 q 1368 1639 1375 1630 q 1345 1649 1360 1649 q 1316 1639 1330 1649 q 1290 1616 1301 1630 q 1269 1585 1278 1602 q 1254 1552 1260 1568 l 1080 1076 q 1066 1026 1071 1050 q 1062 986 1062 1003 q 1064 963 1062 979 q 1077 933 1065 948 q 1114 918 1089 918 q 1126 913 1122 918 q 1131 903 1131 908 q 1131 896 1131 898 q 1130 882 1131 890 q 1125 865 1128 873 q 1119 849 1122 858 q 1111 832 1116 840 q 1101 819 1107 825 q 1086 814 1095 814 q 1042 811 1062 814 q 1005 798 1022 808 q 975 766 989 787 q 947 708 960 745 l 742 145 q 733 115 736 129 q 731 92 731 101 q 732 77 731 86 q 741 58 733 67 q 763 50 748 50 q 792 58 779 50 q 817 81 806 67 q 838 112 829 95 q 852 145 846 129 l 931 359 q 963 429 943 393 q 1006 495 982 465 q 1060 543 1031 524 q 1122 562 1089 562 l 1541 562 z "},"F":{"ha":1480,"x_min":-96,"x_max":2019,"o":"m 1125 865 q 1119 849 1122 858 q 1111 832 1116 840 q 1101 819 1107 825 q 1086 814 1095 814 q 1042 811 1062 814 q 1006 798 1023 808 q 975 767 989 787 q 947 709 961 746 l 372 -872 q 356 -911 366 -888 q 333 -955 346 -934 q 303 -990 319 -975 q 269 -1004 288 -1004 q 246 -997 256 -1004 q 229 -979 237 -989 l -66 -567 q -90 -508 -83 -543 q -95 -433 -96 -473 q -84 -350 -93 -393 q -60 -269 -75 -308 l 578 1487 q 610 1557 591 1521 q 654 1622 629 1592 q 707 1670 678 1651 q 769 1689 736 1689 l 1950 1689 q 1998 1670 1982 1689 q 2016 1622 2013 1651 q 2012 1557 2019 1592 q 1992 1487 2005 1521 q 1971 1429 1983 1461 q 1944 1363 1959 1397 q 1911 1298 1929 1330 q 1871 1242 1893 1267 q 1824 1202 1849 1217 q 1767 1187 1798 1187 l 1348 1187 q 1300 1206 1316 1187 q 1282 1255 1285 1225 q 1286 1321 1279 1285 q 1305 1390 1293 1357 l 1364 1552 q 1373 1585 1370 1568 q 1375 1616 1377 1602 q 1367 1639 1374 1630 q 1345 1649 1360 1649 q 1316 1639 1330 1649 q 1290 1616 1301 1630 q 1269 1585 1278 1602 q 1254 1552 1260 1568 l 1080 1076 q 1066 1022 1071 1050 q 1063 971 1061 994 q 1077 933 1065 948 q 1114 918 1089 918 q 1126 913 1122 918 q 1131 900 1131 908 q 1130 883 1132 892 q 1125 865 1128 873 z "},"G":{"ha":1480,"x_min":87,"x_max":2017,"o":"m 1051 828 q 1063 861 1057 842 q 1079 897 1069 880 q 1101 927 1088 915 q 1130 939 1114 939 l 1676 939 q 1724 920 1709 939 q 1742 882 1740 901 q 1744 854 1744 863 q 1737 801 1744 831 q 1719 736 1731 770 l 1133 -874 q 1118 -910 1128 -888 q 1096 -953 1109 -932 q 1068 -988 1084 -974 q 1036 -1003 1053 -1003 q 1013 -994 1022 -1003 q 997 -973 1004 -984 l 707 -495 q 687 -440 689 -466 q 684 -400 684 -414 q 689 -341 684 -375 q 707 -263 694 -307 q 735 -176 720 -219 q 751 -120 746 -147 q 756 -75 756 -94 q 754 -50 756 -66 q 740 -17 753 -33 q 698 0 726 0 l 154 0 q 106 19 121 0 q 89 57 91 38 q 87 85 87 77 q 93 138 87 108 q 111 203 99 169 l 578 1487 q 610 1557 591 1521 q 654 1622 629 1592 q 707 1670 678 1651 q 769 1689 736 1689 l 1950 1689 q 1998 1670 1982 1689 q 2015 1632 2013 1651 q 2017 1604 2017 1613 q 2011 1551 2017 1581 q 1992 1487 2005 1521 l 1910 1261 q 1879 1191 1898 1227 q 1835 1125 1860 1155 q 1782 1077 1811 1096 q 1720 1058 1752 1058 l 1301 1058 q 1253 1075 1268 1058 q 1235 1109 1237 1091 q 1234 1135 1234 1126 q 1240 1190 1234 1157 q 1261 1266 1247 1223 q 1292 1353 1275 1308 q 1326 1441 1310 1398 q 1355 1521 1343 1483 q 1371 1579 1368 1559 q 1375 1611 1375 1600 q 1370 1636 1375 1623 q 1345 1649 1366 1649 q 1316 1639 1330 1649 q 1290 1616 1301 1630 q 1269 1585 1278 1602 q 1254 1552 1260 1568 l 742 146 q 734 116 736 130 q 731 91 731 102 q 732 77 731 86 q 741 59 733 68 q 763 50 748 50 q 792 59 779 50 q 817 82 806 68 q 838 113 829 96 q 852 146 847 130 l 1070 743 q 1078 771 1078 764 q 1078 780 1078 778 q 1075 795 1078 789 q 1067 803 1072 800 q 1057 807 1061 805 q 1050 813 1052 810 q 1049 818 1049 816 q 1051 828 1049 822 z "},"H":{"ha":1474,"x_min":82,"x_max":2013,"o":"m 1084 946 q 1114 955 1100 946 q 1139 979 1127 964 q 1160 1010 1151 993 q 1175 1043 1168 1027 l 1336 1487 q 1368 1557 1348 1521 q 1411 1622 1387 1592 q 1465 1670 1436 1651 q 1527 1689 1494 1689 l 1946 1689 q 1993 1670 1978 1689 q 2011 1632 2009 1651 q 2013 1604 2013 1613 q 2007 1551 2013 1581 q 1988 1487 2001 1521 l 1521 203 q 1490 133 1509 169 q 1446 67 1470 97 q 1392 19 1421 38 q 1331 0 1363 0 l 911 0 q 864 19 879 0 q 846 57 848 38 q 844 85 844 77 q 850 138 844 108 q 869 203 857 169 l 1078 777 q 1087 808 1084 793 q 1090 833 1090 823 q 1089 847 1090 838 q 1081 865 1088 856 q 1058 874 1074 874 q 1029 865 1043 874 q 1003 842 1015 856 q 982 810 991 827 q 967 777 973 793 l 758 203 q 727 133 746 169 q 683 67 707 97 q 629 19 659 38 q 568 0 600 0 l 149 0 q 101 19 117 0 q 84 57 86 38 q 82 85 82 77 q 88 138 82 108 q 106 203 94 169 l 574 1487 q 605 1557 586 1521 q 649 1622 625 1592 q 703 1670 673 1651 q 764 1689 732 1689 l 1182 1689 q 1230 1670 1215 1689 q 1247 1631 1245 1651 q 1249 1603 1249 1612 q 1243 1550 1249 1581 q 1225 1486 1237 1520 l 1064 1043 q 1055 1013 1058 1027 q 1053 987 1053 998 q 1054 974 1053 983 q 1062 955 1055 964 q 1084 946 1069 946 z "},"I":{"ha":718,"x_min":87,"x_max":1255,"o":"m 764 203 q 732 133 751 169 q 688 67 713 97 q 635 19 664 38 q 573 0 606 0 l 154 0 q 106 19 121 0 q 89 57 91 38 q 87 85 87 77 q 93 138 87 108 q 111 203 99 169 l 579 1489 q 611 1558 591 1522 q 654 1624 630 1594 q 708 1672 679 1653 q 770 1691 737 1691 l 1188 1689 q 1236 1670 1221 1689 q 1253 1632 1251 1651 q 1255 1604 1255 1613 q 1249 1551 1255 1581 q 1231 1487 1243 1521 l 764 203 z "},"J":{"ha":732,"x_min":-113,"x_max":1257,"o":"m 357 -879 q 341 -918 351 -895 q 318 -962 332 -941 q 288 -998 304 -983 q 254 -1013 272 -1013 q 231 -1005 240 -1013 q 214 -987 221 -997 l -82 -575 q -106 -516 -100 -551 q -111 -442 -113 -481 q -99 -360 -109 -402 q -75 -278 -90 -318 l 577 1487 q 609 1557 589 1521 q 653 1622 629 1592 q 707 1670 678 1651 q 769 1689 736 1689 l 1188 1689 q 1236 1670 1221 1689 q 1254 1622 1251 1651 q 1250 1557 1257 1592 q 1230 1487 1242 1521 l 357 -879 z "},"K":{"ha":1502,"x_min":90,"x_max":1963,"o":"m 1091 946 q 1121 955 1107 946 q 1146 979 1135 964 q 1167 1010 1158 993 q 1182 1043 1176 1027 l 1343 1487 q 1375 1557 1356 1521 q 1419 1622 1394 1592 q 1472 1670 1443 1651 q 1534 1689 1501 1689 l 1896 1689 q 1944 1670 1929 1689 q 1961 1632 1959 1651 q 1963 1604 1963 1613 q 1957 1551 1963 1581 q 1939 1487 1951 1521 q 1910 1406 1925 1450 q 1875 1315 1894 1361 q 1833 1225 1856 1270 q 1781 1143 1810 1181 q 1716 1076 1752 1105 q 1638 1034 1681 1047 q 1618 1028 1632 1031 q 1586 1019 1604 1024 q 1548 1006 1567 1013 q 1511 991 1528 1000 q 1481 973 1493 983 q 1464 952 1468 963 q 1463 945 1463 948 q 1470 925 1463 936 q 1494 903 1478 915 q 1530 880 1510 891 q 1570 861 1551 869 q 1605 846 1590 852 q 1625 837 1620 840 q 1669 789 1655 822 q 1683 733 1683 757 q 1684 705 1684 710 q 1675 625 1684 669 q 1651 538 1666 582 l 1159 -812 q 1142 -853 1153 -830 q 1117 -898 1131 -877 q 1086 -935 1103 -920 q 1050 -949 1069 -949 q 1028 -943 1038 -949 q 1012 -928 1019 -937 l 702 -565 q 676 -511 683 -543 q 669 -446 669 -479 q 669 -419 669 -441 q 679 -356 670 -397 q 702 -275 688 -314 l 1085 777 q 1094 808 1091 793 q 1097 833 1097 823 q 1096 847 1097 838 q 1087 865 1095 856 q 1065 874 1080 874 q 1036 865 1050 874 q 1010 842 1022 856 q 989 810 998 827 q 975 777 981 793 l 766 203 q 734 133 753 169 q 690 67 715 97 q 637 19 666 38 q 575 0 608 0 l 157 0 q 109 19 124 0 q 92 57 94 38 q 90 85 90 77 q 96 138 90 108 q 114 203 102 169 l 968 2549 q 984 2588 974 2565 q 1007 2631 994 2610 q 1036 2667 1020 2652 q 1069 2681 1052 2681 q 1092 2673 1083 2681 q 1109 2656 1101 2665 l 1404 2240 q 1428 2184 1422 2216 q 1434 2123 1434 2153 q 1433 2090 1434 2115 q 1422 2024 1432 2066 q 1398 1942 1413 1982 l 1071 1042 q 1062 1012 1065 1026 q 1059 987 1059 998 q 1060 974 1059 983 q 1069 955 1061 964 q 1091 946 1076 946 z "},"L":{"ha":1479,"x_min":87,"x_max":1728,"o":"m 1067 2679 q 1090 2672 1081 2679 q 1107 2655 1100 2665 l 1390 2261 q 1418 2195 1411 2232 q 1425 2121 1425 2158 q 1423 2083 1425 2112 q 1411 2005 1422 2055 q 1383 1908 1400 1954 l 742 145 q 733 115 736 129 q 731 92 731 101 q 732 77 731 86 q 741 58 733 67 q 763 50 748 50 q 792 59 779 50 q 817 82 806 68 q 838 113 829 96 q 852 146 847 130 l 1077 762 q 1101 815 1086 788 q 1133 864 1115 842 q 1173 899 1152 886 q 1217 913 1194 913 q 1219 913 1218 913 l 1662 909 q 1709 890 1693 909 q 1726 851 1724 871 q 1728 823 1728 832 q 1722 770 1728 801 q 1704 706 1716 740 l 1523 209 q 1492 139 1511 175 q 1448 74 1472 103 q 1394 25 1423 44 q 1333 6 1365 6 l 154 0 q 106 19 122 0 q 89 57 91 38 q 87 85 87 77 q 93 138 87 108 q 111 203 99 169 l 964 2547 q 980 2586 970 2563 q 1003 2630 990 2609 q 1033 2665 1017 2650 q 1067 2679 1049 2679 z "},"M":{"ha":2258,"x_min":94,"x_max":2770,"o":"m 2125 1553 q 2135 1586 2131 1569 q 2137 1617 2138 1603 q 2128 1640 2136 1631 q 2106 1649 2121 1649 q 2077 1640 2091 1649 q 2051 1617 2063 1631 q 2030 1586 2039 1603 q 2016 1553 2022 1569 l 1538 241 q 1501 158 1524 201 q 1449 80 1478 115 q 1385 23 1419 45 q 1312 0 1350 0 l 935 0 q 878 23 897 0 q 857 80 860 45 q 861 158 853 115 q 884 241 869 201 l 1364 1554 q 1373 1586 1369 1569 q 1375 1617 1376 1603 q 1366 1640 1373 1631 q 1344 1649 1359 1649 q 1315 1640 1329 1649 q 1290 1617 1301 1631 q 1269 1586 1278 1603 q 1255 1554 1260 1569 l 777 241 q 739 158 762 201 q 687 80 716 115 q 623 23 658 45 q 551 0 589 0 l 176 0 q 119 23 138 0 q 98 80 101 45 q 102 158 94 115 q 125 241 111 201 l 565 1450 q 602 1532 579 1490 q 654 1610 625 1575 q 718 1667 684 1645 q 791 1689 753 1689 l 2688 1689 q 2745 1667 2726 1689 q 2766 1610 2763 1645 q 2762 1532 2770 1575 q 2739 1450 2753 1490 l 1908 -834 q 1888 -882 1900 -854 q 1860 -935 1876 -910 q 1824 -978 1843 -960 q 1782 -996 1804 -996 q 1754 -988 1766 -996 q 1735 -969 1743 -980 l 1456 -621 q 1426 -554 1434 -594 q 1418 -467 1417 -514 q 1431 -371 1420 -420 q 1458 -275 1441 -321 l 2125 1553 z "},"N":{"ha":1491,"x_min":94,"x_max":2011,"o":"m 1146 -836 q 1126 -884 1139 -857 q 1098 -937 1114 -911 q 1062 -979 1082 -962 q 1020 -996 1042 -996 q 993 -988 1004 -996 q 974 -970 982 -980 l 694 -623 q 663 -555 672 -595 q 656 -468 654 -515 q 668 -372 658 -421 q 696 -275 679 -322 l 1364 1554 q 1373 1586 1369 1569 q 1375 1617 1376 1603 q 1366 1640 1373 1631 q 1344 1649 1359 1649 q 1315 1640 1329 1649 q 1290 1617 1301 1631 q 1269 1586 1278 1603 q 1255 1554 1260 1569 l 777 241 q 739 158 762 201 q 687 80 716 115 q 623 23 658 45 q 551 0 589 0 l 176 0 q 119 23 138 0 q 98 80 101 45 q 102 158 94 115 q 125 241 111 201 l 565 1450 q 602 1532 579 1490 q 654 1610 625 1575 q 718 1667 684 1645 q 791 1689 753 1689 l 1929 1689 q 1986 1667 1967 1689 q 2007 1610 2004 1645 q 2003 1532 2011 1575 q 1980 1450 1994 1490 l 1146 -836 z "},"O":{"ha":1492,"x_min":87,"x_max":2017,"o":"m 578 1487 q 610 1557 591 1521 q 654 1622 629 1592 q 707 1670 678 1651 q 769 1689 736 1689 l 1950 1689 q 1998 1670 1982 1689 q 2015 1632 2013 1651 q 2017 1604 2017 1613 q 2011 1551 2017 1581 q 1992 1487 2005 1521 l 1525 203 q 1494 133 1513 169 q 1450 67 1474 97 q 1396 19 1426 38 q 1335 0 1367 0 l 154 0 q 106 19 121 0 q 89 57 91 38 q 87 85 87 77 q 93 138 87 108 q 111 203 99 169 l 578 1487 m 763 50 q 792 59 779 50 q 817 82 806 68 q 838 113 829 96 q 852 146 847 130 l 1364 1552 q 1374 1583 1371 1568 q 1377 1608 1377 1597 q 1376 1621 1377 1612 q 1368 1639 1375 1630 q 1345 1649 1360 1649 q 1316 1639 1330 1649 q 1290 1616 1301 1630 q 1269 1585 1278 1602 q 1254 1552 1260 1568 l 742 146 q 734 116 736 130 q 731 91 731 102 q 732 77 731 86 q 741 59 733 68 q 763 50 748 50 z "},"P":{"ha":1499,"x_min":-99,"x_max":2019,"o":"m 578 1487 q 610 1557 591 1521 q 654 1622 629 1592 q 707 1670 678 1651 q 769 1689 736 1689 l 1950 1689 q 1998 1670 1982 1689 q 2016 1622 2013 1651 q 2012 1557 2019 1592 q 1992 1487 2005 1521 l 1525 203 q 1494 133 1513 169 q 1450 67 1474 97 q 1396 19 1426 38 q 1335 0 1367 0 l 827 0 q 754 -23 789 0 q 690 -80 720 -45 q 638 -158 661 -115 q 601 -241 615 -201 l 383 -840 q 365 -885 376 -859 q 337 -937 353 -912 q 302 -979 321 -962 q 262 -996 283 -996 q 235 -987 246 -996 q 215 -966 223 -978 l -68 -572 q -92 -512 -85 -547 q -97 -437 -99 -477 q -86 -355 -95 -397 q -62 -273 -77 -313 l 578 1487 m 763 50 q 792 59 779 50 q 817 82 806 68 q 838 113 829 96 q 852 146 847 130 l 1364 1552 q 1374 1585 1371 1568 q 1376 1616 1377 1602 q 1368 1639 1375 1630 q 1345 1649 1360 1649 q 1316 1639 1330 1649 q 1290 1616 1301 1630 q 1269 1585 1278 1602 q 1254 1552 1260 1568 l 742 146 q 733 113 736 130 q 732 82 730 96 q 741 59 733 68 q 763 50 748 50 z "},"Q":{"ha":1485,"x_min":85,"x_max":2019,"o":"m 1133 -873 q 1119 -910 1128 -888 q 1097 -952 1109 -932 q 1069 -987 1084 -972 q 1037 -1001 1054 -1001 q 1013 -992 1023 -1001 q 997 -972 1003 -983 l 715 -507 q 693 -445 699 -481 q 690 -369 688 -410 q 702 -286 692 -328 q 726 -203 711 -243 q 745 -133 738 -169 q 749 -67 752 -97 q 731 -19 747 -38 q 684 0 716 0 l 154 0 q 106 19 121 0 q 88 67 91 38 q 92 133 85 97 q 111 203 99 169 l 578 1487 q 610 1557 591 1521 q 654 1622 629 1592 q 707 1670 678 1651 q 769 1689 736 1689 l 1950 1689 q 1998 1670 1982 1689 q 2016 1622 2013 1651 q 2012 1557 2019 1592 q 1992 1487 2005 1521 l 1133 -873 m 762 50 q 792 59 778 50 q 817 82 806 68 q 838 113 829 96 q 852 146 847 130 l 1364 1552 q 1374 1585 1371 1568 q 1375 1616 1377 1602 q 1367 1639 1374 1630 q 1344 1649 1360 1649 q 1315 1639 1329 1649 q 1290 1616 1301 1630 q 1269 1585 1278 1602 q 1254 1552 1259 1568 l 742 146 q 733 113 736 130 q 731 82 730 96 q 740 59 733 68 q 762 50 747 50 z "},"R":{"ha":1482,"x_min":79,"x_max":1957,"o":"m 911 -6 q 863 13 878 -6 q 845 61 848 32 q 849 127 842 91 q 868 197 856 163 l 1071 755 q 1080 787 1077 770 q 1082 819 1084 804 q 1074 842 1081 833 q 1051 851 1067 851 q 1022 842 1036 851 q 996 819 1008 833 q 976 787 985 804 q 960 755 966 770 l 758 197 q 726 127 745 163 q 682 62 707 92 q 629 13 658 32 q 567 -6 600 -6 l 149 -6 q 101 13 116 -6 q 82 62 85 32 q 86 127 79 92 q 106 197 94 163 l 573 1481 q 605 1551 585 1515 q 648 1616 624 1586 q 702 1665 673 1646 q 764 1684 731 1684 l 1888 1682 q 1936 1663 1921 1682 q 1954 1614 1951 1644 q 1949 1548 1957 1584 q 1930 1478 1942 1512 l 1811 1149 q 1779 1079 1798 1114 q 1736 1014 1760 1044 q 1684 962 1712 984 q 1622 932 1655 941 q 1609 929 1617 931 q 1590 923 1600 926 q 1572 914 1580 920 q 1561 901 1564 909 q 1565 885 1558 892 q 1584 870 1573 877 q 1607 860 1595 864 q 1624 853 1619 855 q 1670 808 1655 840 q 1686 737 1684 777 q 1678 651 1687 696 q 1653 562 1669 605 l 1519 194 q 1488 125 1507 161 q 1443 59 1468 89 q 1390 10 1419 29 q 1329 -9 1360 -9 l 911 -6 m 1077 922 q 1106 931 1093 922 q 1131 955 1120 941 q 1152 985 1143 968 q 1166 1018 1161 1002 l 1359 1547 q 1369 1580 1365 1563 q 1371 1611 1372 1597 q 1362 1634 1369 1625 q 1339 1643 1355 1643 q 1310 1634 1324 1643 q 1284 1611 1296 1625 q 1264 1580 1273 1597 q 1249 1547 1255 1563 l 1056 1018 q 1047 985 1050 1002 q 1046 955 1044 968 q 1055 931 1047 941 q 1077 922 1062 922 z "},"S":{"ha":1485,"x_min":94,"x_max":2009,"o":"m 804 696 q 860 673 842 696 q 882 616 878 651 q 878 539 886 581 q 855 456 869 496 l 742 145 q 733 112 736 129 q 731 81 730 95 q 741 58 733 67 q 763 50 748 50 q 792 59 779 50 q 817 82 806 68 q 838 113 829 96 q 852 146 847 130 l 1006 567 q 1029 650 1021 607 q 1033 727 1037 692 q 1011 785 1029 762 q 955 807 993 807 l 471 807 q 415 830 433 807 q 393 887 397 852 q 397 965 389 922 q 420 1048 406 1008 l 566 1450 q 603 1532 580 1490 q 654 1609 625 1574 q 718 1667 684 1645 q 791 1689 753 1689 l 1928 1689 q 1984 1667 1966 1689 q 2006 1610 2003 1645 q 2001 1532 2009 1575 q 1979 1450 1993 1490 q 1953 1377 1967 1419 q 1921 1293 1939 1336 q 1880 1207 1902 1249 q 1831 1132 1858 1165 q 1770 1078 1803 1099 q 1698 1058 1737 1058 l 1323 1058 q 1267 1081 1285 1058 q 1245 1138 1249 1103 q 1250 1216 1242 1173 q 1272 1299 1258 1259 l 1364 1553 q 1374 1586 1371 1569 q 1376 1617 1377 1603 q 1368 1640 1375 1631 q 1345 1649 1360 1649 q 1316 1640 1330 1649 q 1290 1617 1301 1631 q 1269 1586 1278 1603 q 1254 1553 1260 1569 l 1118 1179 q 1095 1097 1103 1139 q 1091 1019 1087 1054 q 1113 962 1095 984 q 1169 939 1131 939 l 1655 939 q 1697 929 1681 939 q 1722 901 1713 918 q 1733 859 1731 883 q 1732 809 1735 836 q 1722 754 1729 782 q 1706 699 1715 726 l 1539 241 q 1501 158 1525 201 q 1449 80 1478 115 q 1385 23 1420 45 q 1313 0 1351 0 l 176 0 q 119 23 138 0 q 98 80 101 45 q 102 158 94 115 q 125 241 111 201 l 203 456 q 240 539 218 496 q 292 616 263 581 q 356 673 321 651 q 429 696 391 696 l 804 696 z "},"T":{"ha":1034,"x_min":-129,"x_max":1868,"o":"m 909 2381 q 919 2402 913 2391 q 932 2422 924 2413 q 949 2436 940 2431 q 967 2442 958 2442 l 1851 2441 q 1863 2436 1859 2441 q 1867 2423 1866 2431 q 1867 2406 1868 2416 q 1862 2389 1865 2397 q 1850 2364 1857 2377 q 1836 2342 1844 2352 q 1817 2325 1828 2332 q 1796 2319 1807 2319 l 1767 2320 q 1731 2310 1748 2321 q 1699 2281 1714 2298 q 1673 2242 1685 2263 q 1654 2200 1662 2220 l 770 -230 q 727 -327 753 -276 q 669 -425 701 -377 q 598 -513 636 -472 q 519 -583 560 -555 l -26 -962 q -61 -982 -43 -973 q -95 -991 -79 -991 q -123 -974 -117 -991 q -127 -931 -129 -956 q -117 -880 -125 -907 q -102 -834 -109 -853 l 1008 2215 q 1022 2273 1021 2252 q 1016 2304 1023 2294 q 996 2318 1008 2315 q 968 2321 983 2321 q 938 2320 953 2321 q 914 2325 924 2320 q 902 2342 905 2330 q 909 2381 900 2355 z "},"U":{"ha":1497,"x_min":97,"x_max":2008,"o":"m 567 1450 q 604 1532 581 1490 q 656 1610 627 1575 q 720 1667 686 1645 q 793 1689 755 1689 l 1171 1689 q 1227 1667 1208 1689 q 1247 1622 1245 1645 q 1249 1588 1249 1599 q 1242 1526 1249 1563 q 1221 1450 1236 1490 l 741 136 q 733 106 736 120 q 730 81 730 92 q 731 68 730 77 q 739 50 732 59 q 761 41 746 41 q 789 50 776 41 q 815 73 803 59 q 836 103 827 87 q 850 136 844 120 l 1329 1450 q 1366 1532 1343 1490 q 1418 1610 1389 1575 q 1482 1667 1447 1645 q 1554 1689 1516 1689 l 1929 1689 q 1986 1667 1967 1689 q 2006 1622 2004 1645 q 2008 1588 2008 1599 q 2001 1526 2008 1563 q 1980 1450 1994 1490 l 1540 241 q 1503 158 1526 201 q 1451 80 1480 115 q 1387 23 1421 45 q 1314 0 1352 0 l 176 0 q 119 23 138 0 q 99 68 101 45 q 97 102 97 91 q 104 164 97 128 q 125 241 111 201 l 567 1450 z "},"V":{"ha":1485,"x_min":293,"x_max":2016,"o":"m 758 41 q 787 50 773 41 q 813 73 801 59 q 834 104 825 87 q 848 136 843 121 l 1326 1450 q 1364 1532 1341 1490 q 1416 1610 1387 1575 q 1480 1667 1445 1645 q 1552 1689 1514 1689 l 1949 1689 q 1997 1670 1982 1689 q 2014 1632 2012 1651 q 2016 1604 2016 1613 q 2010 1551 2016 1581 q 1992 1487 2004 1521 l 1525 203 q 1493 133 1512 169 q 1449 67 1474 97 q 1396 19 1425 38 q 1334 0 1367 0 l 591 0 q 537 10 562 0 q 491 38 511 20 q 455 79 470 56 q 431 129 439 102 l 307 494 q 295 552 296 526 q 293 593 293 579 q 297 657 293 621 q 312 738 301 693 q 338 825 323 783 l 578 1487 q 610 1557 591 1521 q 654 1622 629 1592 q 707 1670 678 1651 q 769 1689 736 1689 l 1165 1689 q 1221 1667 1203 1689 q 1242 1622 1240 1645 q 1244 1588 1244 1599 q 1237 1526 1244 1563 q 1216 1450 1230 1490 l 738 136 q 730 107 732 121 q 727 83 727 93 q 728 69 727 78 q 736 51 729 60 q 758 41 743 41 z "},"W":{"ha":2256,"x_min":298,"x_max":2771,"o":"m 565 1450 q 602 1532 579 1490 q 654 1610 625 1575 q 718 1667 684 1645 q 791 1689 753 1689 l 1165 1689 q 1221 1667 1203 1689 q 1243 1610 1240 1645 q 1238 1532 1246 1575 q 1216 1450 1230 1490 l 738 136 q 729 104 732 121 q 727 74 726 87 q 736 51 729 60 q 758 41 743 41 q 787 51 773 41 q 812 74 800 60 q 832 104 823 87 q 847 136 842 121 l 1326 1450 q 1364 1532 1341 1490 q 1416 1610 1387 1575 q 1480 1667 1445 1645 q 1552 1689 1514 1689 l 1931 1689 q 1987 1667 1969 1689 q 2009 1610 2005 1645 q 2004 1532 2012 1575 q 1982 1450 1996 1490 l 1501 136 q 1492 103 1495 120 q 1491 73 1489 87 q 1500 50 1493 59 q 1522 41 1507 41 q 1550 50 1537 41 q 1575 73 1564 59 q 1596 103 1587 87 q 1611 136 1605 120 l 2089 1450 q 2126 1532 2103 1490 q 2178 1610 2149 1575 q 2242 1667 2207 1645 q 2315 1689 2277 1689 l 2690 1689 q 2746 1667 2728 1689 q 2768 1610 2764 1645 q 2763 1532 2771 1575 q 2740 1450 2755 1490 l 2300 241 q 2263 158 2286 201 q 2211 80 2240 115 q 2147 23 2182 45 q 2075 0 2112 0 l 612 0 q 549 12 578 0 q 494 44 519 24 q 451 93 469 65 q 422 152 433 121 l 316 471 q 300 556 303 509 q 303 654 298 603 q 320 759 308 706 q 351 862 333 812 l 565 1450 z "},"X":{"ha":1491,"x_min":80,"x_max":2015,"o":"m 1084 946 q 1114 955 1100 946 q 1139 979 1127 964 q 1160 1010 1151 993 q 1175 1043 1168 1027 l 1336 1487 q 1368 1557 1348 1521 q 1411 1622 1387 1592 q 1465 1670 1436 1651 q 1527 1689 1494 1689 l 1946 1689 q 1993 1670 1978 1689 q 2012 1622 2009 1651 q 2008 1557 2015 1592 q 1988 1487 2001 1521 l 1920 1299 q 1886 1218 1906 1259 q 1842 1138 1866 1177 q 1789 1064 1817 1099 q 1729 1003 1761 1029 q 1662 961 1697 977 q 1589 946 1626 946 l 1190 946 q 1169 934 1178 946 q 1156 911 1160 922 q 1152 898 1154 905 q 1151 886 1151 892 q 1154 878 1152 881 q 1162 874 1157 874 l 1563 874 q 1624 859 1600 874 q 1661 818 1648 844 q 1677 757 1674 791 q 1676 683 1681 722 q 1662 603 1672 644 q 1637 522 1651 562 l 1521 203 q 1490 133 1509 169 q 1446 67 1470 97 q 1392 19 1421 38 q 1331 0 1363 0 l 911 0 q 864 19 879 0 q 845 67 848 38 q 849 133 842 97 q 869 203 857 169 l 1078 777 q 1087 810 1084 793 q 1089 842 1090 827 q 1081 865 1088 856 q 1058 874 1074 874 q 1029 865 1043 874 q 1003 842 1015 856 q 982 810 991 827 q 967 777 973 793 l 758 203 q 727 133 746 169 q 683 67 707 97 q 629 19 659 38 q 568 0 600 0 l 149 0 q 101 19 117 0 q 83 67 86 38 q 87 133 80 97 q 106 203 94 169 l 276 671 q 308 741 288 705 q 351 807 327 777 q 405 855 376 836 q 467 874 434 874 l 952 877 q 972 889 964 877 q 985 912 981 901 q 988 935 989 924 q 977 946 988 946 l 580 946 q 518 961 543 946 q 481 1003 494 977 q 465 1064 468 1029 q 466 1138 462 1099 q 480 1218 470 1177 q 505 1299 491 1259 l 573 1486 q 605 1556 585 1520 q 648 1621 624 1592 q 702 1670 673 1651 q 764 1689 731 1689 l 1183 1689 q 1231 1670 1215 1689 q 1249 1622 1246 1651 q 1245 1557 1252 1592 q 1225 1487 1238 1521 l 1064 1043 q 1055 1010 1058 1027 q 1053 979 1052 993 q 1062 955 1055 964 q 1084 946 1069 946 z "},"Y":{"ha":1485,"x_min":85,"x_max":2026,"o":"m 762 50 q 792 59 778 50 q 817 82 806 68 q 838 113 829 96 q 852 146 847 130 l 1369 1564 q 1389 1607 1377 1585 q 1416 1648 1401 1630 q 1450 1678 1432 1666 q 1488 1689 1468 1689 l 1957 1689 q 2004 1670 1989 1689 q 2023 1622 2020 1651 q 2019 1557 2026 1592 q 1999 1487 2011 1521 l 1134 -873 q 1119 -910 1128 -888 q 1098 -952 1110 -932 q 1070 -987 1085 -972 q 1037 -1001 1055 -1001 q 1014 -992 1023 -1001 q 997 -972 1004 -983 l 715 -507 q 694 -445 700 -481 q 690 -369 688 -409 q 702 -286 692 -328 q 726 -203 711 -243 q 745 -133 738 -169 q 749 -67 752 -97 q 731 -19 747 -38 q 684 0 716 0 l 154 0 q 106 19 121 0 q 88 67 91 38 q 92 133 85 97 q 111 203 99 169 l 578 1487 q 610 1557 591 1521 q 654 1622 629 1592 q 707 1670 678 1651 q 769 1689 736 1689 l 1232 1689 q 1261 1678 1251 1689 q 1272 1648 1270 1666 q 1270 1607 1274 1630 q 1258 1564 1266 1585 l 742 146 q 733 113 736 130 q 731 82 730 96 q 740 59 732 68 q 762 50 747 50 z "},"Z":{"ha":1489,"x_min":94,"x_max":2009,"o":"m 761 47 q 790 56 777 47 q 815 77 804 64 q 836 106 827 90 q 850 140 844 123 l 924 341 q 961 424 938 381 q 1013 501 984 466 q 1077 559 1042 536 q 1150 583 1112 583 l 1526 586 q 1583 564 1565 586 q 1605 506 1601 541 q 1600 429 1608 471 q 1577 347 1592 387 q 1552 278 1567 316 q 1521 202 1538 241 q 1482 127 1503 163 q 1436 63 1461 91 q 1379 17 1410 35 q 1313 0 1349 0 l 176 0 q 119 23 138 0 q 98 80 101 45 q 102 158 94 115 q 125 241 111 201 l 292 699 q 329 781 306 739 q 381 859 352 824 q 445 917 410 895 q 517 939 479 939 l 1003 939 q 1076 962 1041 939 q 1139 1019 1110 984 q 1191 1097 1168 1054 q 1229 1179 1214 1139 l 1364 1553 q 1374 1586 1371 1569 q 1375 1617 1377 1603 q 1367 1640 1374 1631 q 1344 1649 1360 1649 q 1315 1639 1329 1649 q 1290 1616 1301 1630 q 1269 1585 1278 1602 q 1254 1552 1260 1568 l 1197 1396 q 1160 1314 1183 1356 q 1108 1236 1137 1271 q 1044 1179 1079 1201 q 972 1156 1010 1156 l 597 1156 q 541 1179 559 1156 q 518 1236 522 1201 q 523 1314 515 1271 q 545 1396 531 1356 q 570 1458 556 1426 q 600 1524 583 1491 q 637 1587 617 1556 q 681 1639 657 1617 q 732 1676 705 1662 q 791 1689 760 1689 l 1928 1689 q 1984 1667 1966 1689 q 2006 1609 2002 1645 q 2001 1532 2009 1574 q 1978 1450 1992 1490 l 1831 1048 q 1794 965 1817 1008 q 1742 887 1771 922 q 1677 830 1712 852 q 1605 807 1643 807 l 1121 807 q 1048 785 1083 807 q 985 727 1014 762 q 933 650 956 692 q 895 567 910 607 l 742 146 q 733 114 736 131 q 731 81 730 96 q 739 57 732 66 q 761 47 746 47 z "},"[":{"ha":488,"x_min":50,"x_max":1050,"o":"m 448 24 q 439 8 445 16 q 425 0 433 0 l 68 0 q 56 5 60 0 q 51 18 52 10 q 52 36 50 26 q 57 54 54 45 l 633 1635 q 641 1654 636 1645 q 653 1671 646 1664 q 667 1684 659 1679 q 684 1689 675 1689 l 1043 1689 q 1049 1683 1049 1689 q 1047 1670 1050 1676 q 1032 1650 1042 1655 q 1010 1645 1022 1645 q 976 1649 994 1645 q 940 1653 958 1653 q 919 1650 930 1653 q 900 1642 909 1648 q 882 1624 890 1635 q 867 1594 873 1612 l 325 104 q 318 75 318 86 q 322 57 318 63 q 335 48 327 50 q 355 45 344 45 q 392 49 372 45 q 428 53 412 53 q 448 47 441 53 q 448 24 454 41 z "},"\\":{"ha":980,"x_min":486,"x_max":1109,"o":"m 688 1575 q 710 1621 697 1600 q 739 1657 723 1642 q 773 1681 755 1672 q 813 1689 792 1689 q 913 1690 863 1689 q 1014 1691 964 1691 q 1065 1675 1045 1691 q 1095 1631 1084 1658 q 1107 1570 1105 1604 q 1104 1502 1109 1536 l 924 189 q 918 152 922 171 q 907 115 914 133 q 885 68 899 90 q 856 32 872 47 q 822 8 840 17 q 782 0 803 0 l 582 0 q 531 17 551 0 q 501 60 511 33 q 488 121 490 87 q 491 189 486 155 l 671 1501 q 677 1538 673 1519 q 688 1575 681 1556 z "},"]":{"ha":522,"x_min":65,"x_max":1064,"o":"m 68 24 q 85 47 75 41 q 109 53 96 53 q 142 49 125 53 q 178 45 160 45 q 218 57 199 45 q 250 104 237 68 l 793 1594 q 799 1624 799 1612 q 794 1642 799 1635 q 782 1650 790 1648 q 762 1653 773 1653 q 723 1649 744 1653 q 687 1645 703 1645 q 668 1650 674 1645 q 667 1670 662 1655 q 675 1683 670 1676 q 686 1689 680 1689 l 1046 1689 q 1059 1684 1055 1689 q 1063 1671 1063 1679 q 1062 1654 1064 1664 q 1057 1635 1061 1645 l 481 54 q 473 36 478 45 q 461 18 468 26 q 447 5 455 10 q 431 0 439 0 l 74 0 q 65 8 66 0 q 68 24 65 16 z "},"^":{"ha":882,"x_min":496,"x_max":1418,"o":"m 1079 2118 l 1351 2118 q 1392 2106 1377 2118 q 1412 2073 1407 2094 q 1417 2026 1418 2053 q 1410 1971 1415 1999 l 1282 1308 q 1270 1259 1278 1285 q 1249 1212 1262 1234 q 1215 1177 1235 1191 q 1167 1162 1195 1162 l 1048 1162 q 1007 1175 1022 1162 q 987 1207 993 1187 q 983 1254 982 1227 q 990 1308 985 1280 l 1061 1653 q 1064 1669 1062 1657 q 1068 1694 1067 1681 q 1070 1716 1070 1706 q 1065 1727 1069 1727 q 1053 1716 1061 1727 q 1038 1693 1046 1706 q 1024 1668 1030 1680 q 1016 1652 1018 1656 l 840 1309 q 808 1254 825 1280 q 770 1207 791 1227 q 727 1175 750 1187 q 677 1162 704 1162 l 564 1162 q 527 1249 496 1162 q 539 1278 532 1263 q 555 1308 547 1293 l 913 1973 q 946 2027 928 2001 q 985 2073 964 2053 q 1030 2106 1006 2094 q 1079 2118 1053 2118 z "},"_":{"ha":1072,"x_min":89,"x_max":1210,"o":"m 1114 212 q 1082 142 1101 178 q 1038 77 1063 106 q 985 28 1014 47 q 923 9 956 9 l 158 9 q 110 28 125 9 q 92 77 95 47 q 96 142 89 106 q 115 212 103 178 l 186 406 q 217 475 198 439 q 260 540 236 511 q 314 589 285 570 q 376 608 343 608 l 1141 607 q 1188 588 1173 607 q 1207 539 1204 569 q 1203 474 1210 510 q 1183 404 1196 438 l 1114 212 z "},"a":{"ha":1497,"x_min":68,"x_max":2034,"o":"m 1497 126 q 1478 83 1490 105 q 1450 42 1466 60 q 1417 12 1435 24 q 1379 0 1399 0 l 110 0 q 80 12 90 0 q 70 36 71 24 q 68 52 68 47 q 72 86 68 66 q 83 126 76 105 l 349 855 q 368 899 356 876 q 396 940 380 921 q 429 970 411 958 q 467 982 447 982 l 1084 982 q 1123 994 1105 982 q 1156 1024 1141 1006 q 1183 1065 1171 1042 q 1203 1108 1196 1087 l 1362 1547 q 1371 1577 1369 1563 q 1374 1603 1374 1592 q 1373 1616 1374 1607 q 1365 1635 1372 1626 q 1342 1644 1358 1644 q 1297 1622 1317 1644 q 1259 1564 1276 1600 q 1225 1481 1241 1527 q 1194 1387 1210 1435 q 1161 1292 1178 1338 q 1124 1210 1144 1246 q 1081 1151 1105 1173 q 1027 1129 1057 1129 l 521 1129 q 491 1141 500 1129 q 480 1165 481 1153 q 479 1183 479 1177 q 483 1215 479 1196 q 494 1255 486 1234 l 605 1559 q 624 1603 612 1580 q 651 1643 636 1625 q 685 1673 667 1662 q 723 1685 703 1685 l 1992 1685 q 2022 1673 2012 1685 q 2032 1649 2031 1662 q 2034 1631 2034 1637 q 2030 1599 2034 1618 q 2019 1559 2026 1580 l 1497 126 m 760 43 q 789 53 775 43 q 814 76 803 62 q 835 106 826 90 q 850 139 844 123 l 1105 838 q 1113 868 1110 854 q 1116 892 1116 882 q 1115 906 1116 897 q 1106 924 1114 916 q 1084 933 1099 933 q 1055 924 1069 933 q 1029 902 1041 916 q 1009 871 1018 888 q 994 838 1000 854 l 740 139 q 731 109 734 123 q 728 84 728 94 q 729 71 728 79 q 737 53 730 62 q 760 43 745 43 z "},"b":{"ha":1492,"x_min":90,"x_max":2024,"o":"m 745 1946 q 782 2027 760 1984 q 831 2109 804 2069 q 890 2185 859 2150 q 957 2244 922 2220 l 1527 2638 q 1562 2659 1544 2650 q 1596 2668 1580 2668 q 1624 2651 1617 2668 q 1628 2609 1630 2633 q 1618 2557 1626 2584 q 1603 2511 1610 2530 l 1396 1943 q 1373 1861 1381 1903 q 1369 1783 1365 1818 q 1390 1725 1372 1748 q 1447 1703 1409 1703 l 1954 1703 q 2002 1684 1987 1703 q 2021 1635 2018 1665 q 2017 1569 2024 1605 q 1997 1499 2009 1533 l 1530 216 q 1498 146 1518 182 q 1455 80 1479 110 q 1401 32 1430 51 q 1339 13 1372 13 l 159 13 q 111 32 126 13 q 93 80 96 51 q 97 146 90 110 q 116 216 104 182 l 745 1946 m 1346 1653 q 1317 1644 1331 1653 q 1291 1621 1303 1635 q 1271 1590 1280 1607 q 1255 1556 1261 1573 l 744 151 q 735 118 738 135 q 733 87 732 101 q 742 63 734 73 q 764 54 749 54 q 793 63 779 54 q 819 87 807 73 q 840 118 831 101 q 854 151 849 136 l 1366 1556 q 1375 1589 1372 1572 q 1377 1620 1378 1606 q 1368 1644 1375 1634 q 1346 1653 1361 1653 z "},"c":{"ha":1524,"x_min":103,"x_max":2031,"o":"m 1605 705 q 1653 686 1638 705 q 1670 647 1668 667 q 1672 619 1672 628 q 1666 566 1672 597 q 1648 502 1660 536 l 1539 203 q 1508 133 1527 169 q 1464 67 1489 97 q 1411 19 1440 38 q 1349 0 1381 0 l 170 0 q 122 19 138 0 q 105 57 107 38 q 103 85 103 77 q 109 138 103 108 q 127 203 115 169 l 595 1487 q 626 1557 607 1521 q 670 1622 646 1592 q 724 1670 694 1651 q 785 1689 753 1689 l 1964 1689 q 2012 1670 1997 1689 q 2029 1632 2027 1651 q 2031 1604 2031 1613 q 2025 1551 2031 1581 q 2007 1487 2019 1521 l 1839 1027 q 1808 957 1827 993 q 1764 891 1788 921 q 1710 843 1740 862 q 1649 824 1681 824 l 1232 824 q 1184 843 1200 824 q 1167 881 1169 862 q 1165 909 1165 901 q 1171 962 1165 932 q 1190 1027 1177 993 l 1381 1553 q 1390 1584 1387 1569 q 1393 1609 1393 1598 q 1392 1622 1393 1613 q 1384 1640 1391 1631 q 1361 1649 1377 1649 q 1332 1639 1346 1649 q 1306 1616 1318 1630 q 1285 1585 1295 1602 q 1270 1552 1276 1568 l 758 146 q 750 116 753 130 q 747 91 747 102 q 748 77 747 86 q 757 59 749 68 q 779 50 764 50 q 829 78 806 50 q 872 152 852 106 q 912 257 893 198 q 952 377 932 315 q 997 497 973 439 q 1048 602 1020 556 q 1111 676 1077 648 q 1189 705 1145 705 l 1605 705 z "},"d":{"ha":1489,"x_min":80,"x_max":2402,"o":"m 1520 190 q 1489 121 1508 157 q 1445 55 1470 85 q 1392 6 1421 25 q 1330 -13 1362 -13 l 149 -13 q 101 6 117 -13 q 83 55 86 25 q 87 121 80 85 q 106 190 94 157 l 574 1474 q 605 1544 586 1508 q 649 1609 625 1579 q 703 1658 673 1639 q 764 1677 732 1677 l 1294 1677 q 1356 1696 1326 1677 q 1409 1745 1385 1715 q 1453 1810 1434 1774 q 1484 1879 1472 1846 q 1520 1962 1498 1919 q 1569 2045 1541 2005 q 1628 2121 1596 2085 q 1695 2184 1659 2157 l 2315 2649 q 2345 2669 2330 2660 q 2376 2678 2361 2678 q 2397 2664 2393 2678 q 2400 2629 2402 2650 q 2392 2587 2398 2609 q 2380 2550 2385 2565 l 1520 190 m 1337 1628 q 1308 1618 1322 1628 q 1282 1595 1294 1609 q 1261 1564 1270 1581 q 1246 1531 1252 1547 l 734 125 q 725 92 728 109 q 723 60 722 75 q 732 37 724 46 q 754 28 739 28 q 784 37 770 28 q 809 60 798 46 q 830 92 821 75 q 845 125 839 109 l 1357 1531 q 1366 1564 1362 1547 q 1368 1595 1369 1581 q 1359 1618 1367 1609 q 1337 1628 1352 1628 z "},"e":{"ha":1492,"x_min":68,"x_max":2034,"o":"m 605 1559 q 624 1603 612 1580 q 651 1643 636 1625 q 685 1673 667 1662 q 723 1685 703 1685 l 1992 1685 q 2022 1673 2012 1685 q 2032 1649 2031 1662 q 2034 1631 2034 1637 q 2030 1599 2034 1618 q 2019 1559 2026 1580 l 1753 830 q 1734 787 1746 809 q 1707 746 1722 764 q 1673 716 1691 728 q 1635 704 1655 704 l 1018 704 q 980 692 998 704 q 946 662 962 680 q 919 621 931 643 q 899 577 907 598 l 739 138 q 730 108 733 122 q 728 83 728 94 q 729 69 728 78 q 737 51 730 60 q 760 41 745 41 q 805 63 785 41 q 843 122 825 85 q 876 204 861 158 q 908 299 892 250 q 941 393 924 347 q 977 476 958 439 q 1021 534 997 512 q 1074 556 1044 556 l 1581 556 q 1611 544 1601 556 q 1622 520 1620 532 q 1623 502 1623 508 q 1619 470 1623 489 q 1608 430 1615 451 l 1497 126 q 1478 83 1490 105 q 1450 42 1466 60 q 1417 12 1435 24 q 1379 0 1399 0 l 110 0 q 80 12 90 0 q 70 36 71 24 q 68 52 68 47 q 72 86 68 66 q 83 126 76 105 l 605 1559 m 1342 1641 q 1313 1632 1327 1641 q 1288 1610 1299 1624 q 1267 1579 1276 1596 q 1252 1546 1258 1563 l 998 847 q 989 817 991 831 q 986 792 986 802 q 987 779 986 787 q 996 761 988 770 q 1019 752 1004 752 q 1048 761 1034 752 q 1073 784 1061 770 q 1093 814 1084 798 q 1108 847 1102 831 l 1362 1546 q 1371 1576 1369 1563 q 1374 1601 1374 1590 q 1373 1614 1374 1605 q 1365 1632 1372 1624 q 1342 1641 1358 1641 z "},"f":{"ha":962,"x_min":-97,"x_max":1804,"o":"m 1515 1664 q 1502 1640 1511 1653 q 1482 1628 1493 1628 l 1398 1628 q 1337 1609 1366 1628 q 1283 1561 1308 1590 q 1239 1496 1259 1531 q 1208 1426 1220 1460 l 372 -872 q 356 -911 366 -888 q 333 -954 346 -934 q 303 -989 319 -975 q 269 -1004 288 -1004 q 246 -996 256 -1004 q 229 -979 237 -989 l -66 -567 q -90 -508 -83 -543 q -95 -433 -97 -473 q -84 -350 -94 -393 q -60 -269 -75 -308 l 863 2268 q 894 2338 875 2302 q 938 2404 913 2374 q 991 2452 962 2433 q 1053 2471 1021 2471 l 1797 2471 q 1804 2464 1804 2471 q 1801 2451 1804 2457 q 1794 2437 1799 2444 q 1782 2430 1789 2430 l 1690 2430 q 1628 2411 1657 2430 q 1575 2362 1599 2392 q 1531 2297 1550 2332 q 1499 2227 1512 2261 l 1381 1902 q 1362 1832 1369 1868 q 1358 1766 1355 1796 q 1376 1718 1361 1737 q 1424 1699 1392 1699 l 1508 1699 q 1516 1695 1513 1699 q 1519 1687 1518 1692 q 1518 1676 1520 1682 q 1515 1664 1517 1670 z "},"g":{"ha":1487,"x_min":87,"x_max":2017,"o":"m 1051 828 q 1063 861 1057 842 q 1079 897 1069 880 q 1101 927 1088 915 q 1130 939 1114 939 l 1676 939 q 1724 920 1709 939 q 1742 882 1740 901 q 1744 854 1744 863 q 1737 801 1744 831 q 1719 736 1731 770 l 1525 203 q 1494 133 1513 169 q 1450 67 1474 97 q 1396 19 1426 38 q 1335 0 1367 0 l 154 0 q 106 19 121 0 q 89 57 91 38 q 87 85 87 77 q 93 138 87 108 q 111 203 99 169 l 578 1487 q 610 1557 591 1521 q 654 1622 629 1592 q 707 1670 678 1651 q 769 1689 736 1689 l 1950 1689 q 1998 1670 1982 1689 q 2015 1632 2013 1651 q 2017 1604 2017 1613 q 2011 1551 2017 1581 q 1992 1487 2005 1521 l 1910 1261 q 1879 1191 1898 1227 q 1835 1125 1860 1155 q 1782 1077 1811 1096 q 1720 1058 1752 1058 l 1301 1058 q 1253 1075 1268 1058 q 1235 1109 1237 1091 q 1233 1135 1233 1127 q 1240 1191 1233 1158 q 1261 1266 1247 1223 q 1292 1353 1275 1308 q 1326 1441 1310 1398 q 1355 1521 1342 1483 q 1371 1579 1368 1559 q 1375 1611 1375 1600 q 1370 1636 1375 1623 q 1345 1649 1366 1649 q 1316 1639 1330 1649 q 1290 1616 1301 1630 q 1269 1585 1278 1602 q 1254 1552 1260 1568 l 742 146 q 734 116 736 130 q 731 91 731 102 q 732 77 731 86 q 741 59 733 68 q 763 50 748 50 q 792 59 779 50 q 817 82 806 68 q 838 113 829 96 q 852 146 847 130 l 1070 743 q 1078 771 1078 764 q 1078 780 1078 778 q 1075 795 1078 789 q 1067 803 1072 800 q 1057 807 1061 805 q 1050 813 1052 810 q 1049 818 1049 816 q 1051 828 1049 822 z "},"h":{"ha":1504,"x_min":85,"x_max":2026,"o":"m 1349 1640 q 1320 1631 1334 1640 q 1294 1608 1305 1622 q 1273 1577 1282 1594 q 1258 1544 1264 1560 l 742 126 q 722 83 734 105 q 695 42 710 60 q 662 12 680 24 q 623 0 644 0 l 154 0 q 107 19 122 0 q 89 67 92 38 q 93 133 85 97 q 112 203 100 169 l 977 2563 q 991 2600 982 2578 q 1014 2642 1001 2622 q 1042 2677 1027 2662 q 1074 2691 1057 2691 q 1098 2682 1088 2691 q 1114 2662 1107 2673 l 1396 2197 q 1418 2135 1412 2170 q 1421 2059 1423 2099 q 1409 1976 1419 2018 q 1385 1892 1400 1933 q 1365 1823 1373 1859 q 1361 1757 1358 1787 q 1380 1708 1364 1727 q 1428 1689 1395 1689 l 1957 1689 q 2005 1670 1990 1689 q 2023 1622 2020 1651 q 2019 1557 2026 1592 q 2000 1487 2012 1521 l 1533 203 q 1501 133 1520 169 q 1457 67 1482 97 q 1404 19 1433 38 q 1342 0 1375 0 l 880 0 q 850 12 859 0 q 839 42 840 24 q 841 83 837 60 q 853 126 846 105 l 1369 1544 q 1378 1577 1375 1560 q 1380 1608 1381 1594 q 1372 1631 1379 1622 q 1349 1640 1364 1640 z "},"i":{"ha":718,"x_min":85,"x_max":1257,"o":"m 764 203 q 732 133 751 169 q 688 67 713 97 q 635 19 664 38 q 573 0 606 0 l 154 0 q 106 19 121 0 q 88 67 91 38 q 92 133 85 97 q 111 203 99 169 l 579 1489 q 611 1558 591 1522 q 654 1624 630 1594 q 708 1672 679 1653 q 770 1691 737 1691 l 1188 1689 q 1236 1670 1221 1689 q 1254 1622 1251 1651 q 1250 1557 1257 1592 q 1231 1487 1243 1521 l 764 203 z "},"j":{"ha":732,"x_min":-113,"x_max":1257,"o":"m 357 -879 q 341 -918 351 -895 q 318 -962 332 -941 q 288 -998 304 -983 q 254 -1013 272 -1013 q 231 -1005 240 -1013 q 214 -987 221 -997 l -82 -575 q -106 -516 -100 -551 q -111 -442 -113 -481 q -99 -360 -109 -402 q -75 -278 -90 -318 l 577 1487 q 609 1557 589 1521 q 653 1622 629 1592 q 707 1670 678 1651 q 769 1689 736 1689 l 1188 1689 q 1236 1670 1221 1689 q 1254 1622 1251 1651 q 1250 1557 1257 1592 q 1230 1487 1242 1521 l 357 -879 z "},"k":{"ha":1502,"x_min":87,"x_max":1965,"o":"m 1091 946 q 1121 955 1107 946 q 1146 979 1135 964 q 1167 1010 1158 993 q 1182 1043 1176 1027 l 1343 1487 q 1375 1557 1356 1521 q 1419 1622 1394 1592 q 1472 1670 1443 1651 q 1534 1689 1501 1689 l 1896 1689 q 1944 1670 1929 1689 q 1962 1622 1959 1651 q 1958 1557 1965 1592 q 1939 1487 1951 1521 q 1910 1406 1925 1450 q 1875 1315 1894 1361 q 1833 1225 1856 1270 q 1781 1143 1810 1181 q 1716 1076 1752 1105 q 1638 1034 1681 1047 q 1618 1028 1632 1031 q 1586 1019 1604 1024 q 1548 1006 1567 1013 q 1511 991 1528 1000 q 1481 973 1493 983 q 1464 952 1468 963 q 1469 927 1460 940 q 1494 903 1478 915 q 1530 880 1510 891 q 1570 861 1551 869 q 1605 846 1590 852 q 1625 837 1620 840 q 1669 789 1655 822 q 1684 715 1683 757 q 1676 628 1685 674 q 1651 538 1666 582 l 1529 203 q 1497 133 1516 169 q 1453 67 1478 97 q 1400 19 1429 38 q 1338 0 1371 0 l 919 0 q 871 19 886 0 q 853 67 856 38 q 857 133 850 97 q 876 203 864 169 l 1085 777 q 1094 810 1091 793 q 1096 842 1097 827 q 1087 865 1095 856 q 1065 874 1080 874 q 1036 865 1050 874 q 1010 842 1022 856 q 989 810 998 827 q 975 777 981 793 l 766 203 q 734 133 753 169 q 690 67 715 97 q 637 19 666 38 q 575 0 608 0 l 157 0 q 109 19 124 0 q 91 67 94 38 q 95 133 87 97 q 114 203 102 169 l 968 2549 q 984 2588 974 2565 q 1007 2631 994 2610 q 1036 2667 1020 2652 q 1069 2681 1052 2681 q 1092 2673 1083 2681 q 1109 2656 1101 2665 l 1404 2240 q 1429 2181 1422 2216 q 1433 2106 1435 2146 q 1422 2024 1432 2066 q 1398 1942 1413 1982 l 1071 1042 q 1062 1009 1065 1026 q 1060 978 1059 992 q 1069 955 1061 964 q 1091 946 1076 946 z "},"l":{"ha":726,"x_min":70,"x_max":1433,"o":"m 963 2549 q 979 2588 969 2566 q 1002 2632 989 2611 q 1032 2667 1016 2652 q 1066 2681 1048 2681 q 1089 2674 1080 2681 q 1106 2657 1099 2667 l 1402 2245 q 1427 2186 1420 2220 q 1431 2112 1433 2152 q 1420 2030 1430 2072 q 1396 1948 1411 1988 l 749 197 q 717 127 736 163 q 672 62 697 92 q 618 13 648 32 q 557 -6 589 -6 l 138 -6 q 102 3 116 -6 q 81 26 89 12 q 72 62 74 41 q 73 104 70 82 q 81 151 75 127 q 96 197 87 174 l 963 2549 z "},"m":{"ha":2258,"x_min":95,"x_max":2770,"o":"m 2125 1553 q 2135 1586 2131 1569 q 2137 1617 2138 1603 q 2128 1640 2136 1631 q 2106 1649 2121 1649 q 2077 1640 2091 1649 q 2051 1617 2063 1631 q 2030 1586 2039 1603 q 2016 1553 2022 1569 l 1538 241 q 1501 158 1524 201 q 1449 80 1478 115 q 1385 23 1419 45 q 1312 0 1350 0 l 935 0 q 878 23 897 0 q 857 80 860 45 q 861 158 853 115 q 884 241 869 201 l 1364 1554 q 1373 1586 1369 1569 q 1375 1617 1376 1603 q 1366 1640 1373 1631 q 1344 1649 1359 1649 q 1315 1640 1329 1649 q 1290 1617 1301 1631 q 1270 1587 1278 1603 q 1255 1554 1261 1570 l 776 238 q 738 155 761 198 q 687 78 715 113 q 623 21 658 43 q 551 -1 589 -1 l 176 1 q 120 24 138 1 q 99 83 102 47 q 103 161 95 118 q 125 243 111 203 l 565 1450 q 602 1532 579 1490 q 654 1610 625 1575 q 718 1667 684 1645 q 791 1689 753 1689 l 2688 1689 q 2745 1667 2726 1689 q 2766 1610 2763 1645 q 2762 1532 2770 1575 q 2739 1450 2753 1490 l 2300 244 q 2277 190 2291 218 q 2247 135 2264 161 q 2211 84 2230 108 q 2169 42 2191 60 q 2124 14 2148 24 q 2075 3 2100 3 l 1698 5 q 1642 28 1659 5 q 1620 85 1624 51 q 1625 162 1616 120 q 1647 245 1633 205 l 2125 1553 z "},"n":{"ha":1491,"x_min":94,"x_max":2011,"o":"m 1538 241 q 1501 158 1524 201 q 1449 80 1478 115 q 1385 23 1419 45 q 1312 0 1350 0 l 935 0 q 878 23 897 0 q 857 80 860 45 q 861 158 853 115 q 884 241 869 201 l 1364 1554 q 1373 1586 1369 1569 q 1375 1617 1376 1603 q 1366 1640 1373 1631 q 1344 1649 1359 1649 q 1315 1640 1329 1649 q 1290 1617 1301 1631 q 1269 1586 1278 1603 q 1255 1554 1260 1569 l 777 241 q 739 158 762 201 q 687 80 716 115 q 623 23 658 45 q 551 0 589 0 l 176 0 q 119 23 138 0 q 98 80 101 45 q 102 158 94 115 q 125 241 111 201 l 565 1450 q 602 1532 579 1490 q 654 1610 625 1575 q 718 1667 684 1645 q 791 1689 753 1689 l 1929 1689 q 1986 1667 1967 1689 q 2007 1610 2004 1645 q 2003 1532 2011 1575 q 1980 1450 1994 1490 l 1538 241 z "},"o":{"ha":1492,"x_min":87,"x_max":2017,"o":"m 578 1487 q 610 1557 591 1521 q 654 1622 629 1592 q 707 1670 678 1651 q 769 1689 736 1689 l 1950 1689 q 1998 1670 1982 1689 q 2015 1632 2013 1651 q 2017 1604 2017 1613 q 2011 1551 2017 1581 q 1992 1487 2005 1521 l 1525 203 q 1494 133 1513 169 q 1450 67 1474 97 q 1396 19 1426 38 q 1335 0 1367 0 l 154 0 q 106 19 121 0 q 89 57 91 38 q 87 85 87 77 q 93 138 87 108 q 111 203 99 169 l 578 1487 m 763 50 q 792 59 779 50 q 817 82 806 68 q 838 113 829 96 q 852 146 847 130 l 1364 1552 q 1374 1583 1371 1568 q 1377 1608 1377 1597 q 1376 1621 1377 1612 q 1368 1639 1375 1630 q 1345 1649 1360 1649 q 1316 1639 1330 1649 q 1290 1616 1301 1630 q 1269 1585 1278 1602 q 1254 1552 1260 1568 l 742 146 q 734 116 736 130 q 731 91 731 102 q 732 77 731 86 q 741 59 733 68 q 763 50 748 50 z "},"p":{"ha":1499,"x_min":-98,"x_max":2017,"o":"m 578 1487 q 610 1557 591 1521 q 654 1622 629 1592 q 707 1670 678 1651 q 769 1689 736 1689 l 1950 1689 q 1998 1670 1982 1689 q 2015 1632 2013 1651 q 2017 1604 2017 1613 q 2011 1551 2017 1581 q 1992 1487 2005 1521 l 1525 203 q 1494 133 1513 169 q 1450 67 1474 97 q 1396 19 1426 38 q 1335 0 1367 0 l 827 0 q 754 -23 789 0 q 690 -80 720 -45 q 638 -158 661 -115 q 601 -241 615 -201 l 383 -840 q 365 -885 376 -859 q 337 -937 353 -912 q 302 -979 321 -962 q 262 -996 283 -996 q 235 -987 246 -996 q 215 -966 223 -978 l -68 -572 q -92 -516 -85 -547 q -98 -456 -98 -486 q -96 -422 -98 -447 q -86 -355 -95 -397 q -62 -273 -77 -313 l 578 1487 m 763 50 q 792 59 779 50 q 817 82 806 68 q 838 113 829 96 q 852 146 847 130 l 1364 1552 q 1374 1583 1371 1568 q 1377 1608 1377 1597 q 1376 1621 1377 1612 q 1368 1639 1375 1630 q 1345 1649 1360 1649 q 1316 1639 1330 1649 q 1290 1616 1301 1630 q 1269 1585 1278 1602 q 1254 1552 1260 1568 l 742 146 q 734 116 736 130 q 731 91 731 102 q 732 77 731 86 q 741 59 733 68 q 763 50 748 50 z "},"q":{"ha":1485,"x_min":87,"x_max":2017,"o":"m 1133 -873 q 1119 -910 1128 -888 q 1097 -952 1109 -932 q 1069 -987 1084 -972 q 1037 -1001 1054 -1001 q 1013 -992 1023 -1001 q 997 -972 1003 -983 l 715 -507 q 694 -450 699 -481 q 689 -392 689 -420 q 691 -355 689 -381 q 702 -286 692 -328 q 726 -203 711 -243 q 744 -138 738 -169 q 750 -84 750 -107 q 748 -57 750 -76 q 731 -19 747 -38 q 684 0 716 0 l 154 0 q 106 19 121 0 q 89 57 91 38 q 87 85 87 77 q 93 138 87 108 q 111 203 99 169 l 578 1487 q 610 1557 591 1521 q 654 1622 629 1592 q 707 1670 678 1651 q 769 1689 736 1689 l 1950 1689 q 1998 1670 1982 1689 q 2015 1632 2013 1651 q 2017 1604 2017 1613 q 2011 1551 2017 1581 q 1992 1487 2005 1521 l 1133 -873 m 762 50 q 792 59 778 50 q 817 82 806 68 q 838 113 829 96 q 852 146 847 130 l 1364 1552 q 1373 1582 1371 1568 q 1376 1607 1376 1596 q 1375 1621 1376 1612 q 1367 1639 1374 1630 q 1344 1649 1360 1649 q 1315 1639 1329 1649 q 1290 1616 1301 1630 q 1269 1585 1278 1602 q 1254 1552 1259 1568 l 742 146 q 734 116 736 130 q 731 92 731 102 q 732 77 731 87 q 740 59 733 68 q 762 50 747 50 z "},"r":{"ha":1491,"x_min":94,"x_max":2011,"o":"m 1877 1170 q 1840 1088 1863 1131 q 1787 1010 1817 1045 q 1723 952 1758 975 q 1651 930 1689 930 l 1273 930 q 1216 952 1234 930 q 1195 1010 1198 975 q 1200 1087 1192 1045 q 1223 1170 1208 1130 q 1293 1362 1258 1267 q 1364 1554 1328 1457 q 1373 1586 1369 1569 q 1375 1617 1376 1603 q 1366 1640 1373 1631 q 1344 1649 1359 1649 q 1315 1640 1329 1649 q 1290 1617 1301 1631 q 1269 1586 1278 1603 q 1255 1554 1260 1569 l 777 241 q 739 158 762 201 q 687 80 716 115 q 623 23 658 45 q 551 0 589 0 l 176 0 q 119 23 138 0 q 98 80 101 45 q 102 158 94 115 q 125 241 111 201 l 565 1450 q 602 1532 579 1490 q 654 1610 625 1575 q 718 1667 684 1645 q 791 1689 753 1689 l 1929 1689 q 1986 1667 1968 1689 q 2007 1610 2004 1645 q 2002 1532 2011 1575 q 1980 1450 1994 1490 l 1877 1170 z "},"s":{"ha":1485,"x_min":94,"x_max":2009,"o":"m 804 696 q 860 673 842 696 q 882 616 878 651 q 878 539 886 581 q 855 456 869 496 l 742 145 q 733 112 736 129 q 731 81 730 95 q 741 58 733 67 q 763 50 748 50 q 792 59 779 50 q 817 82 806 68 q 838 113 829 96 q 852 146 847 130 l 1006 567 q 1029 650 1021 607 q 1033 727 1037 692 q 1011 785 1029 762 q 955 807 993 807 l 471 807 q 415 830 433 807 q 393 887 397 852 q 397 965 389 922 q 420 1048 406 1008 l 566 1450 q 603 1532 580 1490 q 654 1609 625 1574 q 718 1667 684 1645 q 791 1689 753 1689 l 1928 1689 q 1984 1667 1966 1689 q 2006 1610 2003 1645 q 2001 1532 2009 1575 q 1979 1450 1993 1490 q 1953 1377 1967 1419 q 1921 1293 1939 1336 q 1880 1207 1902 1249 q 1831 1132 1858 1165 q 1770 1078 1803 1099 q 1698 1058 1737 1058 l 1323 1058 q 1267 1081 1285 1058 q 1245 1138 1249 1103 q 1250 1216 1242 1173 q 1272 1299 1258 1259 l 1364 1553 q 1374 1586 1371 1569 q 1376 1617 1377 1603 q 1368 1640 1375 1631 q 1345 1649 1360 1649 q 1316 1640 1330 1649 q 1290 1617 1301 1631 q 1269 1586 1278 1603 q 1254 1553 1260 1569 l 1118 1179 q 1095 1097 1103 1139 q 1091 1019 1087 1054 q 1113 962 1095 984 q 1169 939 1131 939 l 1655 939 q 1697 929 1681 939 q 1722 901 1713 918 q 1733 859 1731 883 q 1732 809 1735 836 q 1722 754 1729 782 q 1706 699 1715 726 l 1539 241 q 1501 158 1525 201 q 1449 80 1478 115 q 1385 23 1420 45 q 1313 0 1351 0 l 176 0 q 119 23 138 0 q 98 80 101 45 q 102 158 94 115 q 125 241 111 201 l 203 456 q 240 539 218 496 q 292 616 263 581 q 356 673 321 651 q 429 696 391 696 l 804 696 z "},"t":{"ha":873,"x_min":-289,"x_max":1561,"o":"m 1517 2468 q 1547 2456 1537 2468 q 1559 2425 1557 2443 q 1557 2383 1561 2406 q 1545 2339 1553 2361 l 1485 2172 q 1468 2108 1474 2140 q 1465 2051 1461 2076 q 1483 2010 1469 2026 q 1528 1994 1498 1994 q 1540 1990 1536 1994 q 1545 1978 1544 1985 q 1544 1961 1546 1970 q 1539 1943 1543 1952 q 1529 1919 1535 1931 q 1513 1896 1522 1906 q 1495 1880 1505 1887 q 1474 1874 1485 1874 l 1445 1874 q 1408 1864 1426 1874 q 1376 1835 1391 1853 q 1351 1797 1362 1818 q 1332 1755 1339 1775 l 610 -230 q 567 -327 593 -276 q 509 -425 541 -377 q 438 -513 476 -472 q 359 -583 400 -555 l -186 -962 q -221 -982 -203 -973 q -255 -991 -239 -991 q -283 -974 -277 -991 q -287 -931 -289 -956 q -277 -880 -285 -907 q -262 -834 -269 -853 l 901 2362 q 918 2399 907 2380 q 940 2433 928 2418 q 968 2458 953 2448 q 1000 2468 983 2468 l 1517 2468 z "},"u":{"ha":1497,"x_min":94,"x_max":2011,"o":"m 567 1450 q 604 1532 581 1490 q 656 1610 627 1575 q 720 1667 686 1645 q 793 1689 755 1689 l 1171 1689 q 1227 1667 1208 1689 q 1249 1610 1245 1645 q 1244 1532 1252 1575 q 1221 1450 1236 1490 l 741 136 q 732 103 736 120 q 730 73 729 87 q 739 50 732 59 q 761 41 746 41 q 789 50 776 41 q 815 73 803 59 q 836 103 827 87 q 850 136 844 120 l 1329 1450 q 1366 1532 1343 1490 q 1418 1610 1389 1575 q 1482 1667 1447 1645 q 1554 1689 1516 1689 l 1929 1689 q 1986 1667 1967 1689 q 2007 1610 2004 1645 q 2003 1532 2011 1575 q 1980 1450 1994 1490 l 1540 241 q 1503 158 1526 201 q 1451 80 1480 115 q 1387 23 1421 45 q 1314 0 1352 0 l 176 0 q 119 23 138 0 q 98 80 101 45 q 102 158 94 115 q 125 241 111 201 l 567 1450 z "},"v":{"ha":1485,"x_min":293,"x_max":2016,"o":"m 758 41 q 787 50 773 41 q 813 73 801 59 q 834 104 825 87 q 848 136 843 121 l 1326 1450 q 1364 1532 1341 1490 q 1416 1610 1387 1575 q 1480 1667 1445 1645 q 1552 1689 1514 1689 l 1949 1689 q 1997 1670 1982 1689 q 2014 1632 2012 1651 q 2016 1604 2016 1613 q 2010 1551 2016 1581 q 1992 1487 2004 1521 l 1525 203 q 1493 133 1512 169 q 1449 67 1474 97 q 1396 19 1425 38 q 1334 0 1367 0 l 591 0 q 537 10 562 0 q 491 38 511 20 q 455 79 470 56 q 431 129 439 102 l 307 494 q 295 552 296 526 q 293 593 293 579 q 297 657 293 621 q 312 738 301 693 q 338 825 323 783 l 578 1487 q 610 1557 591 1521 q 654 1622 629 1592 q 707 1670 678 1651 q 769 1689 736 1689 l 1165 1689 q 1221 1667 1203 1689 q 1242 1622 1240 1645 q 1244 1588 1244 1599 q 1237 1526 1244 1563 q 1216 1450 1230 1490 l 738 136 q 730 107 732 121 q 727 83 727 93 q 728 69 727 78 q 736 51 729 60 q 758 41 743 41 z "},"w":{"ha":2256,"x_min":300,"x_max":2768,"o":"m 565 1450 q 602 1532 579 1490 q 654 1610 625 1575 q 718 1667 684 1645 q 791 1689 753 1689 l 1165 1689 q 1221 1667 1203 1689 q 1242 1622 1240 1645 q 1244 1588 1244 1599 q 1237 1526 1244 1563 q 1216 1450 1230 1490 l 738 136 q 730 107 732 121 q 727 83 727 93 q 728 69 727 78 q 736 51 729 60 q 758 41 743 41 q 787 51 773 41 q 812 74 800 60 q 832 104 823 87 q 847 136 842 121 l 1326 1450 q 1364 1532 1341 1490 q 1416 1610 1387 1575 q 1480 1667 1445 1645 q 1552 1689 1514 1689 l 1931 1689 q 1987 1667 1969 1689 q 2007 1622 2005 1645 q 2009 1588 2009 1599 q 2003 1526 2009 1563 q 1982 1450 1996 1490 l 1501 136 q 1493 106 1495 120 q 1491 83 1491 93 q 1492 68 1491 78 q 1500 50 1493 59 q 1522 41 1507 41 q 1550 50 1537 41 q 1575 73 1564 59 q 1596 103 1587 87 q 1611 136 1605 120 l 2089 1450 q 2126 1532 2103 1490 q 2178 1610 2149 1575 q 2242 1667 2207 1645 q 2315 1689 2277 1689 l 2690 1689 q 2746 1667 2728 1689 q 2766 1622 2764 1645 q 2768 1588 2768 1599 q 2762 1526 2768 1563 q 2740 1450 2755 1490 l 2300 241 q 2263 158 2286 201 q 2211 80 2240 115 q 2147 23 2182 45 q 2075 0 2112 0 l 612 0 q 549 12 578 0 q 494 44 519 24 q 451 93 469 65 q 422 152 433 121 l 316 471 q 301 541 303 509 q 300 589 300 572 q 304 663 300 621 q 320 759 308 706 q 351 862 333 812 l 565 1450 z "},"x":{"ha":1491,"x_min":82,"x_max":2013,"o":"m 1084 946 q 1113 955 1099 946 q 1139 979 1127 964 q 1159 1010 1150 993 q 1175 1043 1168 1027 l 1336 1487 q 1368 1557 1348 1521 q 1411 1622 1387 1592 q 1465 1670 1436 1651 q 1527 1689 1494 1689 l 1946 1689 q 1993 1670 1978 1689 q 2011 1632 2009 1651 q 2013 1604 2013 1613 q 2007 1551 2013 1581 q 1988 1487 2001 1521 l 1920 1299 q 1886 1219 1906 1260 q 1842 1138 1866 1177 q 1789 1064 1817 1099 q 1728 1003 1761 1029 q 1661 961 1696 977 q 1589 946 1626 946 l 1190 946 q 1169 934 1178 946 q 1156 911 1160 922 q 1151 892 1151 899 q 1150 886 1150 886 q 1162 874 1150 874 l 1563 874 q 1624 859 1600 874 q 1661 818 1648 844 q 1676 766 1674 791 q 1678 724 1678 741 q 1675 674 1678 705 q 1662 603 1672 644 q 1637 522 1651 562 l 1521 203 q 1490 133 1509 169 q 1446 67 1470 97 q 1392 19 1421 38 q 1331 0 1363 0 l 911 0 q 864 19 879 0 q 846 57 848 38 q 844 85 844 77 q 850 138 844 108 q 869 203 857 169 l 1078 777 q 1087 808 1084 793 q 1090 833 1090 823 q 1089 847 1090 838 q 1081 865 1088 856 q 1058 874 1074 874 q 1029 865 1043 874 q 1003 842 1015 856 q 982 810 991 827 q 967 777 973 793 l 758 203 q 727 133 746 169 q 683 67 707 97 q 629 19 659 38 q 568 0 600 0 l 149 0 q 101 19 117 0 q 84 57 86 38 q 82 85 82 77 q 88 138 82 108 q 106 203 94 169 l 276 671 q 308 741 288 705 q 351 807 327 777 q 405 855 376 836 q 467 874 434 874 l 952 877 q 972 889 964 877 q 985 912 981 901 q 988 932 988 922 q 988 940 988 933 q 977 946 987 946 l 580 946 q 518 961 543 946 q 481 1003 494 977 q 466 1054 469 1029 q 464 1097 464 1080 q 467 1147 464 1116 q 480 1219 470 1177 q 505 1299 491 1260 l 573 1486 q 605 1556 585 1520 q 648 1621 624 1592 q 702 1670 673 1651 q 764 1689 731 1689 l 1183 1689 q 1231 1670 1215 1689 q 1248 1632 1246 1651 q 1250 1604 1250 1613 q 1244 1551 1250 1581 q 1225 1487 1238 1521 l 1064 1043 q 1055 1013 1058 1027 q 1053 987 1053 998 q 1054 974 1053 983 q 1062 955 1055 964 q 1084 946 1069 946 z "},"y":{"ha":1492,"x_min":87,"x_max":2017,"o":"m 762 50 q 792 59 778 50 q 817 82 806 68 q 838 113 829 96 q 852 146 847 130 l 1350 1513 q 1378 1574 1361 1543 q 1416 1631 1395 1605 q 1463 1673 1438 1657 q 1516 1689 1488 1689 l 1950 1689 q 1998 1670 1982 1689 q 2015 1632 2013 1651 q 2017 1604 2017 1613 q 2011 1551 2017 1581 q 1992 1487 2005 1521 l 1363 -243 q 1327 -325 1349 -282 q 1278 -407 1305 -367 q 1219 -482 1251 -447 q 1152 -541 1187 -517 l 581 -936 q 546 -957 564 -947 q 513 -966 528 -966 q 491 -958 498 -966 q 481 -939 484 -949 q 479 -920 479 -928 q 481 -902 479 -913 q 486 -872 482 -890 q 495 -839 490 -855 q 505 -809 500 -822 l 713 -241 q 734 -164 727 -201 q 741 -102 741 -128 q 739 -68 741 -91 q 718 -23 736 -45 q 662 0 700 0 l 154 0 q 106 19 121 0 q 89 57 91 38 q 87 85 87 77 q 93 138 87 108 q 111 203 99 169 l 578 1487 q 610 1557 591 1521 q 654 1622 629 1592 q 707 1670 678 1651 q 769 1689 736 1689 l 1205 1689 q 1246 1673 1233 1689 q 1262 1640 1260 1657 q 1263 1615 1263 1623 q 1258 1569 1263 1596 q 1242 1513 1253 1543 l 742 145 q 733 115 736 129 q 730 90 730 100 q 731 76 730 85 q 740 58 732 67 q 762 50 747 50 z "},"z":{"ha":1489,"x_min":94,"x_max":2009,"o":"m 761 47 q 790 56 777 47 q 815 77 804 64 q 836 106 827 90 q 850 140 844 123 l 930 359 q 968 442 945 399 q 1020 520 991 485 q 1084 578 1049 555 q 1156 601 1118 601 l 1533 604 q 1575 594 1558 605 q 1600 566 1591 584 q 1611 525 1609 549 q 1611 475 1613 501 q 1601 420 1608 448 q 1584 366 1594 392 q 1559 295 1573 334 q 1527 216 1545 256 q 1488 136 1510 175 q 1440 67 1466 98 q 1382 18 1413 37 q 1313 0 1350 0 l 176 0 q 119 23 138 0 q 98 80 101 45 q 102 158 94 115 q 125 241 111 201 l 292 699 q 329 781 306 739 q 381 859 352 824 q 445 917 410 895 q 517 939 479 939 l 1003 939 q 1076 962 1041 939 q 1139 1019 1110 984 q 1191 1097 1168 1054 q 1229 1179 1214 1139 l 1364 1553 q 1374 1586 1371 1569 q 1375 1617 1377 1603 q 1367 1640 1374 1631 q 1344 1649 1360 1649 q 1315 1640 1329 1649 q 1290 1617 1301 1631 q 1269 1586 1278 1603 q 1254 1553 1260 1569 l 1200 1402 q 1162 1320 1185 1362 q 1110 1242 1139 1277 q 1046 1185 1081 1207 q 974 1162 1012 1162 l 599 1162 q 543 1185 561 1162 q 520 1242 524 1207 q 525 1320 517 1277 q 548 1402 533 1362 q 572 1464 559 1432 q 602 1529 585 1497 q 639 1590 619 1560 q 682 1641 659 1619 q 733 1676 706 1663 q 791 1689 760 1689 l 1928 1689 q 1984 1667 1966 1689 q 2006 1609 2002 1645 q 2001 1532 2009 1574 q 1978 1450 1992 1490 l 1831 1048 q 1794 965 1817 1008 q 1742 887 1771 922 q 1677 830 1712 852 q 1605 807 1643 807 l 1121 807 q 1048 785 1083 807 q 985 727 1014 762 q 933 650 956 692 q 895 567 910 607 l 742 146 q 733 114 736 131 q 731 81 730 96 q 739 57 732 66 q 761 47 746 47 z "},"{":{"ha":656,"x_min":219,"x_max":1219,"o":"m 617 24 q 608 8 614 16 q 594 0 602 0 l 237 0 q 224 5 229 0 q 220 18 220 10 q 221 36 219 26 q 226 54 222 45 l 423 595 q 433 641 431 617 q 428 680 435 665 l 351 837 q 351 868 344 849 q 360 885 354 878 q 374 899 366 893 l 568 1064 q 602 1104 587 1080 q 625 1150 616 1127 l 802 1635 q 810 1654 805 1645 q 822 1671 815 1664 q 836 1684 828 1679 q 852 1689 844 1689 l 1212 1689 q 1218 1683 1218 1689 q 1216 1670 1219 1676 q 1201 1650 1211 1655 q 1179 1645 1191 1645 q 1145 1649 1163 1645 q 1109 1653 1127 1653 q 1088 1650 1099 1653 q 1068 1642 1078 1648 q 1051 1624 1059 1635 q 1036 1594 1042 1612 l 494 104 q 487 75 487 86 q 491 57 487 63 q 504 48 496 50 q 524 45 513 45 q 561 49 541 45 q 597 53 581 53 q 617 47 610 53 q 617 24 623 41 z "},"|":{"ha":463,"x_min":-303,"x_max":1333,"o":"m 210 -475 q 160 -586 187 -536 q 103 -676 134 -635 q 36 -752 72 -717 q -39 -821 1 -787 q -123 -889 -79 -854 q -216 -963 -168 -923 q -248 -985 -231 -975 q -279 -996 -265 -996 q -299 -982 -295 -996 q -300 -948 -303 -968 q -291 -907 -298 -928 q -280 -872 -285 -886 l 861 2264 q 906 2365 882 2321 q 958 2444 930 2410 q 1017 2507 985 2479 q 1084 2560 1048 2535 q 1160 2610 1120 2585 q 1247 2665 1201 2635 q 1275 2680 1261 2673 q 1302 2686 1289 2686 q 1327 2672 1321 2686 q 1332 2636 1333 2657 q 1324 2591 1331 2614 q 1311 2550 1317 2568 l 210 -475 z "},"}":{"ha":734,"x_min":87,"x_max":1086,"o":"m 91 24 q 107 47 97 41 q 132 53 118 53 q 165 49 147 53 q 200 45 182 45 q 241 57 222 45 q 273 104 260 68 l 815 1594 q 821 1624 821 1612 q 817 1642 821 1635 q 804 1650 812 1648 q 785 1653 795 1653 q 746 1649 766 1653 q 709 1645 725 1645 q 690 1650 696 1645 q 690 1670 684 1655 q 697 1683 692 1676 q 709 1689 703 1689 l 1068 1689 q 1081 1684 1077 1689 q 1086 1671 1085 1679 q 1085 1654 1086 1664 q 1080 1635 1083 1645 l 903 1150 q 892 1104 895 1127 q 897 1064 890 1080 l 972 899 q 972 868 978 886 q 962 851 968 859 q 949 837 956 842 l 758 680 q 724 641 739 665 q 701 595 709 617 l 504 54 q 495 36 500 45 q 484 18 490 26 q 470 5 477 10 q 453 0 462 0 l 96 0 q 88 8 88 0 q 91 24 87 16 z "},"~":{"ha":1283,"x_min":387,"x_max":1490,"o":"m 442 1097 q 476 1173 456 1134 q 524 1244 497 1212 q 582 1297 551 1276 q 649 1318 614 1318 l 1039 1318 q 1085 1304 1069 1318 q 1107 1268 1101 1291 q 1111 1217 1114 1246 q 1101 1156 1109 1187 q 1083 1093 1094 1124 q 1063 1034 1073 1061 q 1042 959 1050 998 q 1038 887 1035 920 q 1058 834 1042 855 q 1109 814 1075 814 l 1416 814 q 1461 801 1445 814 q 1483 768 1477 789 q 1488 719 1490 747 q 1480 661 1487 691 q 1465 601 1474 631 q 1445 543 1455 570 q 1411 468 1432 507 q 1363 396 1390 429 q 1304 343 1336 364 q 1238 323 1273 323 l 841 323 q 789 343 805 323 q 769 396 772 364 q 774 467 766 428 q 795 543 782 507 q 813 600 804 570 q 828 658 822 629 q 834 713 833 687 q 828 760 835 740 q 806 792 822 780 q 762 804 790 804 l 462 804 q 414 818 431 804 q 393 856 398 832 q 391 909 387 879 q 402 972 394 939 q 421 1037 410 1004 q 442 1097 432 1069 z "},"":{"ha":718,"x_min":80,"x_max":1273,"o":"m 412 1031 q 444 1105 426 1069 q 485 1170 462 1141 q 538 1216 509 1198 q 603 1234 567 1234 l 1022 1234 q 1074 1216 1058 1234 q 1093 1170 1090 1198 q 1087 1105 1095 1141 q 1065 1031 1078 1069 l 763 202 q 731 128 749 164 q 690 63 713 92 q 638 17 667 35 q 573 -1 609 -1 l 154 -1 q 102 17 118 -1 q 83 63 85 35 q 89 128 80 92 q 111 202 97 164 l 412 1031 m 597 1537 q 621 1593 607 1565 q 652 1643 635 1621 q 692 1678 670 1664 q 741 1691 714 1691 l 1217 1691 q 1257 1678 1244 1691 q 1271 1643 1269 1665 q 1266 1594 1273 1622 q 1249 1537 1259 1566 q 1225 1480 1239 1508 q 1194 1431 1211 1453 q 1154 1396 1176 1409 q 1104 1382 1132 1382 l 629 1383 q 590 1397 602 1383 q 575 1431 577 1410 q 580 1480 574 1453 q 597 1537 587 1508 z "},"":{"ha":1835,"x_min":413,"x_max":2346,"o":"m 1951 1220 q 1999 1201 1984 1220 q 2017 1153 2014 1182 q 2013 1087 2020 1123 q 1994 1017 2006 1051 l 1851 627 q 1820 557 1839 593 q 1776 491 1801 521 q 1723 443 1752 462 q 1661 424 1693 424 l 1401 424 q 1302 400 1354 424 q 1201 338 1251 377 q 1106 251 1152 300 q 1024 150 1061 201 l 919 0 l 926 142 q 922 245 929 195 q 894 335 914 296 q 841 399 874 375 q 759 424 808 424 l 482 424 q 434 443 450 424 q 416 491 419 462 q 420 557 413 521 q 439 627 427 593 l 907 1912 q 939 1981 920 1946 q 983 2047 958 2017 q 1036 2096 1007 2077 q 1098 2115 1065 2115 l 1360 2115 q 1460 2139 1409 2115 q 1559 2204 1511 2164 q 1651 2296 1607 2245 q 1729 2400 1695 2347 l 1873 2622 l 1855 2400 q 1858 2296 1851 2347 q 1883 2204 1864 2245 q 1935 2139 1902 2164 q 2017 2115 1968 2115 l 2277 2115 q 2324 2096 2309 2115 q 2343 2047 2340 2077 q 2339 1981 2346 2017 q 2319 1912 2332 1946 l 2184 1541 q 2153 1472 2172 1508 q 2109 1406 2134 1436 q 2056 1358 2085 1377 q 1994 1339 2026 1339 l 1577 1339 q 1530 1358 1545 1339 q 1511 1406 1514 1377 q 1515 1472 1508 1436 q 1535 1541 1522 1508 l 1693 1976 q 1702 2009 1699 1992 q 1704 2040 1706 2026 q 1695 2063 1702 2054 q 1673 2072 1688 2072 q 1644 2063 1658 2072 q 1618 2040 1630 2054 q 1597 2009 1607 2026 q 1583 1976 1588 1992 l 1071 570 q 1062 538 1065 555 q 1060 507 1059 521 q 1069 483 1061 492 q 1091 474 1076 474 q 1120 483 1106 474 q 1145 506 1134 492 q 1166 537 1157 520 q 1181 569 1175 553 l 1344 1017 q 1376 1087 1356 1051 q 1419 1153 1395 1123 q 1473 1201 1444 1182 q 1535 1220 1502 1220 l 1951 1220 z "},"":{"ha":1652,"x_min":90,"x_max":1860,"o":"m 1675 1989 q 1643 1912 1660 1950 l 861 236 q 849 210 854 223 q 839 184 844 197 q 824 130 828 155 q 824 87 819 105 q 843 59 829 69 q 882 50 857 50 q 943 66 916 50 q 991 109 970 82 q 1030 170 1013 136 q 1059 238 1046 203 l 1310 928 q 1325 965 1316 944 q 1347 1004 1335 986 q 1373 1035 1358 1023 q 1407 1048 1388 1048 q 1432 1039 1413 1048 q 1477 1017 1451 1031 q 1536 985 1503 1003 q 1601 947 1568 966 q 1668 907 1635 927 q 1729 871 1701 888 q 1778 842 1757 854 q 1807 824 1799 829 q 1846 782 1834 808 q 1859 721 1858 755 q 1850 647 1860 686 q 1826 567 1841 608 l 1696 209 q 1665 135 1683 171 q 1623 70 1647 98 q 1571 24 1600 41 q 1506 6 1541 6 l 156 0 q 114 10 129 0 q 94 39 99 20 q 94 83 90 57 q 109 140 98 109 q 121 170 115 155 q 134 199 127 184 l 1259 2551 q 1279 2590 1267 2567 q 1305 2634 1291 2613 q 1338 2670 1320 2655 q 1373 2684 1355 2684 q 1400 2674 1389 2684 q 1419 2652 1412 2664 l 1675 2266 q 1707 2143 1710 2214 q 1675 1989 1705 2072 z "},"":{"ha":1086,"x_min":349,"x_max":1355,"o":"m 574 1079 q 600 1150 587 1112 q 629 1226 613 1188 q 666 1300 646 1265 q 710 1363 686 1336 q 766 1407 735 1391 q 835 1423 797 1423 l 911 1423 l 1131 1637 l 1183 1423 l 1270 1423 q 1326 1406 1308 1422 q 1350 1362 1345 1390 q 1349 1299 1355 1335 q 1331 1226 1343 1264 q 1305 1150 1320 1188 q 1279 1079 1291 1112 l 1343 878 l 1133 677 q 1108 607 1121 645 q 1078 530 1095 568 q 1042 456 1062 492 q 997 393 1022 420 q 942 349 972 366 q 873 333 911 333 l 786 333 l 557 60 l 526 333 l 438 333 q 381 349 400 333 q 358 393 363 366 q 358 456 353 420 q 376 530 364 492 q 402 607 387 568 q 429 677 416 645 l 349 878 l 574 1079 m 798 677 q 861 694 833 677 q 912 739 889 711 q 952 802 935 767 q 983 874 970 838 q 1009 964 1002 926 q 1010 1028 1017 1002 q 980 1066 1003 1053 q 914 1079 957 1079 q 849 1061 878 1079 q 797 1015 820 1044 q 755 950 773 987 q 723 876 736 913 q 701 803 709 839 q 695 740 692 768 q 714 694 698 711 q 765 677 730 677 l 798 677 z "},"":{"ha":1485,"x_min":57,"x_max":2088,"o":"m 762 50 q 792 59 778 50 q 817 82 806 68 q 838 113 829 96 q 852 146 847 130 l 1369 1564 q 1389 1607 1377 1585 q 1416 1648 1401 1630 q 1450 1678 1432 1666 q 1488 1689 1468 1689 l 2016 1689 q 2043 1676 2037 1689 q 2047 1642 2049 1664 q 2038 1592 2045 1620 q 2024 1535 2030 1565 q 2015 1476 2018 1505 q 2021 1423 2013 1447 l 2088 1221 q 2005 1150 2043 1181 q 1936 1089 1967 1118 q 1879 1032 1905 1061 q 1830 969 1853 1003 q 1786 892 1807 935 q 1745 794 1765 850 q 1721 710 1728 747 q 1714 641 1714 673 q 1722 582 1715 609 q 1740 528 1729 554 q 1765 474 1751 501 q 1792 416 1778 448 q 1725 368 1757 391 q 1663 322 1692 345 q 1609 275 1634 299 q 1560 221 1583 250 q 1518 157 1537 193 q 1482 77 1498 121 l 1134 -873 q 1119 -910 1128 -888 q 1097 -952 1109 -932 q 1069 -987 1084 -972 q 1037 -1001 1054 -1001 q 1013 -992 1023 -1001 q 997 -972 1003 -983 l 715 -507 q 693 -445 699 -481 q 690 -369 688 -410 q 702 -286 692 -328 q 726 -203 711 -243 q 745 -133 738 -169 q 749 -67 752 -97 q 731 -19 747 -38 q 684 0 716 0 l 113 0 q 78 15 87 0 q 70 53 68 29 q 79 108 71 77 q 94 172 87 139 q 105 235 102 204 q 100 291 108 267 l 57 420 q 143 510 104 469 q 216 593 182 551 q 276 684 249 635 q 326 794 304 732 q 355 885 345 845 q 371 958 366 924 q 376 1021 376 991 q 373 1082 376 1051 q 362 1146 369 1112 q 349 1221 356 1180 q 427 1310 387 1266 q 502 1398 467 1353 q 568 1492 538 1444 q 618 1596 598 1541 q 633 1628 624 1612 q 653 1658 642 1645 q 677 1681 664 1672 q 706 1689 691 1689 l 1232 1689 q 1261 1678 1251 1689 q 1272 1648 1270 1666 q 1270 1607 1274 1630 q 1258 1564 1266 1585 l 742 146 q 733 113 736 130 q 731 82 730 96 q 740 59 733 68 q 762 50 747 50 z "},"":{"ha":446,"x_min":-316,"x_max":1345,"o":"m 905 1435 q 877 1372 894 1404 q 840 1308 861 1339 q 796 1249 820 1276 q 746 1200 772 1221 l 464 970 q 440 954 453 962 q 416 946 428 946 q 401 957 404 946 q 400 983 398 968 q 407 1014 402 998 q 416 1040 412 1029 l 880 2315 q 906 2375 890 2343 q 943 2436 922 2406 q 988 2491 964 2465 q 1038 2532 1012 2516 l 1282 2686 q 1302 2698 1291 2693 q 1322 2703 1313 2703 q 1341 2691 1337 2703 q 1344 2665 1345 2680 q 1339 2631 1343 2649 q 1329 2601 1334 2614 l 905 1435 m 203 455 q 230 518 214 485 q 268 582 247 551 q 312 642 288 614 q 362 691 336 671 l 642 916 q 666 932 654 925 q 690 940 678 940 q 705 929 702 940 q 706 904 708 918 q 699 873 704 889 q 691 847 694 857 l 191 -526 q 164 -588 180 -555 q 126 -653 147 -621 q 82 -712 106 -684 q 33 -762 58 -741 l -251 -991 q -274 -1008 -262 -1000 q -298 -1016 -286 -1016 q -313 -1005 -310 -1016 q -314 -979 -316 -994 q -307 -948 -312 -964 q -298 -922 -302 -932 l 203 455 z "},"":{"ha":1485,"x_min":-76,"x_max":2157,"o":"m 724 1886 q 747 1938 733 1911 q 780 1988 762 1965 q 821 2024 799 2010 q 867 2039 842 2039 l 2106 2039 q 2141 2024 2130 2039 q 2155 1988 2153 2010 q 2152 1938 2157 1965 q 2138 1886 2147 1911 l 2019 1559 q 1996 1507 2010 1534 q 1962 1458 1981 1480 q 1922 1421 1944 1436 q 1876 1407 1900 1407 l 1399 1407 q 1360 1424 1371 1407 q 1349 1469 1348 1440 q 1359 1535 1349 1497 q 1384 1615 1369 1573 q 1418 1702 1400 1657 q 1453 1789 1436 1747 q 1482 1870 1470 1832 q 1500 1936 1495 1908 q 1499 1981 1505 1964 q 1472 1997 1493 1997 q 1443 1988 1457 1997 q 1417 1965 1429 1979 q 1396 1934 1405 1951 q 1381 1902 1387 1917 l 1213 1440 q 1199 1388 1204 1415 q 1196 1339 1194 1361 q 1210 1302 1198 1316 q 1245 1288 1221 1288 l 1832 1288 q 1868 1274 1857 1288 q 1882 1237 1880 1259 q 1880 1188 1885 1215 q 1865 1136 1874 1161 l 1358 -257 q 1334 -309 1349 -282 q 1301 -358 1320 -336 q 1261 -395 1283 -380 q 1215 -409 1240 -409 l -24 -409 q -60 -395 -48 -409 q -74 -358 -71 -380 q -71 -309 -76 -336 q -56 -257 -66 -282 l 87 136 q 111 188 96 161 q 143 237 125 214 q 183 273 161 259 q 229 288 205 288 l 706 288 q 742 273 730 288 q 756 237 753 259 q 753 188 758 214 q 739 136 748 161 l 593 -264 q 584 -296 587 -279 q 583 -327 581 -313 q 591 -350 584 -341 q 614 -359 599 -359 q 643 -350 629 -359 q 668 -327 656 -341 q 689 -296 680 -313 q 704 -263 699 -279 l 871 197 q 886 249 881 222 q 889 298 891 275 q 875 334 886 320 q 839 349 863 349 l 252 349 q 216 363 227 349 q 202 399 205 377 q 205 449 200 422 q 220 501 211 476 l 724 1886 m 938 531 q 966 540 953 531 q 992 563 980 549 q 1013 593 1004 576 q 1027 627 1021 610 l 1185 1060 q 1194 1093 1191 1076 q 1196 1124 1198 1109 q 1188 1147 1195 1138 q 1166 1156 1181 1156 q 1137 1147 1151 1156 q 1111 1124 1122 1138 q 1089 1093 1099 1109 q 1075 1060 1080 1076 l 917 627 q 908 593 911 610 q 906 563 905 576 q 916 540 908 549 q 938 531 923 531 z "},"":{"ha":874,"x_min":469,"x_max":1399,"o":"m 551 1359 q 615 1511 578 1433 q 699 1663 652 1589 q 799 1802 745 1736 q 913 1917 852 1868 q 1040 1995 974 1966 q 1177 2024 1106 2024 q 1292 1995 1247 2024 q 1362 1917 1337 1966 q 1393 1802 1387 1868 q 1391 1663 1399 1736 q 1364 1511 1383 1589 q 1317 1359 1344 1433 q 1253 1207 1291 1285 q 1170 1055 1216 1129 q 1070 915 1124 981 q 956 800 1017 849 q 829 721 896 750 q 692 692 763 692 q 576 721 622 692 q 506 800 531 750 q 475 915 481 849 q 477 1055 469 981 q 505 1207 486 1129 q 551 1359 525 1285 m 615 1359 q 576 1232 593 1297 q 553 1105 560 1167 q 552 989 547 1044 q 577 893 557 934 q 635 828 597 852 q 732 804 673 804 q 847 828 791 804 q 952 893 902 852 q 1048 989 1003 934 q 1132 1105 1093 1044 q 1201 1232 1170 1167 q 1254 1359 1232 1297 q 1293 1486 1276 1421 q 1316 1612 1310 1551 q 1317 1729 1322 1674 q 1292 1825 1312 1784 q 1233 1889 1271 1866 q 1137 1913 1196 1913 q 1022 1889 1078 1913 q 917 1825 967 1866 q 821 1729 866 1784 q 738 1612 777 1674 q 669 1486 700 1551 q 615 1359 637 1421 m 1120 1341 q 1136 1335 1131 1341 q 1142 1319 1141 1329 q 1140 1298 1143 1310 q 1134 1275 1138 1286 l 1088 1148 q 1078 1125 1084 1137 q 1063 1104 1072 1114 q 1046 1088 1055 1095 q 1026 1082 1036 1082 l 642 1082 q 626 1088 631 1082 q 620 1104 621 1095 q 621 1125 619 1114 q 627 1148 623 1137 l 780 1567 q 790 1590 784 1578 q 805 1611 797 1602 q 823 1627 813 1621 q 842 1634 832 1634 l 1227 1634 q 1242 1627 1237 1634 q 1248 1611 1247 1621 q 1247 1590 1249 1602 q 1240 1567 1244 1578 l 1196 1447 q 1186 1424 1192 1436 q 1172 1402 1180 1412 q 1154 1387 1164 1393 q 1135 1380 1145 1380 l 999 1380 q 978 1398 979 1380 q 983 1442 976 1415 q 1004 1500 991 1469 q 1027 1557 1017 1531 q 1040 1602 1037 1584 q 1029 1619 1042 1619 q 1012 1610 1020 1619 q 1000 1589 1004 1600 l 833 1129 q 829 1108 829 1118 q 840 1098 829 1098 q 863 1116 852 1098 q 882 1161 873 1134 q 902 1220 892 1188 q 923 1278 911 1251 q 950 1323 935 1305 q 985 1341 965 1341 l 1120 1341 z "},"":{"ha":1472,"x_min":321,"x_max":1855,"o":"m 1243 1360 q 1231 1333 1238 1347 q 1213 1305 1223 1318 q 1194 1278 1204 1291 q 1174 1253 1183 1265 l 861 877 q 810 806 833 844 q 772 730 787 769 q 757 649 757 687 q 765 576 757 610 q 787 510 774 541 q 812 451 801 479 q 827 398 823 423 q 823 349 832 372 q 807 324 818 333 q 783 311 795 315 q 757 306 770 307 q 736 305 745 305 l 557 305 q 491 316 519 305 q 443 345 463 326 q 407 388 422 363 q 379 442 391 413 q 356 503 367 471 q 334 567 346 535 q 321 642 322 602 q 338 730 321 683 q 375 805 352 768 q 427 876 399 842 l 741 1254 q 804 1323 771 1291 q 870 1377 836 1354 q 938 1413 903 1400 q 1009 1426 973 1426 l 1189 1425 q 1215 1422 1202 1425 q 1237 1413 1228 1420 q 1248 1393 1245 1406 q 1243 1360 1251 1381 m 1847 1360 q 1835 1333 1843 1347 q 1817 1305 1827 1318 q 1798 1278 1808 1291 q 1778 1253 1788 1265 l 1466 877 q 1414 806 1438 844 q 1377 730 1391 769 q 1361 649 1361 687 q 1370 576 1361 610 q 1392 510 1378 541 q 1416 451 1405 479 q 1432 398 1427 423 q 1428 349 1436 372 q 1411 324 1422 333 q 1387 311 1400 315 q 1361 306 1374 307 q 1341 305 1349 305 l 1161 305 q 1096 316 1124 305 q 1047 345 1067 326 q 1011 388 1026 363 q 983 442 996 413 q 961 503 971 471 q 939 567 950 535 q 926 642 926 602 q 943 730 925 683 q 980 805 956 768 q 1031 876 1003 842 l 1345 1254 q 1408 1323 1375 1291 q 1474 1377 1440 1354 q 1542 1413 1508 1400 q 1613 1426 1577 1426 l 1793 1425 q 1820 1422 1807 1425 q 1841 1413 1832 1420 q 1852 1393 1849 1406 q 1847 1360 1855 1381 z "},"":{"ha":910,"x_min":498,"x_max":1432,"o":"m 581 1359 q 645 1512 608 1434 q 728 1665 682 1590 q 829 1805 774 1739 q 944 1920 883 1870 q 1072 1998 1005 1969 q 1209 2027 1138 2027 q 1326 1998 1280 2027 q 1396 1920 1371 1969 q 1426 1804 1420 1870 q 1424 1664 1432 1738 q 1397 1511 1417 1590 q 1350 1359 1377 1433 q 1286 1206 1323 1285 q 1202 1053 1249 1128 q 1102 912 1156 979 q 987 797 1048 846 q 860 718 926 747 q 722 689 793 689 q 606 718 651 689 q 535 797 560 747 q 505 912 511 846 q 506 1053 498 979 q 534 1206 514 1128 q 581 1359 553 1284 m 915 1064 q 900 1070 905 1064 q 893 1086 895 1076 q 894 1107 892 1096 q 900 1130 896 1119 l 967 1314 q 970 1335 971 1324 q 960 1345 970 1345 q 936 1325 947 1345 q 913 1273 924 1304 q 891 1205 903 1241 q 867 1137 880 1168 q 838 1085 854 1105 q 802 1064 822 1064 l 663 1064 q 648 1070 653 1064 q 642 1086 643 1077 q 643 1107 641 1096 q 649 1130 645 1119 l 804 1554 q 814 1577 808 1565 q 828 1599 820 1589 q 846 1615 836 1609 q 866 1622 855 1622 l 1237 1620 q 1253 1614 1248 1620 q 1259 1598 1258 1608 q 1257 1576 1260 1588 q 1251 1553 1255 1565 l 1211 1444 q 1190 1401 1201 1415 q 1167 1381 1178 1388 q 1146 1372 1156 1375 q 1129 1363 1137 1369 q 1131 1358 1128 1360 q 1137 1353 1133 1355 q 1144 1350 1141 1351 q 1150 1347 1148 1348 q 1165 1332 1160 1342 q 1171 1309 1170 1322 q 1168 1280 1171 1295 q 1160 1251 1165 1265 l 1116 1130 q 1105 1107 1112 1119 q 1091 1086 1099 1095 q 1074 1070 1083 1076 q 1053 1063 1064 1063 l 915 1064 m 969 1369 q 987 1380 979 1369 q 999 1401 996 1391 l 1063 1575 q 1066 1596 1066 1586 q 1056 1607 1066 1607 q 1038 1596 1046 1607 q 1026 1575 1029 1586 l 962 1401 q 959 1380 959 1391 q 969 1369 959 1369 m 644 1359 q 606 1232 622 1297 q 583 1104 589 1166 q 581 987 576 1042 q 607 890 586 932 q 665 824 627 848 q 762 800 703 800 q 877 824 821 800 q 983 890 932 848 q 1080 987 1034 932 q 1164 1104 1125 1042 q 1234 1232 1202 1166 q 1287 1359 1265 1297 q 1326 1486 1310 1421 q 1349 1614 1343 1552 q 1351 1731 1356 1676 q 1325 1828 1345 1786 q 1266 1894 1304 1870 q 1169 1918 1228 1918 q 1055 1894 1110 1918 q 948 1828 999 1870 q 852 1731 897 1786 q 768 1614 806 1676 q 698 1486 729 1552 q 644 1359 667 1421 z "},"":{"ha":1190,"x_min":544,"x_max":1772,"o":"m 1676 1457 q 1644 1387 1664 1423 q 1600 1321 1625 1351 q 1547 1273 1576 1292 q 1485 1254 1518 1254 l 613 1254 q 565 1273 581 1254 q 547 1321 550 1292 q 551 1387 544 1351 q 570 1457 558 1423 l 641 1650 q 672 1719 653 1684 q 715 1785 691 1755 q 769 1833 740 1814 q 831 1852 798 1852 l 1703 1851 q 1751 1832 1735 1851 q 1769 1784 1766 1813 q 1765 1718 1772 1754 q 1746 1649 1758 1683 l 1676 1457 z "},"":{"ha":882,"x_min":473,"x_max":1414,"o":"m 556 1366 q 621 1519 583 1440 q 705 1673 659 1598 q 806 1814 751 1748 q 922 1930 861 1881 q 1050 2009 983 1980 q 1189 2039 1118 2039 q 1306 2009 1260 2039 q 1377 1930 1352 1980 q 1408 1814 1402 1881 q 1406 1673 1414 1748 q 1378 1519 1398 1598 q 1331 1366 1358 1440 q 1266 1212 1304 1291 q 1182 1058 1229 1133 q 1081 917 1136 983 q 965 800 1027 850 q 837 721 904 750 q 699 692 770 692 q 581 721 627 692 q 510 800 535 750 q 479 917 486 850 q 481 1058 473 983 q 509 1212 489 1133 q 556 1366 529 1291 m 827 1366 q 807 1295 814 1331 q 803 1230 800 1259 q 822 1181 806 1200 q 870 1162 838 1162 q 932 1181 903 1162 q 985 1230 961 1200 q 1029 1296 1010 1259 q 1061 1366 1048 1332 q 1080 1436 1073 1400 q 1084 1502 1087 1472 q 1066 1550 1081 1531 q 1018 1569 1050 1569 q 956 1550 985 1569 q 902 1502 926 1531 q 858 1436 878 1472 q 827 1366 839 1400 z "},"":{"ha":1084,"x_min":-98,"x_max":1302,"o":"m 1230 871 q 1189 786 1211 816 q 1145 741 1167 755 q 1100 724 1123 727 q 1054 720 1077 721 q 1008 716 1031 719 q 962 699 985 713 q 919 654 940 684 q 878 570 897 625 q 861 521 871 551 q 839 457 851 491 q 810 390 826 424 q 775 330 794 357 q 732 286 755 302 q 682 269 709 269 l 599 269 q 561 286 572 269 q 550 330 549 302 q 559 390 550 357 q 579 457 568 424 q 604 521 591 491 q 623 570 616 551 q 643 654 642 625 q 631 699 644 684 q 598 716 619 713 q 555 720 578 719 q 512 724 533 721 q 480 741 492 727 q 469 786 468 755 q 489 871 469 816 l 541 1015 q 565 1066 551 1040 q 597 1115 579 1093 q 637 1152 616 1137 q 683 1166 659 1166 l 753 1166 q 804 1181 782 1166 q 844 1221 826 1196 q 876 1279 861 1246 q 904 1344 890 1311 q 932 1410 918 1378 q 964 1468 947 1442 q 1004 1508 982 1493 q 1055 1523 1026 1523 l 1138 1523 q 1178 1508 1167 1523 q 1189 1467 1190 1492 q 1179 1410 1188 1442 q 1160 1343 1171 1377 q 1140 1277 1149 1310 q 1131 1220 1131 1245 q 1141 1179 1130 1195 q 1181 1164 1152 1164 l 1251 1164 q 1286 1149 1275 1164 q 1300 1114 1297 1135 q 1297 1065 1302 1092 q 1282 1013 1292 1038 l 1230 871 m 926 -318 q 895 -388 914 -352 q 851 -453 876 -423 q 798 -502 827 -483 q 736 -521 768 -521 l -29 -521 q -77 -502 -62 -521 q -95 -453 -92 -483 q -91 -388 -98 -423 q -72 -318 -84 -352 l -1 -125 q 30 -55 11 -91 q 74 11 50 -19 q 127 59 98 40 q 189 78 157 78 l 954 77 q 1001 58 986 77 q 1020 9 1017 39 q 1016 -57 1023 -21 q 996 -126 1008 -93 l 926 -318 z "},"":{"ha":745,"x_min":385,"x_max":1305,"o":"m 705 901 q 719 905 713 901 q 731 915 726 909 q 741 929 736 922 q 748 945 745 937 l 814 1128 q 833 1167 822 1147 q 858 1204 844 1187 q 888 1232 871 1221 q 923 1243 905 1242 l 1104 1245 q 1131 1235 1122 1246 q 1142 1207 1140 1224 q 1140 1170 1143 1190 q 1128 1130 1136 1149 l 1079 994 q 1061 954 1072 975 q 1036 917 1050 933 q 1005 889 1022 900 q 970 878 989 878 l 424 878 q 397 889 406 878 q 386 917 388 900 q 389 954 385 934 q 399 994 393 975 l 511 1299 q 529 1339 518 1318 q 554 1376 540 1359 q 584 1404 568 1393 q 619 1415 601 1415 l 852 1415 q 887 1426 871 1415 q 918 1454 904 1437 q 944 1492 932 1471 q 962 1531 955 1512 l 995 1624 q 999 1639 998 1631 q 1000 1655 1001 1648 q 996 1666 1000 1662 q 985 1670 993 1670 q 964 1659 973 1670 q 945 1631 954 1648 q 927 1595 937 1614 q 906 1558 918 1575 q 879 1530 895 1541 q 842 1519 863 1519 l 640 1519 q 620 1527 626 1519 q 612 1548 613 1535 q 614 1575 611 1560 q 622 1604 617 1590 q 635 1633 627 1618 q 654 1661 644 1649 q 677 1681 665 1673 q 703 1689 689 1689 l 1266 1689 q 1293 1679 1284 1689 q 1304 1651 1302 1668 q 1302 1614 1305 1634 q 1291 1574 1298 1594 q 1278 1537 1285 1559 q 1261 1490 1270 1515 q 1239 1441 1251 1466 q 1212 1396 1227 1416 q 1180 1364 1198 1377 q 1142 1352 1162 1352 l 909 1352 q 874 1341 891 1352 q 844 1313 858 1330 q 819 1276 830 1296 q 802 1236 808 1255 l 696 949 q 692 933 694 941 q 691 917 691 924 q 695 905 692 910 q 705 901 699 901 z "},"":{"ha":734,"x_min":370,"x_max":1301,"o":"m 704 1149 q 730 1138 723 1149 q 737 1110 738 1128 q 730 1070 736 1093 q 715 1025 723 1048 q 698 980 707 1002 q 686 940 690 958 q 683 912 682 922 q 697 901 685 901 q 711 906 705 901 q 723 917 718 910 q 733 932 729 924 q 741 948 738 941 l 862 1281 q 866 1297 865 1291 q 865 1306 867 1303 q 860 1310 863 1309 q 852 1311 856 1311 q 839 1310 846 1311 q 826 1311 831 1310 q 820 1319 821 1313 q 824 1339 819 1325 q 840 1356 829 1352 q 864 1367 850 1360 q 892 1389 877 1373 q 920 1440 907 1404 l 987 1625 q 991 1640 989 1632 q 992 1655 993 1649 q 988 1667 991 1662 q 977 1671 985 1671 q 950 1655 962 1671 q 929 1614 939 1638 q 909 1560 919 1589 q 886 1507 899 1532 q 856 1466 873 1482 q 814 1450 838 1450 l 612 1450 q 589 1457 597 1450 q 580 1476 582 1464 q 580 1503 578 1488 q 587 1534 583 1518 q 597 1565 592 1550 q 608 1593 603 1581 q 623 1627 614 1609 q 644 1658 632 1644 q 670 1682 656 1673 q 700 1691 684 1691 l 1268 1691 q 1291 1682 1284 1691 q 1300 1658 1298 1673 q 1298 1627 1301 1644 q 1289 1593 1295 1609 l 1239 1457 q 1212 1406 1230 1430 q 1169 1373 1194 1383 q 1154 1365 1163 1370 q 1142 1352 1145 1361 q 1146 1338 1140 1347 q 1158 1315 1152 1330 q 1164 1276 1163 1299 q 1152 1216 1164 1252 l 1064 976 q 1049 942 1058 960 q 1028 911 1040 925 q 1002 887 1016 897 q 972 878 987 878 l 404 878 q 379 887 387 878 q 371 911 372 897 q 374 945 370 926 q 385 983 378 964 q 398 1020 391 1002 q 410 1051 405 1038 q 425 1085 416 1067 q 446 1116 434 1102 q 473 1140 458 1131 q 502 1149 487 1149 l 704 1149 z "},"":{"ha":397,"x_min":302,"x_max":709,"o":"m 338 840 q 366 907 349 873 q 402 973 382 941 q 446 1034 422 1006 q 496 1084 469 1063 q 551 1119 522 1106 q 612 1131 581 1131 q 663 1119 643 1131 q 693 1084 682 1106 q 707 1034 704 1063 q 706 973 709 1006 q 693 907 702 941 q 673 840 685 873 q 628 740 656 792 q 566 646 601 688 q 488 575 530 603 q 399 548 446 548 q 348 561 368 548 q 318 595 328 573 q 304 645 307 616 q 305 707 302 674 q 317 773 309 739 q 338 840 326 808 z "},"":{"ha":383,"x_min":382,"x_max":941,"o":"m 706 979 q 691 946 700 963 q 670 915 682 928 q 644 891 658 901 q 614 882 630 882 l 414 882 q 392 891 399 882 q 383 915 385 901 q 385 946 382 929 q 394 979 388 963 l 532 1360 q 570 1440 549 1405 q 617 1507 591 1476 q 673 1567 643 1537 q 736 1631 703 1596 q 761 1653 747 1643 q 788 1672 774 1664 q 815 1685 802 1680 q 842 1689 829 1689 l 908 1689 q 931 1681 924 1689 q 940 1657 939 1672 q 938 1626 941 1643 q 929 1593 935 1609 l 706 979 z "},"":{"ha":1665,"x_min":311,"x_max":1845,"o":"m 922 332 q 952 388 932 359 q 992 439 972 416 l 1305 816 q 1356 886 1333 849 q 1393 962 1379 924 q 1409 1043 1409 1005 q 1400 1116 1409 1082 q 1378 1182 1392 1151 q 1354 1241 1365 1213 q 1338 1294 1343 1269 q 1342 1343 1333 1320 q 1359 1368 1348 1359 q 1383 1381 1371 1377 q 1408 1386 1396 1385 q 1429 1387 1421 1387 l 1609 1387 q 1700 1364 1665 1387 q 1759 1304 1735 1341 q 1798 1220 1782 1267 q 1831 1125 1814 1173 q 1844 1050 1843 1090 q 1827 962 1845 1009 q 1790 887 1813 924 q 1739 817 1767 850 l 1425 438 q 1362 370 1394 401 q 1296 315 1329 338 q 1227 279 1262 292 q 1156 267 1192 267 q 1067 267 1112 267 q 977 268 1022 268 q 951 270 964 268 q 929 279 938 273 q 918 299 920 286 q 922 332 915 312 m 318 332 q 348 388 328 359 q 388 439 368 416 l 701 816 q 752 886 728 849 q 789 962 775 924 q 804 1043 804 1005 q 796 1116 804 1082 q 774 1182 787 1151 q 750 1241 761 1213 q 734 1294 739 1269 q 738 1343 729 1320 q 755 1368 744 1359 q 779 1381 766 1377 q 804 1386 791 1385 q 825 1387 817 1387 l 1004 1387 q 1096 1364 1061 1387 q 1155 1304 1131 1341 q 1194 1220 1178 1267 q 1227 1125 1210 1173 q 1240 1050 1239 1090 q 1223 962 1240 1009 q 1186 887 1209 924 q 1135 817 1162 850 l 821 438 q 758 370 790 401 q 691 315 725 338 q 623 279 658 292 q 552 267 588 267 q 463 267 507 267 q 373 268 418 268 q 347 270 360 268 q 325 279 334 273 q 313 299 316 286 q 318 332 311 312 z "},"":{"ha":1592,"x_min":281,"x_max":1830,"o":"m 1362 410 q 1390 428 1377 410 q 1415 475 1402 446 q 1439 542 1427 505 q 1463 619 1451 580 q 1489 695 1475 658 q 1517 762 1502 733 q 1550 809 1533 791 q 1589 827 1568 827 l 1797 827 q 1820 818 1813 827 q 1828 795 1827 809 q 1827 764 1830 781 q 1817 731 1824 747 l 1594 115 q 1578 82 1588 100 q 1557 51 1569 65 q 1532 27 1546 37 q 1502 18 1518 18 l 1312 18 q 1284 28 1293 18 q 1274 56 1276 39 q 1276 93 1272 73 q 1287 132 1280 113 q 1303 171 1293 146 q 1323 224 1313 195 q 1342 281 1334 252 q 1351 333 1350 310 q 1344 372 1352 357 q 1314 387 1336 387 l 1069 387 q 1047 396 1054 387 q 1038 419 1040 405 q 1040 451 1036 433 q 1049 484 1043 468 l 1139 731 q 1154 764 1145 747 q 1175 795 1163 781 q 1201 818 1187 809 q 1230 827 1215 827 l 1440 827 q 1460 819 1453 827 q 1467 799 1466 811 q 1466 772 1468 787 q 1457 743 1463 757 l 1352 456 q 1348 441 1350 449 q 1347 426 1346 433 q 1351 415 1348 419 q 1362 410 1354 410 m 1578 1594 q 1561 1557 1571 1575 q 1541 1520 1552 1539 l 765 208 q 719 140 745 174 q 662 79 692 106 q 600 36 632 52 q 537 19 568 19 l 337 19 q 303 27 316 19 q 286 51 291 36 q 284 87 281 66 q 295 133 286 109 q 312 171 302 153 q 332 208 321 189 l 1108 1521 q 1155 1589 1128 1555 q 1212 1649 1181 1622 q 1274 1693 1242 1676 q 1337 1710 1305 1710 q 1436 1709 1387 1710 q 1536 1708 1486 1708 q 1570 1700 1557 1708 q 1587 1676 1582 1691 q 1589 1640 1592 1661 q 1578 1594 1587 1619 m 706 979 q 691 946 700 963 q 670 915 682 928 q 644 891 658 901 q 614 882 630 882 l 414 882 q 392 891 399 882 q 383 915 385 901 q 385 946 382 929 q 394 979 388 963 l 532 1360 q 570 1440 549 1405 q 617 1507 591 1476 q 673 1567 643 1537 q 736 1631 703 1596 q 761 1653 747 1643 q 788 1672 774 1664 q 815 1685 802 1680 q 842 1689 829 1689 l 908 1689 q 931 1681 924 1689 q 940 1657 939 1672 q 938 1626 941 1643 q 929 1593 935 1609 l 706 979 z "},"":{"ha":1617,"x_min":293,"x_max":1858,"o":"m 1656 377 q 1683 367 1674 378 q 1694 339 1692 356 q 1692 301 1695 322 q 1681 262 1688 281 l 1631 125 q 1613 85 1624 106 q 1588 48 1602 64 q 1557 20 1574 31 q 1522 9 1541 9 l 976 9 q 949 20 958 9 q 938 48 940 31 q 941 85 937 65 q 951 125 945 106 l 1063 431 q 1081 471 1070 450 q 1106 508 1092 491 q 1136 536 1120 525 q 1171 547 1153 547 l 1404 547 q 1439 557 1423 547 q 1470 585 1456 568 q 1495 622 1485 602 q 1513 662 1506 643 l 1547 755 q 1552 772 1550 764 q 1552 786 1553 780 q 1547 797 1551 793 q 1536 801 1544 801 q 1515 790 1525 801 q 1497 762 1506 779 q 1479 726 1489 745 q 1458 689 1470 706 q 1431 662 1446 673 q 1394 650 1415 650 l 1192 650 q 1172 659 1179 650 q 1164 679 1166 667 q 1166 706 1163 691 q 1174 735 1169 721 q 1187 765 1179 749 q 1205 792 1195 780 q 1229 813 1216 805 q 1255 821 1241 821 l 1818 821 q 1845 811 1836 821 q 1856 783 1854 800 q 1854 746 1858 766 q 1843 706 1850 726 q 1830 669 1837 691 q 1813 622 1822 647 q 1791 573 1803 597 q 1765 528 1780 548 q 1733 496 1750 509 q 1695 484 1715 484 l 1462 484 q 1427 473 1444 484 q 1396 445 1411 462 q 1371 408 1382 428 q 1354 368 1360 387 l 1249 81 q 1244 65 1246 73 q 1243 49 1242 56 q 1247 37 1244 42 q 1257 33 1250 33 q 1283 46 1273 33 q 1300 77 1294 60 l 1367 260 q 1385 299 1374 279 q 1410 336 1396 319 q 1440 363 1423 353 q 1475 375 1457 374 l 1656 377 m 707 976 q 691 942 701 960 q 670 911 682 925 q 644 887 658 897 q 614 878 630 878 l 413 878 q 390 887 397 878 q 381 911 382 897 q 383 942 380 925 q 393 976 387 960 l 532 1360 q 570 1439 549 1404 q 617 1506 591 1474 q 674 1567 644 1537 q 737 1632 704 1597 q 762 1654 749 1644 q 790 1673 776 1665 q 817 1685 804 1681 q 843 1689 831 1689 l 910 1689 q 933 1680 926 1689 q 942 1657 941 1671 q 940 1626 943 1643 q 931 1592 937 1609 l 707 976 m 549 9 l 349 9 q 315 18 328 9 q 298 42 302 26 q 296 78 293 57 q 307 124 298 99 q 323 161 314 143 q 344 199 332 180 l 1120 1512 q 1166 1579 1140 1546 q 1223 1640 1193 1613 q 1285 1684 1253 1668 q 1348 1701 1317 1701 q 1448 1700 1398 1701 q 1548 1699 1497 1699 q 1581 1690 1569 1699 q 1598 1667 1594 1682 q 1601 1630 1603 1651 q 1589 1584 1598 1609 q 1573 1547 1582 1566 q 1553 1511 1564 1529 l 777 199 q 730 131 757 165 q 674 70 704 97 q 612 26 644 43 q 549 9 580 9 z "},"":{"ha":1931,"x_min":380,"x_max":2162,"o":"m 713 1148 q 740 1138 732 1148 q 746 1109 747 1127 q 739 1070 745 1092 q 724 1024 732 1048 q 707 979 715 1001 q 695 939 699 957 q 692 911 690 922 q 707 901 694 901 q 721 905 714 901 q 733 916 727 909 q 743 930 739 922 q 750 946 747 939 l 871 1280 q 874 1304 878 1299 q 861 1309 870 1309 q 848 1308 855 1309 q 837 1309 842 1307 q 830 1317 831 1311 q 834 1338 829 1324 q 843 1352 838 1348 q 857 1359 849 1356 q 873 1366 865 1362 q 892 1377 882 1369 q 911 1400 901 1385 q 929 1438 920 1414 l 996 1624 q 1001 1639 999 1631 q 1002 1655 1002 1648 q 998 1666 1001 1662 q 987 1670 994 1670 q 960 1654 972 1670 q 939 1613 949 1637 q 918 1559 928 1588 q 895 1506 908 1530 q 865 1465 882 1481 q 823 1448 848 1448 l 621 1448 q 593 1463 599 1448 q 590 1501 587 1479 q 602 1549 593 1524 q 618 1592 611 1573 q 633 1626 624 1609 q 654 1657 642 1643 q 680 1680 666 1671 q 709 1689 694 1689 l 1278 1689 q 1301 1680 1293 1689 q 1310 1657 1308 1671 q 1308 1626 1311 1643 q 1299 1592 1305 1609 l 1249 1457 q 1222 1406 1239 1429 q 1179 1372 1204 1382 q 1164 1364 1173 1369 q 1152 1352 1155 1360 q 1156 1338 1149 1347 q 1167 1314 1162 1329 q 1173 1274 1173 1298 q 1161 1215 1174 1250 l 1074 975 q 1058 942 1067 959 q 1037 910 1049 924 q 1011 886 1025 895 q 982 877 998 877 l 414 877 q 390 886 397 877 q 381 910 382 895 q 385 944 380 926 q 395 982 389 963 q 408 1019 401 1002 q 419 1050 414 1037 q 434 1083 425 1065 q 456 1115 444 1100 q 482 1139 468 1129 q 511 1148 496 1148 l 713 1148 m 865 0 l 665 0 q 632 8 644 0 q 614 32 619 17 q 612 68 610 47 q 624 115 615 90 q 640 152 631 133 q 660 189 649 171 l 1436 1502 q 1483 1570 1457 1536 q 1540 1631 1510 1604 q 1602 1675 1570 1658 q 1665 1691 1634 1691 q 1765 1690 1715 1691 q 1864 1689 1814 1689 q 1898 1681 1885 1689 q 1915 1657 1910 1672 q 1918 1621 1920 1642 q 1906 1575 1915 1600 q 1890 1538 1899 1556 q 1870 1501 1881 1519 l 1093 189 q 1047 121 1074 155 q 990 60 1021 87 q 928 17 960 33 q 865 0 897 0 m 1921 810 l 2129 810 q 2151 801 2144 810 q 2160 777 2159 791 q 2159 746 2162 763 q 2149 712 2155 728 l 1925 98 q 1910 64 1919 81 q 1889 33 1901 47 q 1863 9 1877 18 q 1834 0 1849 0 l 1644 0 q 1611 16 1619 0 q 1606 58 1603 32 q 1620 117 1609 83 q 1644 184 1632 150 q 1668 252 1657 219 q 1683 311 1679 286 q 1678 353 1686 337 q 1645 369 1670 369 l 1402 369 q 1379 378 1386 369 q 1370 401 1371 387 q 1372 432 1369 415 q 1381 465 1375 449 l 1470 712 q 1486 746 1476 728 q 1507 777 1495 763 q 1533 801 1518 791 q 1563 810 1547 810 l 1771 810 q 1791 802 1785 810 q 1799 782 1798 794 q 1797 754 1800 769 q 1789 725 1794 739 l 1683 438 q 1679 422 1681 431 q 1678 408 1677 414 q 1683 397 1679 401 q 1693 393 1686 393 q 1722 411 1708 393 q 1747 458 1735 429 q 1771 525 1759 487 q 1795 601 1783 562 q 1821 678 1808 640 q 1850 745 1834 715 q 1883 792 1865 774 q 1921 810 1900 810 z "},"":{"ha":1491,"x_min":89,"x_max":1607,"o":"m 1540 241 q 1503 153 1524 196 q 1454 76 1482 110 q 1392 21 1427 41 q 1315 0 1358 0 l 176 0 q 114 21 134 0 q 92 76 95 41 q 99 153 89 110 q 125 241 109 196 l 207 467 q 239 545 221 507 q 282 612 258 583 q 336 661 306 642 q 404 681 366 680 l 414 681 q 452 680 433 681 q 490 679 471 679 q 565 701 533 679 q 622 760 597 724 q 666 844 646 797 q 706 940 686 890 q 746 1036 725 989 q 794 1119 767 1082 q 857 1178 821 1156 q 939 1200 892 1200 l 1314 1200 q 1377 1180 1357 1200 q 1399 1125 1396 1159 q 1391 1048 1402 1092 q 1364 960 1381 1005 l 1308 804 q 1273 723 1293 763 q 1228 652 1253 684 q 1171 602 1202 621 q 1100 584 1139 583 q 1065 585 1082 584 q 1029 586 1047 586 q 959 567 990 586 q 902 518 927 549 q 858 447 877 487 q 823 366 838 408 l 739 136 q 729 102 733 119 q 726 72 725 85 q 735 50 727 58 q 759 41 743 41 q 802 60 783 41 q 836 111 820 79 q 866 182 851 142 q 896 264 880 222 q 931 346 912 306 q 976 417 951 386 q 1035 467 1002 448 q 1112 486 1068 486 l 1489 484 q 1551 463 1532 484 q 1573 408 1571 442 q 1566 331 1576 374 q 1540 243 1556 288 l 1540 241 m 931 1535 q 955 1591 941 1564 q 986 1640 968 1619 q 1026 1676 1004 1662 q 1076 1689 1048 1689 l 1551 1689 q 1591 1676 1579 1689 q 1605 1641 1603 1663 q 1601 1592 1607 1619 q 1584 1535 1594 1565 q 1559 1479 1573 1507 q 1528 1429 1546 1451 q 1488 1394 1510 1407 q 1438 1381 1466 1381 l 964 1382 q 925 1395 937 1382 q 910 1430 912 1409 q 915 1479 908 1451 q 931 1535 921 1506 z "},"":{"ha":768,"x_min":256,"x_max":1163,"o":"m 938 555 q 909 498 927 525 q 869 446 890 471 q 823 397 847 420 q 778 350 800 374 q 739 316 760 331 q 698 301 718 301 q 667 317 678 301 q 650 358 656 334 q 640 410 644 382 q 630 462 636 438 q 613 503 624 486 q 583 519 602 519 q 542 504 563 519 q 498 466 520 489 q 453 417 475 444 q 408 368 431 391 q 365 330 386 345 q 324 315 344 315 q 295 330 304 315 q 281 363 285 345 q 270 410 276 387 q 259 459 263 434 q 258 512 256 484 q 271 570 260 539 q 301 629 282 602 q 341 681 319 656 q 387 730 363 706 q 433 778 411 753 q 473 830 455 803 q 503 889 492 857 q 517 948 515 922 q 514 999 518 975 q 505 1044 511 1022 q 495 1089 498 1065 q 492 1139 491 1112 q 505 1197 494 1165 q 535 1256 517 1228 q 575 1309 553 1283 q 621 1358 597 1334 q 667 1404 644 1381 q 705 1438 684 1423 q 745 1452 726 1452 q 774 1438 764 1452 q 790 1403 785 1424 q 799 1358 795 1382 q 808 1312 803 1333 q 824 1277 814 1291 q 853 1263 834 1263 q 892 1277 872 1263 q 932 1311 911 1291 q 973 1355 952 1331 q 1014 1400 994 1379 q 1055 1434 1034 1420 q 1094 1447 1075 1447 q 1123 1433 1114 1447 q 1137 1400 1133 1418 q 1149 1352 1143 1376 q 1159 1303 1156 1329 q 1161 1251 1163 1278 q 1148 1192 1160 1223 q 1101 1108 1131 1144 q 1040 1040 1072 1073 q 979 972 1008 1007 q 932 889 949 937 q 919 827 920 856 q 922 773 918 799 q 935 722 927 747 q 947 672 943 698 q 951 617 952 646 q 938 555 950 589 z "},"":{"ha":876,"x_min":331,"x_max":1219,"o":"m 699 270 q 668 196 686 233 q 626 131 650 159 q 574 85 603 102 q 509 67 545 67 l 441 67 q 389 85 406 67 q 371 131 373 102 q 377 196 368 159 q 399 270 385 233 l 420 329 q 452 403 434 367 q 493 468 470 439 q 545 514 516 496 q 610 532 574 532 l 677 531 q 730 513 713 530 q 749 467 746 495 q 743 402 751 439 q 720 328 734 366 l 699 270 m 1122 1433 q 1091 1359 1109 1395 q 1049 1294 1073 1322 q 997 1248 1026 1265 q 932 1230 968 1230 l 865 1230 q 812 1248 829 1230 q 794 1294 796 1265 q 800 1359 791 1322 q 822 1433 808 1395 l 844 1492 q 875 1566 857 1530 q 917 1631 893 1603 q 969 1677 940 1659 q 1034 1695 998 1695 q 1116 1689 1083 1695 q 1163 1662 1149 1683 q 1173 1600 1177 1641 q 1143 1491 1168 1560 l 1122 1433 m 1169 864 q 1138 790 1156 827 q 1096 725 1120 753 q 1044 679 1073 696 q 979 661 1015 661 l 404 661 q 352 679 368 661 q 333 725 336 696 q 339 790 331 753 q 361 864 348 827 l 380 916 q 412 990 394 954 q 453 1056 430 1027 q 506 1102 477 1084 q 571 1120 535 1120 l 1145 1118 q 1197 1101 1181 1118 q 1216 1055 1213 1083 q 1210 990 1219 1026 q 1187 916 1202 954 l 1169 864 z "},"":{"ha":779,"x_min":696,"x_max":1312,"o":"m 724 1894 q 756 1967 736 1930 q 802 2036 777 2005 q 859 2087 828 2067 q 924 2106 890 2106 l 1082 2106 q 1131 2087 1115 2106 q 1150 2037 1147 2067 q 1146 1970 1153 2007 q 1126 1898 1139 1933 q 1106 1827 1114 1864 q 1103 1759 1099 1790 q 1122 1709 1106 1729 q 1171 1689 1137 1689 l 1239 1689 q 1289 1670 1273 1689 q 1309 1619 1305 1650 q 1305 1550 1312 1588 q 1284 1477 1297 1513 q 1251 1403 1272 1442 q 1205 1334 1231 1365 q 1147 1282 1179 1303 q 1082 1262 1116 1262 l 924 1262 q 876 1282 891 1262 q 857 1332 860 1301 q 861 1399 854 1362 q 880 1471 868 1436 q 900 1542 893 1506 q 904 1610 907 1579 q 885 1659 901 1640 q 836 1679 869 1679 l 768 1679 q 718 1699 734 1679 q 699 1751 702 1720 q 703 1821 696 1782 q 724 1894 711 1859 z "},"":{"ha":1485,"x_min":-296,"x_max":2026,"o":"m 1238 1689 q 1267 1678 1257 1689 q 1278 1648 1276 1666 q 1276 1607 1280 1630 q 1264 1564 1272 1585 l 749 146 q 740 113 743 130 q 739 82 737 96 q 747 59 740 68 q 770 50 755 50 q 799 59 785 50 q 824 82 812 68 q 845 113 836 96 q 859 146 854 130 l 1375 1564 q 1395 1607 1383 1585 q 1422 1648 1407 1630 q 1456 1678 1438 1666 q 1494 1689 1474 1689 l 1957 1689 q 2004 1670 1989 1689 q 2023 1622 2020 1651 q 2019 1557 2026 1592 q 1999 1487 2011 1521 l 1532 203 q 1500 133 1520 169 q 1457 67 1481 97 q 1403 19 1432 38 q 1341 0 1374 0 l 833 0 q 761 -23 795 0 q 697 -80 726 -45 q 645 -158 668 -115 q 608 -241 622 -201 q 576 -328 593 -283 q 540 -420 559 -374 q 498 -511 521 -466 q 446 -595 475 -555 q 382 -668 417 -635 q 303 -726 347 -702 l -212 -1003 q -236 -1014 -224 -1009 q -260 -1018 -248 -1018 q -289 -1003 -281 -1018 q -296 -965 -296 -987 q -289 -918 -295 -943 q -275 -873 -282 -893 l 578 1487 q 610 1557 591 1521 q 653 1622 629 1592 q 707 1670 677 1651 q 768 1689 736 1689 l 1238 1689 z "},"":{"ha":2256,"x_min":298,"x_max":2771,"o":"m 565 1450 q 602 1532 579 1490 q 654 1610 625 1575 q 718 1667 684 1645 q 791 1689 753 1689 l 1165 1689 q 1221 1667 1203 1689 q 1243 1610 1240 1645 q 1238 1532 1246 1575 q 1216 1450 1230 1490 l 738 136 q 729 104 732 121 q 727 74 726 87 q 736 51 729 60 q 758 41 743 41 q 787 51 773 41 q 812 74 800 60 q 832 104 823 87 q 847 136 842 121 l 1326 1450 q 1364 1532 1341 1490 q 1416 1610 1387 1575 q 1480 1667 1445 1645 q 1552 1689 1514 1689 l 1931 1689 q 1987 1667 1969 1689 q 2009 1610 2005 1645 q 2004 1532 2012 1575 q 1982 1450 1996 1490 l 1501 136 q 1492 103 1495 120 q 1491 73 1489 87 q 1500 50 1493 59 q 1522 41 1507 41 q 1550 50 1537 41 q 1575 73 1564 59 q 1596 103 1587 87 q 1611 136 1605 120 l 2089 1450 q 2126 1532 2103 1490 q 2178 1610 2149 1575 q 2242 1667 2207 1645 q 2315 1689 2277 1689 l 2690 1689 q 2746 1667 2728 1689 q 2768 1610 2764 1645 q 2763 1532 2771 1575 q 2740 1450 2755 1490 l 2300 241 q 2263 158 2286 201 q 2211 80 2240 115 q 2147 23 2182 45 q 2075 0 2112 0 l 612 0 q 549 12 578 0 q 494 44 519 24 q 451 93 469 65 q 422 152 433 121 l 316 471 q 300 556 303 509 q 303 654 298 603 q 320 759 308 706 q 351 862 333 812 l 565 1450 m 2140 2257 q 2086 2146 2115 2187 q 2026 2084 2058 2105 q 1959 2057 1994 2063 q 1884 2051 1923 2051 q 1840 2051 1862 2051 q 1794 2052 1818 2052 q 1747 2071 1762 2052 q 1728 2120 1731 2090 q 1732 2186 1725 2150 q 1752 2255 1740 2222 l 1822 2448 q 1859 2532 1837 2489 q 1908 2616 1881 2575 q 1967 2693 1935 2656 q 2034 2756 1999 2729 l 2294 2954 q 2324 2974 2308 2966 q 2355 2983 2340 2983 q 2376 2969 2372 2983 q 2378 2934 2380 2955 q 2370 2892 2376 2914 q 2358 2856 2363 2871 l 2140 2257 z "},"":{"ha":2256,"x_min":298,"x_max":2771,"o":"m 565 1450 q 602 1532 579 1490 q 654 1610 625 1575 q 718 1667 684 1645 q 791 1689 753 1689 l 1165 1689 q 1221 1667 1203 1689 q 1243 1610 1240 1645 q 1238 1532 1246 1575 q 1216 1450 1230 1490 l 738 136 q 729 104 732 121 q 727 74 726 87 q 736 51 729 60 q 758 41 743 41 q 787 51 773 41 q 812 74 800 60 q 832 104 823 87 q 847 136 842 121 l 1326 1450 q 1364 1532 1341 1490 q 1416 1610 1387 1575 q 1480 1667 1445 1645 q 1552 1689 1514 1689 l 1931 1689 q 1987 1667 1969 1689 q 2009 1610 2005 1645 q 2004 1532 2012 1575 q 1982 1450 1996 1490 l 1501 136 q 1492 103 1495 120 q 1491 73 1489 87 q 1500 50 1493 59 q 1522 41 1507 41 q 1550 50 1537 41 q 1575 73 1564 59 q 1596 103 1587 87 q 1611 136 1605 120 l 2089 1450 q 2126 1532 2103 1490 q 2178 1610 2149 1575 q 2242 1667 2207 1645 q 2315 1689 2277 1689 l 2690 1689 q 2746 1667 2728 1689 q 2768 1610 2764 1645 q 2763 1532 2771 1575 q 2740 1450 2755 1490 l 2300 241 q 2263 158 2286 201 q 2211 80 2240 115 q 2147 23 2182 45 q 2075 0 2112 0 l 612 0 q 549 12 578 0 q 494 44 519 24 q 451 93 469 65 q 422 152 433 121 l 316 471 q 300 556 303 509 q 303 654 298 603 q 320 759 308 706 q 351 862 333 812 l 565 1450 m 2140 2257 q 2086 2146 2115 2187 q 2026 2084 2058 2105 q 1959 2057 1994 2063 q 1884 2051 1923 2051 q 1840 2051 1862 2051 q 1794 2052 1818 2052 q 1747 2071 1762 2052 q 1728 2120 1731 2090 q 1732 2186 1725 2150 q 1752 2255 1740 2222 l 1822 2448 q 1859 2532 1837 2489 q 1908 2616 1881 2575 q 1967 2693 1935 2656 q 2034 2756 1999 2729 l 2294 2954 q 2324 2974 2308 2966 q 2355 2983 2340 2983 q 2376 2969 2372 2983 q 2378 2934 2380 2955 q 2370 2892 2376 2914 q 2358 2856 2363 2871 l 2140 2257 z "},"":{"ha":2256,"x_min":298,"x_max":2771,"o":"m 565 1450 q 602 1532 579 1490 q 654 1610 625 1575 q 718 1667 684 1645 q 791 1689 753 1689 l 1165 1689 q 1221 1667 1203 1689 q 1243 1610 1240 1645 q 1238 1532 1246 1575 q 1216 1450 1230 1490 l 738 136 q 729 104 732 121 q 727 74 726 87 q 736 51 729 60 q 758 41 743 41 q 787 51 773 41 q 812 74 800 60 q 832 104 823 87 q 847 136 842 121 l 1326 1450 q 1364 1532 1341 1490 q 1416 1610 1387 1575 q 1480 1667 1445 1645 q 1552 1689 1514 1689 l 1931 1689 q 1987 1667 1969 1689 q 2009 1610 2005 1645 q 2004 1532 2012 1575 q 1982 1450 1996 1490 l 1501 136 q 1492 103 1495 120 q 1491 73 1489 87 q 1500 50 1493 59 q 1522 41 1507 41 q 1550 50 1537 41 q 1575 73 1564 59 q 1596 103 1587 87 q 1611 136 1605 120 l 2089 1450 q 2126 1532 2103 1490 q 2178 1610 2149 1575 q 2242 1667 2207 1645 q 2315 1689 2277 1689 l 2690 1689 q 2746 1667 2728 1689 q 2768 1610 2764 1645 q 2763 1532 2771 1575 q 2740 1450 2755 1490 l 2300 241 q 2263 158 2286 201 q 2211 80 2240 115 q 2147 23 2182 45 q 2075 0 2112 0 l 612 0 q 549 12 578 0 q 494 44 519 24 q 451 93 469 65 q 422 152 433 121 l 316 471 q 300 556 303 509 q 303 654 298 603 q 320 759 308 706 q 351 862 333 812 l 565 1450 m 1943 2780 q 1996 2890 1968 2849 q 2055 2952 2024 2930 q 2121 2979 2086 2973 q 2193 2985 2155 2985 q 2239 2984 2216 2985 q 2287 2983 2262 2983 q 2335 2964 2320 2983 q 2354 2916 2351 2945 q 2350 2850 2357 2886 q 2330 2780 2342 2814 l 2260 2587 q 2224 2504 2245 2547 q 2175 2420 2202 2461 q 2116 2343 2148 2380 q 2049 2281 2084 2307 l 1788 2082 q 1758 2062 1775 2071 q 1727 2052 1742 2052 q 1706 2067 1710 2052 q 1704 2102 1702 2081 q 1713 2144 1706 2122 q 1725 2180 1719 2166 l 1943 2780 z "},"":{"ha":2256,"x_min":298,"x_max":2771,"o":"m 565 1450 q 602 1532 579 1490 q 654 1610 625 1575 q 718 1667 684 1645 q 791 1689 753 1689 l 1165 1689 q 1221 1667 1203 1689 q 1243 1610 1240 1645 q 1238 1532 1246 1575 q 1216 1450 1230 1490 l 738 136 q 729 104 732 121 q 727 74 726 87 q 736 51 729 60 q 758 41 743 41 q 787 51 773 41 q 812 74 800 60 q 832 104 823 87 q 847 136 842 121 l 1326 1450 q 1364 1532 1341 1490 q 1416 1610 1387 1575 q 1480 1667 1445 1645 q 1552 1689 1514 1689 l 1931 1689 q 1987 1667 1969 1689 q 2009 1610 2005 1645 q 2004 1532 2012 1575 q 1982 1450 1996 1490 l 1501 136 q 1492 103 1495 120 q 1491 73 1489 87 q 1500 50 1493 59 q 1522 41 1507 41 q 1550 50 1537 41 q 1575 73 1564 59 q 1596 103 1587 87 q 1611 136 1605 120 l 2089 1450 q 2126 1532 2103 1490 q 2178 1610 2149 1575 q 2242 1667 2207 1645 q 2315 1689 2277 1689 l 2690 1689 q 2746 1667 2728 1689 q 2768 1610 2764 1645 q 2763 1532 2771 1575 q 2740 1450 2755 1490 l 2300 241 q 2263 158 2286 201 q 2211 80 2240 115 q 2147 23 2182 45 q 2075 0 2112 0 l 612 0 q 549 12 578 0 q 494 44 519 24 q 451 93 469 65 q 422 152 433 121 l 316 471 q 300 556 303 509 q 303 654 298 603 q 320 759 308 706 q 351 862 333 812 l 565 1450 m 1943 2780 q 1996 2890 1968 2849 q 2055 2952 2024 2930 q 2121 2979 2086 2973 q 2193 2985 2155 2985 q 2239 2984 2216 2985 q 2287 2983 2262 2983 q 2335 2964 2320 2983 q 2354 2916 2351 2945 q 2350 2850 2357 2886 q 2330 2780 2342 2814 l 2260 2587 q 2224 2504 2245 2547 q 2175 2420 2202 2461 q 2116 2343 2148 2380 q 2049 2281 2084 2307 l 1788 2082 q 1758 2062 1775 2071 q 1727 2052 1742 2052 q 1706 2067 1710 2052 q 1704 2102 1702 2081 q 1713 2144 1706 2122 q 1725 2180 1719 2166 l 1943 2780 z "},"":{"ha":2256,"x_min":298,"x_max":2771,"o":"m 565 1450 q 602 1532 579 1490 q 654 1610 625 1575 q 718 1667 684 1645 q 791 1689 753 1689 l 1165 1689 q 1221 1667 1203 1689 q 1243 1610 1240 1645 q 1238 1532 1246 1575 q 1216 1450 1230 1490 l 738 136 q 729 104 732 121 q 727 74 726 87 q 736 51 729 60 q 758 41 743 41 q 787 51 773 41 q 812 74 800 60 q 832 104 823 87 q 847 136 842 121 l 1326 1450 q 1364 1532 1341 1490 q 1416 1610 1387 1575 q 1480 1667 1445 1645 q 1552 1689 1514 1689 l 1931 1689 q 1987 1667 1969 1689 q 2009 1610 2005 1645 q 2004 1532 2012 1575 q 1982 1450 1996 1490 l 1501 136 q 1492 103 1495 120 q 1491 73 1489 87 q 1500 50 1493 59 q 1522 41 1507 41 q 1550 50 1537 41 q 1575 73 1564 59 q 1596 103 1587 87 q 1611 136 1605 120 l 2089 1450 q 2126 1532 2103 1490 q 2178 1610 2149 1575 q 2242 1667 2207 1645 q 2315 1689 2277 1689 l 2690 1689 q 2746 1667 2728 1689 q 2768 1610 2764 1645 q 2763 1532 2771 1575 q 2740 1450 2755 1490 l 2300 241 q 2263 158 2286 201 q 2211 80 2240 115 q 2147 23 2182 45 q 2075 0 2112 0 l 612 0 q 549 12 578 0 q 494 44 519 24 q 451 93 469 65 q 422 152 433 121 l 316 471 q 300 556 303 509 q 303 654 298 603 q 320 759 308 706 q 351 862 333 812 l 565 1450 m 1869 2255 q 1837 2186 1857 2222 q 1794 2120 1818 2150 q 1740 2071 1769 2090 q 1678 2052 1711 2052 l 1525 2052 q 1477 2071 1492 2052 q 1458 2120 1461 2090 q 1462 2186 1455 2150 q 1482 2255 1470 2222 l 1552 2448 q 1584 2518 1565 2482 q 1628 2584 1603 2554 q 1681 2633 1652 2614 q 1743 2652 1710 2652 q 1790 2652 1767 2652 q 1836 2653 1814 2653 q 1905 2647 1874 2653 q 1951 2620 1935 2641 q 1966 2558 1967 2599 q 1940 2448 1965 2517 l 1869 2255 m 2409 2255 q 2377 2186 2397 2222 q 2334 2120 2358 2150 q 2280 2071 2309 2090 q 2218 2052 2251 2052 l 2064 2052 q 2017 2071 2032 2052 q 1998 2120 2001 2090 q 2002 2186 1995 2150 q 2022 2255 2009 2222 l 2092 2448 q 2124 2518 2104 2482 q 2167 2584 2143 2554 q 2221 2633 2192 2614 q 2283 2652 2250 2652 q 2330 2652 2306 2652 q 2376 2653 2354 2653 q 2445 2647 2414 2653 q 2491 2620 2475 2641 q 2506 2558 2507 2599 q 2479 2448 2504 2517 l 2409 2255 z "},"":{"ha":2256,"x_min":298,"x_max":2771,"o":"m 565 1450 q 602 1532 579 1490 q 654 1610 625 1575 q 718 1667 684 1645 q 791 1689 753 1689 l 1165 1689 q 1221 1667 1203 1689 q 1243 1610 1240 1645 q 1238 1532 1246 1575 q 1216 1450 1230 1490 l 738 136 q 729 104 732 121 q 727 74 726 87 q 736 51 729 60 q 758 41 743 41 q 787 51 773 41 q 812 74 800 60 q 832 104 823 87 q 847 136 842 121 l 1326 1450 q 1364 1532 1341 1490 q 1416 1610 1387 1575 q 1480 1667 1445 1645 q 1552 1689 1514 1689 l 1931 1689 q 1987 1667 1969 1689 q 2009 1610 2005 1645 q 2004 1532 2012 1575 q 1982 1450 1996 1490 l 1501 136 q 1492 103 1495 120 q 1491 73 1489 87 q 1500 50 1493 59 q 1522 41 1507 41 q 1550 50 1537 41 q 1575 73 1564 59 q 1596 103 1587 87 q 1611 136 1605 120 l 2089 1450 q 2126 1532 2103 1490 q 2178 1610 2149 1575 q 2242 1667 2207 1645 q 2315 1689 2277 1689 l 2690 1689 q 2746 1667 2728 1689 q 2768 1610 2764 1645 q 2763 1532 2771 1575 q 2740 1450 2755 1490 l 2300 241 q 2263 158 2286 201 q 2211 80 2240 115 q 2147 23 2182 45 q 2075 0 2112 0 l 612 0 q 549 12 578 0 q 494 44 519 24 q 451 93 469 65 q 422 152 433 121 l 316 471 q 300 556 303 509 q 303 654 298 603 q 320 759 308 706 q 351 862 333 812 l 565 1450 m 1869 2255 q 1837 2186 1857 2222 q 1794 2120 1818 2150 q 1740 2071 1769 2090 q 1678 2052 1711 2052 l 1525 2052 q 1477 2071 1492 2052 q 1458 2120 1461 2090 q 1462 2186 1455 2150 q 1482 2255 1470 2222 l 1552 2448 q 1584 2518 1565 2482 q 1628 2584 1603 2554 q 1681 2633 1652 2614 q 1743 2652 1710 2652 q 1790 2652 1767 2652 q 1836 2653 1814 2653 q 1905 2647 1874 2653 q 1951 2620 1935 2641 q 1966 2558 1967 2599 q 1940 2448 1965 2517 l 1869 2255 m 2409 2255 q 2377 2186 2397 2222 q 2334 2120 2358 2150 q 2280 2071 2309 2090 q 2218 2052 2251 2052 l 2064 2052 q 2017 2071 2032 2052 q 1998 2120 2001 2090 q 2002 2186 1995 2150 q 2022 2255 2009 2222 l 2092 2448 q 2124 2518 2104 2482 q 2167 2584 2143 2554 q 2221 2633 2192 2614 q 2283 2652 2250 2652 q 2330 2652 2306 2652 q 2376 2653 2354 2653 q 2445 2647 2414 2653 q 2491 2620 2475 2641 q 2506 2558 2507 2599 q 2479 2448 2504 2517 l 2409 2255 z "},"":{"ha":1183,"x_min":311,"x_max":1537,"o":"m 1442 819 q 1408 746 1428 782 q 1361 681 1387 709 q 1304 634 1335 652 q 1239 616 1273 616 l 391 616 q 339 634 357 616 q 316 681 321 652 q 317 746 311 709 q 336 819 323 782 l 406 1013 q 440 1086 420 1050 q 487 1151 461 1122 q 544 1197 513 1179 q 609 1215 575 1215 l 1457 1214 q 1509 1196 1491 1214 q 1532 1150 1527 1179 q 1531 1085 1537 1121 q 1512 1011 1525 1048 l 1442 819 z "},"":{"ha":1436,"x_min":311,"x_max":1770,"o":"m 1674 812 q 1642 743 1662 779 q 1598 677 1623 707 q 1545 629 1574 648 q 1483 610 1516 610 l 380 610 q 332 629 347 610 q 314 677 317 648 q 318 743 311 707 q 337 812 325 779 l 408 1006 q 439 1075 420 1040 q 482 1140 458 1111 q 536 1189 507 1170 q 597 1208 565 1208 l 1701 1206 q 1749 1187 1733 1206 q 1767 1139 1764 1168 q 1763 1074 1770 1109 q 1744 1004 1756 1038 l 1674 812 z "},"":{"ha":469,"x_min":351,"x_max":1005,"o":"m 764 932 q 711 822 739 863 q 652 760 683 781 q 587 732 621 739 q 514 726 552 726 q 468 727 492 726 q 420 728 445 728 q 372 747 387 728 q 354 796 357 766 q 358 861 351 825 q 377 931 365 897 l 447 1124 q 484 1207 462 1164 q 533 1292 505 1251 q 592 1369 560 1333 q 659 1432 624 1405 l 919 1630 q 949 1650 932 1640 q 979 1659 965 1659 q 1001 1645 996 1659 q 1003 1610 1005 1630 q 995 1568 1001 1590 q 983 1532 988 1546 l 764 932 z "},"":{"ha":469,"x_min":342,"x_max":997,"o":"m 583 1496 q 636 1607 608 1566 q 696 1669 665 1648 q 764 1696 728 1690 q 838 1702 799 1702 q 882 1702 860 1702 q 928 1701 904 1701 q 976 1682 960 1701 q 994 1633 991 1663 q 990 1568 997 1603 q 970 1498 983 1532 l 900 1305 q 864 1222 886 1265 q 814 1138 842 1179 q 755 1060 787 1097 q 688 997 723 1023 l 429 799 q 398 779 414 787 q 368 770 382 770 q 346 784 351 770 q 344 819 342 798 q 353 861 346 839 q 365 897 359 882 l 583 1496 z "},"":{"ha":465,"x_min":72,"x_max":597,"o":"m 350 -205 q 335 -241 345 -220 q 314 -283 326 -263 q 286 -318 301 -304 q 254 -332 271 -332 q 231 -323 240 -332 q 215 -302 221 -314 l 99 -105 q 78 -42 83 -79 q 75 35 72 -6 q 87 119 77 76 q 111 203 96 163 l 182 396 q 213 466 194 430 q 256 531 232 501 q 310 580 281 561 q 372 599 339 599 q 421 600 397 599 q 467 601 445 601 q 535 595 505 601 q 581 567 566 589 q 595 505 597 546 q 568 395 593 465 l 350 -205 z "},"":{"ha":1025,"x_min":351,"x_max":1556,"o":"m 764 932 q 711 822 739 863 q 652 760 683 781 q 587 732 621 739 q 514 726 552 726 q 468 727 492 726 q 420 728 445 728 q 372 747 387 728 q 354 796 357 766 q 358 861 351 825 q 377 931 365 897 l 447 1124 q 484 1207 462 1164 q 533 1292 505 1251 q 592 1369 560 1333 q 659 1432 624 1405 l 919 1630 q 949 1650 932 1640 q 979 1659 965 1659 q 1001 1645 996 1659 q 1003 1610 1005 1630 q 995 1568 1001 1590 q 983 1532 988 1546 l 764 932 m 1315 932 q 1262 822 1290 863 q 1203 760 1234 781 q 1137 732 1172 739 q 1065 726 1103 726 q 1019 727 1042 726 q 970 728 996 728 q 923 747 938 728 q 904 796 907 766 q 908 861 901 825 q 928 931 916 897 l 998 1124 q 1034 1207 1013 1164 q 1083 1292 1056 1251 q 1143 1369 1111 1333 q 1209 1432 1175 1405 l 1470 1630 q 1499 1650 1483 1640 q 1530 1659 1516 1659 q 1551 1645 1547 1659 q 1554 1610 1556 1630 q 1545 1568 1552 1590 q 1533 1532 1539 1546 l 1315 932 z "},"":{"ha":937,"x_min":342,"x_max":1468,"o":"m 583 1496 q 636 1607 608 1566 q 696 1669 665 1648 q 764 1696 728 1690 q 838 1702 799 1702 q 882 1702 860 1702 q 928 1701 904 1701 q 976 1682 960 1701 q 994 1633 991 1663 q 990 1568 997 1603 q 970 1498 983 1532 l 900 1305 q 864 1222 886 1265 q 814 1138 842 1179 q 755 1060 787 1097 q 688 997 723 1023 l 429 799 q 398 779 414 787 q 368 770 382 770 q 346 784 351 770 q 344 819 342 798 q 353 861 346 839 q 365 897 359 882 l 583 1496 m 1054 1496 q 1108 1607 1080 1566 q 1168 1669 1136 1648 q 1235 1696 1200 1690 q 1310 1702 1270 1702 q 1353 1702 1331 1702 q 1399 1701 1375 1701 q 1447 1682 1432 1701 q 1465 1633 1462 1663 q 1461 1568 1468 1603 q 1442 1498 1454 1532 l 1371 1305 q 1335 1222 1357 1265 q 1286 1138 1313 1179 q 1226 1060 1259 1097 q 1160 997 1194 1023 l 900 799 q 869 779 886 787 q 839 770 853 770 q 818 784 822 770 q 815 819 813 798 q 824 861 817 839 q 836 897 831 882 l 1054 1496 z "},"":{"ha":977,"x_min":91,"x_max":1078,"o":"m 368 -209 q 354 -245 363 -223 q 332 -287 345 -267 q 304 -321 319 -307 q 273 -336 290 -336 q 249 -327 258 -336 q 233 -306 239 -317 l 117 -109 q 96 -46 102 -82 q 93 32 91 -9 q 105 116 96 73 q 130 199 115 159 l 200 393 q 232 462 212 427 q 275 528 251 498 q 329 576 300 557 q 391 595 358 595 q 440 596 416 595 q 486 597 464 597 q 555 591 525 597 q 600 564 585 585 q 614 502 616 543 q 587 391 612 460 l 368 -209 m 830 -209 q 815 -245 825 -223 q 794 -287 806 -267 q 766 -321 781 -307 q 734 -336 751 -336 q 711 -327 720 -336 q 695 -306 701 -317 l 579 -109 q 558 -46 564 -82 q 555 32 553 -9 q 567 116 557 73 q 591 199 576 159 l 662 393 q 693 462 674 427 q 737 528 713 498 q 791 576 762 557 q 852 595 820 595 q 902 596 878 595 q 948 597 926 597 q 1017 591 987 597 q 1062 564 1046 585 q 1076 502 1078 543 q 1048 391 1074 460 l 830 -209 z "},"":{"ha":1617,"x_min":399,"x_max":2151,"o":"m 694 1714 q 794 1721 741 1717 q 904 1733 848 1725 q 1017 1755 960 1741 q 1132 1793 1075 1769 q 1243 1853 1189 1817 q 1347 1940 1297 1889 q 1422 2032 1385 1980 q 1495 2147 1459 2085 q 1563 2278 1530 2209 q 1628 2417 1596 2346 q 1687 2558 1659 2488 q 1742 2695 1716 2629 q 1791 2822 1767 2762 q 1834 2930 1814 2882 q 1782 2776 1811 2862 q 1724 2596 1753 2690 q 1670 2406 1695 2502 q 1628 2220 1644 2310 q 1607 2053 1611 2131 q 1617 1919 1603 1976 q 1653 1837 1628 1871 q 1712 1781 1678 1804 q 1788 1744 1746 1758 q 1874 1724 1829 1731 q 1965 1714 1919 1716 q 2055 1712 2011 1712 q 2151 1714 2102 1712 q 2047 1706 2103 1710 q 1932 1694 1992 1702 q 1810 1674 1872 1687 q 1688 1639 1748 1662 q 1571 1584 1628 1617 q 1465 1501 1514 1550 q 1388 1391 1434 1470 q 1288 1198 1343 1312 q 1172 941 1234 1084 q 1044 641 1109 799 q 912 315 979 482 q 782 -16 846 148 q 659 -333 718 -180 q 550 -617 600 -487 q 462 -849 500 -748 q 399 -1010 423 -951 q 454 -848 419 -950 q 535 -615 490 -746 q 634 -330 581 -484 q 744 -13 688 -176 q 856 318 800 151 q 963 644 912 486 q 1057 945 1014 802 q 1130 1202 1100 1088 q 1175 1396 1160 1316 q 1183 1508 1190 1476 q 1146 1600 1173 1563 q 1080 1660 1119 1637 q 995 1694 1042 1683 q 897 1710 947 1706 q 793 1715 846 1715 q 694 1714 741 1714 z "},"":{"ha":1617,"x_min":145,"x_max":2151,"o":"m 694 1714 q 794 1721 741 1718 q 904 1733 848 1725 q 1018 1755 960 1741 q 1133 1793 1076 1769 q 1244 1853 1190 1817 q 1347 1940 1298 1889 q 1448 2070 1399 1994 q 1541 2234 1496 2146 q 1627 2417 1586 2322 q 1705 2604 1668 2512 q 1774 2780 1742 2696 q 1834 2930 1807 2864 q 1782 2772 1811 2858 q 1724 2594 1753 2686 q 1670 2406 1695 2501 q 1627 2223 1644 2312 q 1607 2057 1611 2135 q 1617 1919 1603 1978 q 1653 1837 1628 1871 q 1711 1781 1677 1804 q 1787 1744 1746 1758 q 1874 1724 1829 1731 q 1965 1714 1919 1716 q 2055 1712 2011 1712 q 2151 1714 2102 1712 q 2049 1705 2105 1710 q 1933 1693 1993 1701 q 1809 1673 1872 1686 q 1686 1639 1746 1661 q 1568 1583 1625 1617 q 1465 1501 1512 1550 q 1432 1459 1451 1487 q 1393 1397 1413 1432 q 1350 1321 1372 1362 q 1306 1237 1328 1280 q 1265 1153 1285 1195 q 1228 1075 1244 1112 q 1199 1008 1211 1038 q 1179 960 1186 979 q 1158 892 1171 936 q 1131 795 1145 848 q 1105 684 1118 742 q 1083 575 1093 627 q 1070 482 1074 523 q 1072 420 1067 441 q 1115 339 1083 372 q 1192 283 1147 305 q 1290 248 1236 261 q 1399 228 1344 235 q 1507 215 1454 220 q 1603 206 1560 211 q 1550 208 1577 208 q 1494 209 1523 209 q 1352 202 1426 209 q 1203 173 1278 195 q 1056 111 1128 151 q 920 3 984 70 q 809 -135 862 -56 q 708 -302 756 -213 q 617 -485 661 -391 q 536 -672 574 -580 q 463 -851 497 -765 q 399 -1010 429 -938 q 436 -900 415 -960 q 479 -774 456 -840 q 524 -637 501 -707 q 568 -496 547 -566 q 605 -357 588 -425 q 631 -227 621 -289 q 643 -112 641 -165 q 635 -18 644 -58 q 595 69 623 33 q 527 128 566 104 q 439 166 487 152 q 341 188 392 180 q 240 199 291 196 q 145 206 190 203 q 244 206 192 206 q 350 211 296 206 q 461 227 405 216 q 573 261 517 238 q 682 321 629 284 q 785 412 736 357 q 828 474 803 433 q 882 569 854 516 q 938 681 909 623 q 991 794 966 740 q 1035 892 1016 848 q 1062 960 1053 937 q 1084 1029 1071 985 q 1113 1127 1098 1073 q 1141 1240 1127 1181 q 1166 1352 1156 1299 q 1182 1446 1177 1404 q 1183 1508 1187 1488 q 1147 1600 1175 1563 q 1082 1659 1120 1636 q 995 1694 1043 1683 q 896 1710 947 1706 q 792 1714 844 1714 q 694 1714 741 1714 z "},"":{"ha":624,"x_min":329,"x_max":932,"o":"m 382 870 q 424 969 400 918 q 478 1067 448 1019 q 542 1158 507 1115 q 616 1232 577 1200 q 698 1283 655 1264 q 787 1301 741 1301 q 863 1283 833 1301 q 908 1232 892 1264 q 928 1158 924 1200 q 927 1067 932 1115 q 909 968 922 1019 q 879 870 897 918 q 837 771 861 822 q 784 673 813 721 q 719 582 754 625 q 645 507 684 539 q 563 457 606 475 q 473 438 519 438 q 398 457 427 438 q 352 507 368 475 q 333 582 336 539 q 334 673 329 625 q 352 771 339 721 q 382 870 365 822 z "},"":{"ha":1634,"x_min":85,"x_max":1764,"o":"m 498 203 q 467 133 486 169 q 423 67 448 97 q 370 19 399 38 q 308 0 340 0 l 154 0 q 106 19 121 0 q 88 67 91 38 q 92 133 85 97 q 111 203 99 169 l 182 396 q 213 466 194 430 q 256 531 232 501 q 310 580 281 561 q 372 599 339 599 q 421 600 397 599 q 467 601 445 601 q 535 595 505 601 q 581 567 566 589 q 595 505 597 546 q 568 395 593 465 l 498 203 m 1097 203 q 1066 133 1085 169 q 1022 67 1046 97 q 968 19 998 38 q 907 0 939 0 l 753 0 q 705 19 720 0 q 687 67 690 38 q 691 133 684 97 q 710 203 698 169 l 781 396 q 812 466 793 430 q 855 531 831 501 q 909 580 880 561 q 970 599 938 599 q 1020 600 996 599 q 1066 601 1044 601 q 1134 595 1104 601 q 1180 567 1164 589 q 1194 505 1196 546 q 1167 395 1192 465 l 1097 203 m 1666 203 q 1634 133 1653 169 q 1590 67 1615 97 q 1537 19 1566 38 q 1475 0 1508 0 l 1321 0 q 1273 19 1289 0 q 1255 67 1258 38 q 1259 133 1252 97 q 1278 203 1266 169 l 1349 396 q 1380 466 1361 430 q 1423 531 1399 501 q 1477 580 1448 561 q 1539 599 1506 599 q 1588 600 1564 599 q 1634 601 1612 601 q 1703 595 1672 601 q 1748 567 1733 589 q 1762 505 1764 546 q 1735 395 1761 465 l 1666 203 z "},"":{"ha":1763,"x_min":282,"x_max":1882,"o":"m 1598 1590 q 1579 1545 1590 1567 q 1555 1501 1568 1523 l 779 189 q 731 117 756 151 q 677 57 705 83 q 617 15 648 31 q 551 0 585 0 l 351 0 q 296 24 310 0 q 302 101 282 48 q 321 145 310 123 q 345 189 332 167 l 1122 1502 q 1170 1574 1144 1540 q 1224 1635 1195 1609 q 1284 1676 1253 1661 q 1350 1691 1316 1691 q 1450 1690 1400 1691 q 1550 1689 1499 1689 q 1604 1666 1590 1689 q 1598 1590 1617 1642 m 898 1295 q 866 1221 884 1257 q 825 1156 848 1185 q 772 1110 802 1128 q 707 1093 743 1093 l 553 1093 q 501 1110 517 1093 q 483 1156 485 1128 q 489 1221 480 1185 q 511 1295 497 1257 l 581 1489 q 613 1563 595 1527 q 654 1628 631 1599 q 707 1674 677 1656 q 772 1691 736 1691 q 848 1690 810 1691 q 925 1689 886 1689 q 977 1672 961 1689 q 996 1626 994 1655 q 990 1561 998 1598 q 968 1487 981 1525 l 898 1295 m 1316 203 q 1285 129 1303 165 q 1243 64 1267 92 q 1191 18 1220 35 q 1126 0 1162 0 l 972 0 q 920 18 936 0 q 901 64 903 35 q 907 129 899 92 q 929 203 916 165 l 1000 396 q 1031 470 1013 434 q 1073 535 1049 507 q 1125 581 1096 564 q 1190 599 1154 599 q 1248 600 1220 599 q 1301 602 1276 602 q 1365 595 1337 602 q 1406 567 1392 589 q 1415 505 1419 546 q 1386 395 1411 464 l 1316 203 m 1780 203 q 1748 129 1766 165 q 1707 64 1730 92 q 1654 18 1683 35 q 1589 0 1625 0 l 1435 0 q 1383 18 1399 0 q 1364 64 1367 35 q 1370 129 1362 92 q 1392 203 1379 165 l 1463 396 q 1494 470 1476 434 q 1536 535 1512 507 q 1588 581 1559 564 q 1653 599 1617 599 q 1711 600 1683 599 q 1764 602 1739 602 q 1828 595 1801 602 q 1869 567 1855 589 q 1878 505 1882 546 q 1849 395 1874 464 l 1780 203 z "},"":{"ha":842,"x_min":325,"x_max":1242,"o":"m 1235 1352 q 1208 1300 1225 1325 q 1174 1253 1192 1275 l 861 877 q 814 808 835 844 q 779 735 793 772 q 761 648 762 688 q 767 574 760 608 q 787 511 774 540 q 810 455 800 481 q 825 404 821 429 q 820 353 829 378 q 804 328 814 338 q 782 314 793 319 q 758 307 770 309 q 736 305 746 305 l 557 305 q 498 316 526 305 q 448 345 471 327 q 407 388 425 363 q 380 441 390 413 q 354 507 368 475 q 333 573 340 538 q 326 647 325 608 q 345 735 328 686 q 379 808 359 772 q 427 876 400 844 l 741 1254 q 802 1318 768 1287 q 870 1373 835 1350 q 941 1412 905 1397 q 1009 1426 977 1426 l 1189 1425 q 1215 1421 1203 1425 q 1234 1409 1227 1417 q 1242 1386 1241 1400 q 1235 1352 1242 1372 z "},"":{"ha":867,"x_min":125,"x_max":1043,"o":"m 132 75 q 159 125 142 100 q 194 173 176 151 l 507 549 q 554 618 533 582 q 589 691 575 654 q 607 779 606 739 q 601 852 608 819 q 581 916 593 886 q 557 971 568 945 q 543 1022 547 998 q 547 1072 538 1047 q 564 1098 553 1088 q 586 1113 574 1107 q 610 1119 597 1118 q 631 1121 622 1121 l 811 1121 q 870 1110 842 1121 q 920 1081 897 1099 q 960 1038 943 1063 q 987 984 977 1013 q 1013 919 1000 951 q 1035 852 1027 887 q 1042 779 1043 818 q 1023 691 1040 739 q 988 618 1009 654 q 941 550 967 583 l 627 172 q 566 108 600 139 q 497 53 533 77 q 426 15 462 29 q 358 0 391 0 l 178 1 q 152 5 164 1 q 134 17 140 9 q 126 40 127 26 q 132 75 125 54 z "},"":{"ha":919,"x_min":98,"x_max":1409,"o":"m 1395 1575 q 1378 1538 1388 1556 q 1358 1501 1369 1519 l 582 189 q 536 121 562 155 q 479 60 509 87 q 417 17 449 33 q 354 0 385 0 l 154 0 q 120 8 133 0 q 103 32 108 17 q 101 68 98 47 q 113 115 104 90 q 129 152 119 133 q 149 189 138 171 l 925 1502 q 972 1570 945 1536 q 1028 1631 998 1604 q 1090 1675 1059 1658 q 1154 1691 1122 1691 q 1253 1690 1204 1691 q 1353 1689 1303 1689 q 1387 1681 1374 1689 q 1404 1657 1399 1672 q 1406 1621 1409 1642 q 1395 1575 1404 1600 z "},"":{"ha":1670,"x_min":203,"x_max":2206,"o":"m 1811 795 q 1859 777 1844 795 q 1878 728 1874 758 q 1873 662 1881 698 q 1854 593 1866 627 l 1712 203 q 1681 133 1700 169 q 1637 67 1662 97 q 1584 19 1613 38 q 1522 0 1554 0 l 337 0 q 289 17 303 0 q 274 59 275 33 q 279 116 272 85 q 293 178 286 148 q 304 234 300 208 q 300 272 308 259 l 203 457 l 457 698 q 490 739 475 715 q 513 786 504 763 q 530 831 520 807 q 548 881 540 856 q 558 928 555 905 q 555 969 562 951 l 476 1206 l 709 1396 q 743 1436 728 1412 q 766 1481 758 1459 q 797 1552 778 1516 q 841 1619 817 1589 q 896 1670 866 1650 q 958 1689 925 1689 l 2137 1689 q 2185 1670 2169 1689 q 2203 1622 2200 1651 q 2199 1557 2206 1592 q 2180 1487 2192 1521 l 2045 1118 q 2014 1048 2033 1084 q 1970 982 1994 1012 q 1917 934 1946 953 q 1855 915 1887 915 l 1438 915 q 1391 934 1406 915 q 1372 982 1375 953 q 1376 1048 1369 1012 q 1396 1118 1383 1084 l 1554 1552 q 1563 1585 1559 1568 q 1565 1616 1566 1602 q 1556 1639 1563 1630 q 1534 1649 1549 1649 q 1505 1639 1519 1649 q 1479 1616 1491 1630 q 1458 1585 1468 1602 q 1443 1552 1449 1568 l 931 146 q 923 113 926 130 q 921 82 920 96 q 930 59 922 68 q 952 50 937 50 q 981 59 967 50 q 1006 82 995 68 q 1027 113 1018 96 q 1042 145 1036 130 l 1204 593 q 1236 662 1217 627 q 1280 728 1255 698 q 1333 777 1304 758 q 1395 795 1362 795 l 1811 795 z "},"":{"ha":1168,"x_min":391,"x_max":1723,"o":"m 652 1674 q 660 1685 654 1680 q 670 1689 665 1689 l 968 1689 q 974 1676 979 1689 q 966 1663 971 1668 q 954 1657 960 1657 q 940 1656 947 1657 q 928 1652 934 1655 q 918 1643 923 1649 q 909 1626 913 1637 l 676 985 q 645 931 666 958 q 600 891 625 905 q 577 877 593 887 q 542 856 562 867 q 499 831 522 844 q 458 807 477 818 q 424 790 439 797 q 404 783 410 783 q 394 787 397 783 q 391 798 391 791 q 393 811 391 804 q 397 825 395 818 l 690 1630 q 693 1645 694 1640 q 690 1654 693 1651 q 683 1657 687 1657 q 673 1658 678 1658 q 663 1658 668 1658 q 655 1659 658 1658 q 651 1664 652 1661 q 652 1674 650 1668 m 1506 1645 q 1509 1667 1509 1655 q 1499 1678 1509 1678 q 1480 1667 1488 1678 q 1468 1645 1472 1655 l 1306 1200 q 1294 1173 1301 1187 q 1276 1146 1286 1158 q 1255 1127 1267 1135 q 1230 1120 1243 1120 l 1103 1120 q 1084 1127 1090 1120 q 1076 1146 1078 1135 q 1078 1173 1075 1158 q 1085 1200 1080 1187 l 1249 1647 q 1251 1668 1252 1657 q 1240 1678 1251 1678 q 1223 1667 1231 1678 q 1211 1647 1215 1657 l 1048 1200 q 1036 1173 1044 1187 q 1018 1147 1028 1158 q 997 1127 1008 1135 q 972 1120 985 1120 l 846 1120 q 827 1127 833 1120 q 819 1146 821 1135 q 821 1173 818 1158 q 828 1200 823 1187 l 977 1610 q 990 1638 983 1624 q 1007 1665 998 1653 q 1029 1684 1017 1676 q 1054 1692 1041 1692 l 1696 1692 q 1715 1684 1709 1692 q 1722 1664 1721 1676 q 1721 1638 1723 1652 q 1713 1610 1718 1624 l 1432 837 q 1426 821 1430 830 q 1416 803 1421 812 q 1403 789 1410 795 q 1389 783 1396 783 q 1373 792 1379 783 l 1279 909 q 1269 932 1272 919 q 1266 962 1265 946 q 1270 994 1267 977 q 1280 1027 1274 1010 l 1506 1645 z "},"":{"ha":1072,"x_min":307,"x_max":1428,"o":"m 1331 810 q 1300 741 1319 777 q 1256 675 1280 705 q 1202 627 1232 646 q 1141 608 1173 608 l 376 608 q 328 627 343 608 q 310 675 313 646 q 314 741 307 705 q 333 810 321 777 l 404 1004 q 435 1074 416 1038 q 479 1139 454 1109 q 532 1187 503 1168 q 594 1206 562 1206 l 1358 1206 q 1406 1187 1391 1206 q 1424 1138 1421 1168 q 1420 1073 1428 1108 q 1401 1003 1413 1037 l 1331 810 z "},"":{"ha":1679,"x_min":-100,"x_max":2230,"o":"m 1725 203 q 1694 129 1712 165 q 1652 64 1676 92 q 1600 18 1629 35 q 1535 0 1571 0 l 1116 0 q 1063 18 1080 0 q 1044 64 1047 35 q 1050 129 1042 92 q 1073 203 1059 165 l 1544 1495 q 1572 1564 1556 1529 q 1611 1628 1588 1598 l 1398 1628 q 1333 1611 1362 1628 q 1281 1565 1304 1594 q 1239 1500 1257 1537 q 1208 1426 1221 1464 l 372 -872 q 357 -910 366 -886 q 335 -956 347 -933 q 307 -994 322 -978 q 274 -1010 292 -1010 q 248 -1000 259 -1010 q 229 -979 237 -990 l -66 -567 q -93 -506 -85 -540 q -99 -435 -100 -473 q -87 -355 -97 -397 q -60 -269 -77 -313 l 863 2268 q 895 2343 877 2306 q 936 2407 913 2379 q 988 2454 960 2436 q 1053 2471 1017 2471 l 1797 2471 q 1804 2465 1804 2471 q 1801 2451 1804 2458 q 1794 2437 1799 2443 q 1782 2430 1790 2430 l 1690 2430 q 1625 2412 1654 2430 q 1573 2366 1596 2395 q 1532 2301 1550 2338 q 1499 2227 1514 2265 l 1381 1902 q 1359 1828 1368 1864 q 1353 1763 1351 1791 q 1372 1716 1356 1734 q 1424 1699 1388 1699 l 2125 1699 q 2192 1687 2168 1699 q 2223 1649 2216 1674 q 2222 1586 2230 1624 q 2195 1495 2214 1547 l 1725 203 z "},"":{"ha":1688,"x_min":-100,"x_max":2399,"o":"m 2023 2686 q 2049 2677 2038 2686 q 2068 2657 2060 2668 l 2364 2245 q 2391 2184 2384 2218 q 2397 2113 2399 2151 q 2384 2034 2395 2075 q 2358 1948 2374 1992 l 1710 197 q 1678 122 1696 159 q 1636 58 1659 86 q 1584 12 1613 29 q 1518 -6 1554 -6 l 1099 -6 q 1047 12 1063 -6 q 1028 58 1031 29 q 1034 122 1025 86 q 1057 197 1043 159 l 1585 1628 l 1398 1628 q 1333 1611 1362 1628 q 1281 1565 1304 1594 q 1239 1500 1257 1537 q 1208 1426 1221 1464 l 372 -872 q 357 -910 366 -886 q 335 -956 347 -933 q 307 -994 322 -978 q 274 -1010 292 -1010 q 248 -1000 259 -1010 q 229 -979 237 -990 l -66 -567 q -93 -506 -85 -540 q -99 -435 -100 -473 q -87 -355 -97 -397 q -60 -269 -77 -313 l 863 2268 q 895 2343 877 2306 q 936 2407 913 2379 q 988 2454 960 2436 q 1053 2471 1017 2471 l 1895 2471 q 1906 2503 1900 2483 q 1922 2547 1913 2523 q 1943 2596 1931 2571 q 1967 2640 1954 2620 q 1994 2673 1980 2660 q 2023 2686 2008 2686 m 1881 2430 l 1690 2430 q 1625 2412 1654 2430 q 1573 2366 1596 2395 q 1532 2301 1550 2338 q 1499 2227 1514 2265 l 1381 1902 q 1359 1828 1368 1864 q 1353 1763 1351 1791 q 1372 1716 1356 1734 q 1424 1699 1388 1699 l 1611 1699 l 1881 2430 z "}}}
